<svg width="311" height="222" viewBox="0 0 311 222" fill="none" xmlns="http://www.w3.org/2000/svg">
<path d="M7.42 7.56C8.22 7.56 8.9 7.67333 9.46 7.9C10.02 8.12667 10.5667 8.44667 11.1 8.86C11.2467 8.98 11.3733 9.04 11.48 9.04C11.7467 9.04 11.92 8.64 12 7.84H12.46C12.4067 8.70667 12.38 10.24 12.38 12.44H11.92C11.7733 11.5733 11.64 10.9533 11.52 10.58C11.4 10.1933 11.2 9.82667 10.92 9.48C10.52 8.96 10.0067 8.57333 9.38 8.32C8.76667 8.05333 8.1 7.92 7.38 7.92C6.51333 7.92 5.75333 8.20667 5.1 8.78C4.46 9.35333 3.96 10.1733 3.6 11.24C3.24 12.2933 3.06 13.5333 3.06 14.96C3.06 16.4133 3.25333 17.66 3.64 18.7C4.02667 19.74 4.56 20.5333 5.24 21.08C5.93333 21.6133 6.71333 21.88 7.58 21.88C8.24667 21.88 8.89333 21.7533 9.52 21.5C10.1467 21.2467 10.64 20.8667 11 20.36C11.2667 19.9867 11.46 19.5867 11.58 19.16C11.7 18.7333 11.8133 18.08 11.92 17.2H12.38C12.38 19.4933 12.4067 21.0933 12.46 22H12C11.96 21.5733 11.9 21.2733 11.82 21.1C11.7533 20.9133 11.6533 20.82 11.52 20.82C11.4133 20.82 11.2733 20.8733 11.1 20.98C10.5 21.4067 9.92667 21.7333 9.38 21.96C8.83333 22.1733 8.17333 22.28 7.4 22.28C6.13333 22.28 5.02 21.9933 4.06 21.42C3.11333 20.8467 2.37333 20.02 1.84 18.94C1.32 17.8467 1.06 16.5467 1.06 15.04C1.06 13.5733 1.32667 12.2733 1.86 11.14C2.40667 10.0067 3.16 9.12667 4.12 8.5C5.09333 7.87333 6.19333 7.56 7.42 7.56ZM27.1695 8.24C26.7029 8.26667 26.3562 8.34 26.1295 8.46C25.9029 8.56667 25.7495 8.75333 25.6695 9.02C25.5895 9.27333 25.5495 9.65333 25.5495 10.16V22.1H25.0895L16.6895 9.12V19.68C16.6895 20.2 16.7295 20.5867 16.8095 20.84C16.9029 21.0933 17.0762 21.28 17.3295 21.4C17.5829 21.5067 17.9762 21.5733 18.5095 21.6V22C18.0295 21.96 17.3495 21.94 16.4695 21.94C15.6695 21.94 15.0495 21.96 14.6095 22V21.6C15.0762 21.5733 15.4229 21.5067 15.6495 21.4C15.8762 21.28 16.0295 21.0933 16.1095 20.84C16.1895 20.5733 16.2295 20.1867 16.2295 19.68V9.96C16.2295 9.45333 16.1895 9.08667 16.1095 8.86C16.0295 8.63333 15.8762 8.48 15.6495 8.4C15.4362 8.32 15.0895 8.26667 14.6095 8.24V7.84C15.0495 7.88 15.6695 7.9 16.4695 7.9C17.0695 7.9 17.5895 7.88 18.0295 7.84L25.0895 18.72V10.16C25.0895 9.64 25.0429 9.25333 24.9495 9C24.8695 8.74667 24.7029 8.56667 24.4495 8.46C24.1962 8.34 23.8029 8.26667 23.2695 8.24V7.84C23.7495 7.88 24.4295 7.9 25.3095 7.9C26.1095 7.9 26.7295 7.88 27.1695 7.84V8.24Z" fill="#91ADA3"/>
<path d="M63.84 7.84C63.7467 8.78667 63.7 9.64 63.7 10.4C63.7 11.0667 63.72 11.6133 63.76 12.04H63.3C63.1933 11.0133 63.06 10.2533 62.9 9.76C62.74 9.25333 62.46 8.88667 62.06 8.66C61.66 8.42 61.0467 8.3 60.22 8.3H59.14V19.68C59.14 20.24 59.1933 20.6467 59.3 20.9C59.4067 21.1533 59.5933 21.3267 59.86 21.42C60.1267 21.5133 60.56 21.5733 61.16 21.6V22C60.4667 21.96 59.4867 21.94 58.22 21.94C56.8867 21.94 55.9 21.96 55.26 22V21.6C55.86 21.5733 56.2933 21.5133 56.56 21.42C56.8267 21.3267 57.0133 21.1533 57.12 20.9C57.2267 20.6467 57.28 20.24 57.28 19.68V8.3H56.2C55.3733 8.3 54.76 8.42 54.36 8.66C53.96 8.88667 53.68 9.25333 53.52 9.76C53.36 10.2533 53.2267 11.0133 53.12 12.04H52.66C52.7 11.6133 52.72 11.0667 52.72 10.4C52.72 9.64 52.6733 8.78667 52.58 7.84C53.6867 7.88 55.5667 7.9 58.22 7.9C60.86 7.9 62.7333 7.88 63.84 7.84ZM69.3019 11.42C70.2352 11.42 70.9685 11.64 71.5019 12.08C72.0352 12.52 72.3019 13.14 72.3019 13.94C72.3019 14.4867 72.1552 15.02 71.8619 15.54C71.5819 16.0467 71.2352 16.5133 70.8219 16.94C70.4219 17.3667 69.8885 17.88 69.2219 18.48C68.6752 18.9867 68.2685 19.3733 68.0019 19.64C67.7352 19.8933 67.4952 20.1667 67.2819 20.46H71.3419C71.7019 20.46 71.9685 20.4333 72.1419 20.38C72.3285 20.3133 72.4552 20.2133 72.5219 20.08C72.5885 19.9333 72.6419 19.72 72.6819 19.44H73.0219C73.0219 20.6667 73.0485 21.5533 73.1019 22.1C72.8085 22.0333 71.8152 22 70.1219 22H65.4419V21.66C65.6685 21.42 66.0552 21.04 66.6019 20.52C67.3619 19.8133 67.9952 19.18 68.5019 18.62C69.0085 18.0467 69.4419 17.4 69.8019 16.68C70.1752 15.96 70.3619 15.1933 70.3619 14.38C70.3619 12.94 69.6952 12.22 68.3619 12.22C67.2685 12.22 66.3752 12.8467 65.6819 14.1L65.3619 13.92C65.7085 13.2 66.2019 12.6067 66.8419 12.14C67.4819 11.66 68.3019 11.42 69.3019 11.42Z" fill="#585858"/>
<path d="M109.84 7.84C109.747 8.78667 109.7 9.64 109.7 10.4C109.7 11.0667 109.72 11.6133 109.76 12.04H109.3C109.193 11.0133 109.06 10.2533 108.9 9.76C108.74 9.25333 108.46 8.88667 108.06 8.66C107.66 8.42 107.047 8.3 106.22 8.3H105.14V19.68C105.14 20.24 105.193 20.6467 105.3 20.9C105.407 21.1533 105.593 21.3267 105.86 21.42C106.127 21.5133 106.56 21.5733 107.16 21.6V22C106.467 21.96 105.487 21.94 104.22 21.94C102.887 21.94 101.9 21.96 101.26 22V21.6C101.86 21.5733 102.293 21.5133 102.56 21.42C102.827 21.3267 103.013 21.1533 103.12 20.9C103.227 20.6467 103.28 20.24 103.28 19.68V8.3H102.2C101.373 8.3 100.76 8.42 100.36 8.66C99.96 8.88667 99.68 9.25333 99.52 9.76C99.36 10.2533 99.2267 11.0133 99.12 12.04H98.66C98.7 11.6133 98.72 11.0667 98.72 10.4C98.72 9.64 98.6733 8.78667 98.58 7.84C99.6867 7.88 101.567 7.9 104.22 7.9C106.86 7.9 108.733 7.88 109.84 7.84ZM114.962 11.42C115.802 11.42 116.489 11.6267 117.022 12.04C117.569 12.4533 117.842 13.0067 117.842 13.7C117.842 14.4333 117.549 15.0933 116.962 15.68C116.389 16.2667 115.689 16.7067 114.862 17C115.889 17.0267 116.762 17.3 117.482 17.82C118.202 18.34 118.562 19.08 118.562 20.04C118.562 21 118.189 21.86 117.442 22.62C116.709 23.38 115.769 23.9667 114.622 24.38C113.489 24.8067 112.335 25.02 111.162 25.02V24.66C112.109 24.6333 113.002 24.4333 113.842 24.06C114.682 23.7 115.362 23.1733 115.882 22.48C116.402 21.8 116.662 20.9867 116.662 20.04C116.662 19.2533 116.469 18.6067 116.082 18.1C115.695 17.58 115.182 17.2933 114.542 17.24C114.489 17.2667 114.349 17.3267 114.122 17.42C113.909 17.5 113.735 17.54 113.602 17.54C113.389 17.54 113.282 17.4533 113.282 17.28C113.282 17.16 113.329 17.0667 113.422 17C113.529 16.9333 113.655 16.9 113.802 16.9C113.882 16.9 113.989 16.9133 114.122 16.94C114.269 16.9533 114.395 16.9667 114.502 16.98C115.022 16.58 115.409 16.1333 115.662 15.64C115.915 15.1467 116.042 14.6333 116.042 14.1C116.042 13.4867 115.889 13.0333 115.582 12.74C115.275 12.4467 114.849 12.3 114.302 12.3C113.742 12.3 113.235 12.4533 112.782 12.76C112.329 13.0533 111.949 13.4933 111.642 14.08L111.302 13.92C112.075 12.2533 113.295 11.42 114.962 11.42Z" fill="#585858"/>
<path d="M155.84 7.84C155.747 8.78667 155.7 9.64 155.7 10.4C155.7 11.0667 155.72 11.6133 155.76 12.04H155.3C155.193 11.0133 155.06 10.2533 154.9 9.76C154.74 9.25333 154.46 8.88667 154.06 8.66C153.66 8.42 153.047 8.3 152.22 8.3H151.14V19.68C151.14 20.24 151.193 20.6467 151.3 20.9C151.407 21.1533 151.593 21.3267 151.86 21.42C152.127 21.5133 152.56 21.5733 153.16 21.6V22C152.467 21.96 151.487 21.94 150.22 21.94C148.887 21.94 147.9 21.96 147.26 22V21.6C147.86 21.5733 148.293 21.5133 148.56 21.42C148.827 21.3267 149.013 21.1533 149.12 20.9C149.227 20.6467 149.28 20.24 149.28 19.68V8.3H148.2C147.373 8.3 146.76 8.42 146.36 8.66C145.96 8.88667 145.68 9.25333 145.52 9.76C145.36 10.2533 145.227 11.0133 145.12 12.04H144.66C144.7 11.6133 144.72 11.0667 144.72 10.4C144.72 9.64 144.673 8.78667 144.58 7.84C145.687 7.88 147.567 7.9 150.22 7.9C152.86 7.9 154.733 7.88 155.84 7.84ZM165.582 21.02C165.409 20.98 164.742 20.9467 163.582 20.92V24.82H161.982V20.92H156.762V20.5L163.262 11.42H163.582V19.58H163.822C164.182 19.58 164.449 19.5533 164.622 19.5C164.809 19.4333 164.935 19.3333 165.002 19.2C165.069 19.0533 165.122 18.84 165.162 18.56H165.502C165.502 19.68 165.529 20.5 165.582 21.02ZM161.982 19.58V13.86L157.942 19.58H161.982Z" fill="#585858"/>
<path d="M202.84 7.84C202.747 8.78667 202.7 9.64 202.7 10.4C202.7 11.0667 202.72 11.6133 202.76 12.04H202.3C202.193 11.0133 202.06 10.2533 201.9 9.76C201.74 9.25333 201.46 8.88667 201.06 8.66C200.66 8.42 200.047 8.3 199.22 8.3H198.14V19.68C198.14 20.24 198.193 20.6467 198.3 20.9C198.407 21.1533 198.593 21.3267 198.86 21.42C199.127 21.5133 199.56 21.5733 200.16 21.6V22C199.467 21.96 198.487 21.94 197.22 21.94C195.887 21.94 194.9 21.96 194.26 22V21.6C194.86 21.5733 195.293 21.5133 195.56 21.42C195.827 21.3267 196.013 21.1533 196.12 20.9C196.227 20.6467 196.28 20.24 196.28 19.68V8.3H195.2C194.373 8.3 193.76 8.42 193.36 8.66C192.96 8.88667 192.68 9.25333 192.52 9.76C192.36 10.2533 192.227 11.0133 192.12 12.04H191.66C191.7 11.6133 191.72 11.0667 191.72 10.4C191.72 9.64 191.673 8.78667 191.58 7.84C192.687 7.88 194.567 7.9 197.22 7.9C199.86 7.9 201.733 7.88 202.84 7.84ZM210.102 10.7C210.102 12.06 210.129 13.0333 210.182 13.62C209.902 13.5533 208.975 13.52 207.402 13.52H205.282L205.042 17.38C205.415 17.1933 205.775 17.0467 206.122 16.94C206.469 16.8333 206.889 16.78 207.382 16.78C208.542 16.78 209.422 17.0667 210.022 17.64C210.622 18.2 210.922 18.94 210.922 19.86C210.922 20.8467 210.595 21.7267 209.942 22.5C209.302 23.2867 208.469 23.8933 207.442 24.32C206.429 24.7467 205.389 24.96 204.322 24.96V24.6C205.135 24.5867 205.895 24.4067 206.602 24.06C207.322 23.7133 207.902 23.2 208.342 22.52C208.795 21.84 209.022 21.02 209.022 20.06C209.022 19.22 208.802 18.5667 208.362 18.1C207.922 17.62 207.302 17.38 206.502 17.38C206.182 17.38 205.909 17.4067 205.682 17.46C205.455 17.5133 205.182 17.6 204.862 17.72L204.662 17.6L205.042 11.64C205.309 11.6933 205.669 11.72 206.122 11.72H208.382C208.742 11.72 209.009 11.6933 209.182 11.64C209.369 11.5733 209.495 11.4733 209.562 11.34C209.629 11.1933 209.682 10.98 209.722 10.7H210.102Z" fill="#585858"/>
<path d="M247.84 7.84C247.747 8.78667 247.7 9.64 247.7 10.4C247.7 11.0667 247.72 11.6133 247.76 12.04H247.3C247.193 11.0133 247.06 10.2533 246.9 9.76C246.74 9.25333 246.46 8.88667 246.06 8.66C245.66 8.42 245.047 8.3 244.22 8.3H243.14V19.68C243.14 20.24 243.193 20.6467 243.3 20.9C243.407 21.1533 243.593 21.3267 243.86 21.42C244.127 21.5133 244.56 21.5733 245.16 21.6V22C244.467 21.96 243.487 21.94 242.22 21.94C240.887 21.94 239.9 21.96 239.26 22V21.6C239.86 21.5733 240.293 21.5133 240.56 21.42C240.827 21.3267 241.013 21.1533 241.12 20.9C241.227 20.6467 241.28 20.24 241.28 19.68V8.3H240.2C239.373 8.3 238.76 8.42 238.36 8.66C237.96 8.88667 237.68 9.25333 237.52 9.76C237.36 10.2533 237.227 11.0133 237.12 12.04H236.66C236.7 11.6133 236.72 11.0667 236.72 10.4C236.72 9.64 236.673 8.78667 236.58 7.84C237.687 7.88 239.567 7.9 242.22 7.9C244.86 7.9 246.733 7.88 247.84 7.84ZM254.402 13.24C255.042 13.24 255.635 13.4133 256.182 13.76C256.729 14.1067 257.169 14.6133 257.502 15.28C257.835 15.9333 258.002 16.7067 258.002 17.6C258.002 18.5733 257.802 19.4133 257.402 20.12C257.015 20.8267 256.489 21.3667 255.822 21.74C255.155 22.1 254.415 22.28 253.602 22.28C252.322 22.28 251.322 21.78 250.602 20.78C249.882 19.78 249.522 18.3867 249.522 16.6C249.522 14.7333 249.875 13.1533 250.582 11.86C251.302 10.5533 252.175 9.56 253.202 8.88C254.229 8.18667 255.262 7.74 256.302 7.54L256.382 7.94C255.569 8.20667 254.835 8.56667 254.182 9.02C253.542 9.47333 252.975 10.1733 252.482 11.12C251.989 12.0667 251.675 13.3133 251.542 14.86C251.849 14.3 252.269 13.8933 252.802 13.64C253.335 13.3733 253.869 13.24 254.402 13.24ZM253.802 21.88C254.455 21.88 254.995 21.54 255.422 20.86C255.849 20.18 256.062 19.14 256.062 17.74C256.062 16.38 255.862 15.3867 255.462 14.76C255.062 14.1333 254.542 13.82 253.902 13.82C253.435 13.82 252.969 13.96 252.502 14.24C252.049 14.5067 251.709 14.94 251.482 15.54C251.469 15.7533 251.462 16.0933 251.462 16.56C251.462 18.48 251.689 19.8467 252.142 20.66C252.595 21.4733 253.149 21.88 253.802 21.88Z" fill="#585858"/>
<path d="M294.84 7.84C294.747 8.78667 294.7 9.64 294.7 10.4C294.7 11.0667 294.72 11.6133 294.76 12.04H294.3C294.193 11.0133 294.06 10.2533 293.9 9.76C293.74 9.25333 293.46 8.88667 293.06 8.66C292.66 8.42 292.047 8.3 291.22 8.3H290.14V19.68C290.14 20.24 290.193 20.6467 290.3 20.9C290.407 21.1533 290.593 21.3267 290.86 21.42C291.127 21.5133 291.56 21.5733 292.16 21.6V22C291.467 21.96 290.487 21.94 289.22 21.94C287.887 21.94 286.9 21.96 286.26 22V21.6C286.86 21.5733 287.293 21.5133 287.56 21.42C287.827 21.3267 288.013 21.1533 288.12 20.9C288.227 20.6467 288.28 20.24 288.28 19.68V8.3H287.2C286.373 8.3 285.76 8.42 285.36 8.66C284.96 8.88667 284.68 9.25333 284.52 9.76C284.36 10.2533 284.227 11.0133 284.12 12.04H283.66C283.7 11.6133 283.72 11.0667 283.72 10.4C283.72 9.64 283.673 8.78667 283.58 7.84C284.687 7.88 286.567 7.9 289.22 7.9C291.86 7.9 293.733 7.88 294.84 7.84ZM303.382 12.14C303.182 12.6067 302.835 13.32 302.342 14.28C301.822 15.28 301.402 16.1467 301.082 16.88C300.762 17.6 300.489 18.4333 300.262 19.38C300.035 20.3133 299.922 21.3067 299.922 22.36C299.922 22.6267 299.935 22.9467 299.962 23.32C299.989 23.6133 300.002 23.82 300.002 23.94C300.002 24.2467 299.915 24.4933 299.742 24.68C299.569 24.8667 299.342 24.96 299.062 24.96C298.769 24.96 298.542 24.8533 298.382 24.64C298.235 24.4267 298.162 24.16 298.162 23.84C298.162 22.8133 298.315 21.8 298.622 20.8C298.942 19.8 299.322 18.88 299.762 18.04C300.215 17.1867 300.802 16.1667 301.522 14.98L302.462 13.4H297.722C297.362 13.4 297.089 13.4333 296.902 13.5C296.729 13.5533 296.609 13.6533 296.542 13.8C296.475 13.9333 296.422 14.14 296.382 14.42H296.042C296.042 13.1 296.015 12.1667 295.962 11.62C296.269 11.6867 297.262 11.72 298.942 11.72H303.382V12.14Z" fill="#F38723"/>
<path d="M4.87031 216V214.62C4.88365 214.607 5.05698 214.5 5.39031 214.3C5.73698 214.1 6.17698 213.827 6.71031 213.48C7.24365 213.12 7.79698 212.72 8.37031 212.28C8.95698 211.827 9.49698 211.347 9.99031 210.84C10.4836 210.333 10.857 209.833 11.1103 209.34C11.417 208.7 11.5103 208.133 11.3903 207.64C11.2836 207.133 11.017 206.74 10.5903 206.46C10.177 206.167 9.66365 206.02 9.05031 206.02C8.29031 206.033 7.68365 206.28 7.23031 206.76C6.77698 207.24 6.59031 207.96 6.67031 208.92L5.13031 208.72C5.06365 207.867 5.19698 207.14 5.53031 206.54C5.87698 205.927 6.37031 205.46 7.01031 205.14C7.65031 204.807 8.39031 204.64 9.23031 204.64C9.95031 204.64 10.5903 204.773 11.1503 205.04C11.7103 205.293 12.157 205.653 12.4903 206.12C12.837 206.573 13.0303 207.093 13.0703 207.68C13.1103 208.267 12.9703 208.887 12.6503 209.54C12.397 210.033 12.0436 210.52 11.5903 211C11.1503 211.467 10.6636 211.907 10.1303 212.32C9.59698 212.733 9.07698 213.107 8.57031 213.44C8.07698 213.76 7.64365 214.02 7.27031 214.22C6.91031 214.407 6.68365 214.52 6.59031 214.56H13.2903V216H4.87031ZM19.7275 216.2C18.6475 216.2 17.7608 215.947 17.0675 215.44C16.3875 214.933 15.8875 214.26 15.5675 213.42C15.2475 212.58 15.0875 211.653 15.0875 210.64C15.0875 209.88 15.1875 209.133 15.3875 208.4C15.6008 207.667 15.9142 207.013 16.3275 206.44C16.7408 205.853 17.2608 205.393 17.8875 205.06C18.5142 204.713 19.2475 204.54 20.0875 204.54C20.8342 204.54 21.4475 204.653 21.9275 204.88C22.4075 205.093 22.7742 205.347 23.0275 205.64C23.2942 205.933 23.4808 206.193 23.5875 206.42C23.6942 206.633 23.7475 206.74 23.7475 206.74L22.1275 207.08C22.1275 207.08 22.0608 206.993 21.9275 206.82C21.7942 206.633 21.5742 206.453 21.2675 206.28C20.9608 206.093 20.5408 206 20.0075 206C19.3408 206 18.7342 206.22 18.1875 206.66C17.6408 207.1 17.2275 207.733 16.9475 208.56C16.6675 209.373 16.6008 210.36 16.7475 211.52C16.7608 211.32 16.8408 211.06 16.9875 210.74C17.1342 210.42 17.3475 210.107 17.6275 209.8C17.9208 209.48 18.2942 209.22 18.7475 209.02C19.2142 208.807 19.7742 208.707 20.4275 208.72C21.2808 208.733 21.9808 208.927 22.5275 209.3C23.0875 209.66 23.4942 210.127 23.7475 210.7C24.0008 211.26 24.1008 211.86 24.0475 212.5C24.0075 213.127 23.8142 213.72 23.4675 214.28C23.1342 214.84 22.6542 215.3 22.0275 215.66C21.4008 216.02 20.6342 216.2 19.7275 216.2ZM19.8075 214.8C20.4875 214.813 21.0408 214.653 21.4675 214.32C21.9075 213.987 22.2075 213.58 22.3675 213.1C22.5408 212.607 22.5675 212.113 22.4475 211.62C22.3408 211.127 22.0875 210.707 21.6875 210.36C21.2875 210.013 20.7475 209.827 20.0675 209.8C19.4142 209.787 18.8542 209.927 18.3875 210.22C17.9342 210.5 17.5875 210.873 17.3475 211.34C17.1075 211.793 16.9875 212.26 16.9875 212.74C17.1342 213.407 17.4675 213.92 17.9875 214.28C18.5075 214.627 19.1142 214.8 19.8075 214.8Z" fill="#91ADA3"/>
<path d="M54.2902 216V214.62C54.3036 214.607 54.4769 214.5 54.8102 214.3C55.1569 214.1 55.5969 213.827 56.1302 213.48C56.6636 213.12 57.2169 212.72 57.7902 212.28C58.3769 211.827 58.9169 211.347 59.4102 210.84C59.9036 210.333 60.2769 209.833 60.5302 209.34C60.8369 208.7 60.9302 208.133 60.8102 207.64C60.7036 207.133 60.4369 206.74 60.0102 206.46C59.5969 206.167 59.0836 206.02 58.4702 206.02C57.7102 206.033 57.1036 206.28 56.6502 206.76C56.1969 207.24 56.0102 207.96 56.0902 208.92L54.5502 208.72C54.4836 207.867 54.6169 207.14 54.9502 206.54C55.2969 205.927 55.7902 205.46 56.4302 205.14C57.0702 204.807 57.8102 204.64 58.6502 204.64C59.3702 204.64 60.0102 204.773 60.5702 205.04C61.1302 205.293 61.5769 205.653 61.9102 206.12C62.2569 206.573 62.4502 207.093 62.4902 207.68C62.5302 208.267 62.3902 208.887 62.0702 209.54C61.8169 210.033 61.4636 210.52 61.0102 211C60.5702 211.467 60.0836 211.907 59.5502 212.32C59.0169 212.733 58.4969 213.107 57.9902 213.44C57.4969 213.76 57.0636 214.02 56.6902 214.22C56.3302 214.407 56.1036 214.52 56.0102 214.56H62.7102V216H54.2902ZM67.5874 216H65.9274C65.9274 214.467 66.1474 213.08 66.5874 211.84C67.0408 210.6 67.6541 209.513 68.4274 208.58C69.2141 207.633 70.1074 206.833 71.1074 206.18H64.4474V204.74H72.7074V206.14C72.3874 206.353 72.0074 206.633 71.5674 206.98C71.1274 207.327 70.6741 207.76 70.2074 208.28C69.7541 208.787 69.3274 209.407 68.9274 210.14C68.5274 210.86 68.2008 211.707 67.9474 212.68C67.7074 213.64 67.5874 214.747 67.5874 216Z" fill="#585858"/>
<path d="M99.2434 216V214.62C99.2567 214.607 99.43 214.5 99.7634 214.3C100.11 214.1 100.55 213.827 101.083 213.48C101.617 213.12 102.17 212.72 102.743 212.28C103.33 211.827 103.87 211.347 104.363 210.84C104.857 210.333 105.23 209.833 105.483 209.34C105.79 208.7 105.883 208.133 105.763 207.64C105.657 207.133 105.39 206.74 104.963 206.46C104.55 206.167 104.037 206.02 103.423 206.02C102.663 206.033 102.057 206.28 101.603 206.76C101.15 207.24 100.963 207.96 101.043 208.92L99.5034 208.72C99.4367 207.867 99.57 207.14 99.9034 206.54C100.25 205.927 100.743 205.46 101.383 205.14C102.023 204.807 102.763 204.64 103.603 204.64C104.323 204.64 104.963 204.773 105.523 205.04C106.083 205.293 106.53 205.653 106.863 206.12C107.21 206.573 107.403 207.093 107.443 207.68C107.483 208.267 107.343 208.887 107.023 209.54C106.77 210.033 106.417 210.52 105.963 211C105.523 211.467 105.037 211.907 104.503 212.32C103.97 212.733 103.45 213.107 102.943 213.44C102.45 213.76 102.017 214.02 101.643 214.22C101.283 214.407 101.057 214.52 100.963 214.56H107.663V216H99.2434ZM114.021 216.2C113.127 216.2 112.327 216.08 111.621 215.84C110.927 215.587 110.374 215.22 109.961 214.74C109.561 214.247 109.361 213.647 109.361 212.94C109.361 212.207 109.607 211.573 110.101 211.04C110.607 210.507 111.287 210.173 112.141 210.04C111.541 209.92 111.087 209.713 110.781 209.42C110.474 209.113 110.267 208.793 110.161 208.46C110.067 208.113 110.021 207.813 110.021 207.56C110.021 206.96 110.187 206.433 110.521 205.98C110.867 205.527 111.341 205.173 111.941 204.92C112.541 204.667 113.234 204.54 114.021 204.54C114.834 204.54 115.541 204.673 116.141 204.94C116.741 205.193 117.207 205.547 117.541 206C117.874 206.453 118.041 206.973 118.041 207.56C118.041 207.813 117.987 208.113 117.881 208.46C117.787 208.793 117.587 209.113 117.281 209.42C116.974 209.713 116.521 209.92 115.921 210.04C116.787 210.2 117.467 210.54 117.961 211.06C118.467 211.567 118.721 212.193 118.721 212.94C118.721 213.66 118.507 214.267 118.081 214.76C117.667 215.24 117.107 215.6 116.401 215.84C115.694 216.08 114.901 216.2 114.021 216.2ZM114.021 209.62C114.781 209.62 115.394 209.48 115.861 209.2C116.327 208.92 116.561 208.48 116.561 207.88C116.561 207.227 116.321 206.727 115.841 206.38C115.361 206.02 114.754 205.84 114.021 205.84C113.261 205.84 112.647 206.02 112.181 206.38C111.727 206.74 111.501 207.24 111.501 207.88C111.501 208.493 111.741 208.94 112.221 209.22C112.701 209.487 113.301 209.62 114.021 209.62ZM114.021 214.88C114.967 214.88 115.714 214.673 116.261 214.26C116.807 213.847 117.081 213.313 117.081 212.66C117.081 211.927 116.807 211.38 116.261 211.02C115.714 210.647 114.967 210.46 114.021 210.46C113.087 210.46 112.347 210.647 111.801 211.02C111.254 211.38 110.981 211.927 110.981 212.66C110.981 213.313 111.254 213.847 111.801 214.26C112.347 214.673 113.087 214.88 114.021 214.88Z" fill="#585858"/>
<path d="M159.745 58.56V60H154.725V58.56H156.545V50.92C156.425 51.3733 156.245 51.7267 156.005 51.98C155.765 52.22 155.512 52.4 155.245 52.52C154.978 52.6267 154.738 52.6933 154.525 52.72C154.325 52.7333 154.192 52.74 154.125 52.74V50.96C154.205 50.9733 154.372 50.9667 154.625 50.94C154.892 50.9 155.178 50.8067 155.485 50.66C155.792 50.5133 156.065 50.2867 156.305 49.98C156.545 49.6733 156.672 49.26 156.685 48.74H158.165V58.56H159.745Z" fill="#585858"/>
<path d="M199.241 60V58.62C199.255 58.6067 199.428 58.5 199.761 58.3C200.108 58.1 200.548 57.8267 201.081 57.48C201.615 57.12 202.168 56.72 202.741 56.28C203.328 55.8267 203.868 55.3467 204.361 54.84C204.855 54.3333 205.228 53.8333 205.481 53.34C205.788 52.7 205.881 52.1333 205.761 51.64C205.655 51.1333 205.388 50.74 204.961 50.46C204.548 50.1667 204.035 50.02 203.421 50.02C202.661 50.0333 202.055 50.28 201.601 50.76C201.148 51.24 200.961 51.96 201.041 52.92L199.501 52.72C199.435 51.8667 199.568 51.14 199.901 50.54C200.248 49.9267 200.741 49.46 201.381 49.14C202.021 48.8067 202.761 48.64 203.601 48.64C204.321 48.64 204.961 48.7733 205.521 49.04C206.081 49.2933 206.528 49.6533 206.861 50.12C207.208 50.5733 207.401 51.0933 207.441 51.68C207.481 52.2667 207.341 52.8867 207.021 53.54C206.768 54.0333 206.415 54.52 205.961 55C205.521 55.4667 205.035 55.9067 204.501 56.32C203.968 56.7333 203.448 57.1067 202.941 57.44C202.448 57.76 202.015 58.02 201.641 58.22C201.281 58.4067 201.055 58.52 200.961 58.56H207.661V60H199.241Z" fill="#585858"/>
<path d="M247.641 60.2C246.814 60.2 246.054 60.0533 245.361 59.76C244.681 59.4533 244.134 59.0067 243.721 58.42C243.321 57.82 243.121 57.0667 243.121 56.16L244.701 55.96C244.741 56.88 245.048 57.5733 245.621 58.04C246.194 58.5067 246.874 58.74 247.661 58.74C248.408 58.74 249.034 58.5467 249.541 58.16C250.061 57.7733 250.321 57.26 250.321 56.62C250.321 56.1133 250.188 55.72 249.921 55.44C249.668 55.16 249.361 54.96 249.001 54.84C248.641 54.72 248.308 54.66 248.001 54.66H246.541V53.76H248.041C248.641 53.76 249.134 53.6267 249.521 53.36C249.921 53.08 250.121 52.6667 250.121 52.12C250.121 51.44 249.881 50.9067 249.401 50.52C248.934 50.12 248.314 49.92 247.541 49.92C246.914 49.92 246.401 50.0533 246.001 50.32C245.614 50.5867 245.328 50.9067 245.141 51.28C244.954 51.64 244.854 51.98 244.841 52.3L243.341 52.08C243.354 51.8667 243.428 51.5667 243.561 51.18C243.694 50.7933 243.914 50.4 244.221 50C244.528 49.5867 244.948 49.24 245.481 48.96C246.014 48.68 246.688 48.54 247.501 48.54C248.781 48.54 249.788 48.8333 250.521 49.42C251.254 49.9933 251.621 50.7733 251.621 51.76C251.621 52.4267 251.441 52.98 251.081 53.42C250.721 53.86 250.214 54.14 249.561 54.26C250.214 54.38 250.761 54.68 251.201 55.16C251.654 55.64 251.881 56.2333 251.881 56.94C251.881 57.6067 251.694 58.1867 251.321 58.68C250.961 59.1733 250.461 59.5533 249.821 59.82C249.181 60.0733 248.454 60.2 247.641 60.2Z" fill="#585858"/>
<path d="M288.953 57.7V56.26C289.606 55.9667 290.206 55.54 290.753 54.98C291.313 54.42 291.793 53.7867 292.193 53.08C292.593 52.3733 292.899 51.6467 293.113 50.9C293.339 50.14 293.453 49.42 293.453 48.74H295.233C295.233 49.6467 295.039 50.5667 294.653 51.5C294.266 52.4333 293.726 53.3133 293.033 54.14C292.353 54.9667 291.566 55.6733 290.673 56.26H294.773V54.38H296.433V56.26H297.913V57.7H296.433V60H294.773V57.7H288.953Z" fill="#F38723"/>
<path d="M14.474 99.2C13.2473 99.2 12.274 98.9 11.554 98.3C10.834 97.7 10.3807 96.9667 10.194 96.1L11.854 95.88C11.8673 95.96 11.914 96.1 11.994 96.3C12.074 96.5 12.214 96.72 12.414 96.96C12.614 97.1867 12.8807 97.38 13.214 97.54C13.5607 97.7 13.994 97.78 14.514 97.78C15.0873 97.78 15.5673 97.6667 15.954 97.44C16.354 97.2133 16.6607 96.9133 16.874 96.54C17.0873 96.1667 17.2073 95.78 17.234 95.38C17.274 94.94 17.2007 94.52 17.014 94.12C16.8273 93.7067 16.534 93.3667 16.134 93.1C15.734 92.8333 15.2273 92.7 14.614 92.7C14.0273 92.7 13.5607 92.8 13.214 93C12.8673 93.1867 12.614 93.38 12.454 93.58C12.3073 93.78 12.234 93.8867 12.234 93.9L10.554 93.6L11.134 87.74H18.334V89.18H12.334L11.934 92.98C11.934 92.98 11.9873 92.9133 12.094 92.78C12.214 92.6333 12.394 92.4667 12.634 92.28C12.8873 92.08 13.2073 91.9067 13.594 91.76C13.994 91.6133 14.4807 91.54 15.054 91.54C15.9607 91.54 16.7007 91.7333 17.274 92.12C17.8607 92.4933 18.2807 92.9733 18.534 93.56C18.8007 94.1467 18.914 94.76 18.874 95.4C18.8207 96.04 18.614 96.6533 18.254 97.24C17.9073 97.8133 17.414 98.2867 16.774 98.66C16.134 99.02 15.3673 99.2 14.474 99.2Z" fill="#91ADA3"/>
<path d="M63.6689 99.2C62.5889 99.2 61.7022 98.9467 61.0089 98.44C60.3289 97.9333 59.8289 97.26 59.5089 96.42C59.1889 95.58 59.0289 94.6533 59.0289 93.64C59.0289 92.88 59.1289 92.1333 59.3289 91.4C59.5422 90.6667 59.8556 90.0133 60.2689 89.44C60.6822 88.8533 61.2022 88.3933 61.8289 88.06C62.4556 87.7133 63.1889 87.54 64.0289 87.54C64.7756 87.54 65.3889 87.6533 65.8689 87.88C66.3489 88.0933 66.7156 88.3467 66.9689 88.64C67.2356 88.9333 67.4222 89.1933 67.5289 89.42C67.6356 89.6333 67.6889 89.74 67.6889 89.74L66.0689 90.08C66.0689 90.08 66.0022 89.9933 65.8689 89.82C65.7356 89.6333 65.5156 89.4533 65.2089 89.28C64.9022 89.0933 64.4822 89 63.9489 89C63.2822 89 62.6756 89.22 62.1289 89.66C61.5822 90.1 61.1689 90.7333 60.8889 91.56C60.6089 92.3733 60.5422 93.36 60.6889 94.52C60.7022 94.32 60.7822 94.06 60.9289 93.74C61.0756 93.42 61.2889 93.1067 61.5689 92.8C61.8622 92.48 62.2356 92.22 62.6889 92.02C63.1556 91.8067 63.7156 91.7067 64.3689 91.72C65.2222 91.7333 65.9222 91.9267 66.4689 92.3C67.0289 92.66 67.4356 93.1267 67.6889 93.7C67.9422 94.26 68.0422 94.86 67.9889 95.5C67.9489 96.1267 67.7556 96.72 67.4089 97.28C67.0756 97.84 66.5956 98.3 65.9689 98.66C65.3422 99.02 64.5756 99.2 63.6689 99.2ZM63.7489 97.8C64.4289 97.8133 64.9822 97.6533 65.4089 97.32C65.8489 96.9867 66.1489 96.58 66.3089 96.1C66.4822 95.6067 66.5089 95.1133 66.3889 94.62C66.2822 94.1267 66.0289 93.7067 65.6289 93.36C65.2289 93.0133 64.6889 92.8267 64.0089 92.8C63.3556 92.7867 62.7956 92.9267 62.3289 93.22C61.8756 93.5 61.5289 93.8733 61.2889 94.34C61.0489 94.7933 60.9289 95.26 60.9289 95.74C61.0756 96.4067 61.4089 96.92 61.9289 97.28C62.4489 97.6267 63.0556 97.8 63.7489 97.8Z" fill="#585858"/>
<path d="M108.029 99H106.369C106.369 97.4667 106.589 96.08 107.029 94.84C107.482 93.6 108.095 92.5133 108.869 91.58C109.655 90.6333 110.549 89.8333 111.549 89.18H104.889V87.74H113.149V89.14C112.829 89.3533 112.449 89.6333 112.009 89.98C111.569 90.3267 111.115 90.76 110.649 91.28C110.195 91.7867 109.769 92.4067 109.369 93.14C108.969 93.86 108.642 94.7067 108.389 95.68C108.149 96.64 108.029 97.7467 108.029 99Z" fill="#585858"/>
<path d="M157.462 99.2C156.569 99.2 155.769 99.08 155.062 98.84C154.369 98.5867 153.815 98.22 153.402 97.74C153.002 97.2467 152.802 96.6467 152.802 95.94C152.802 95.2067 153.049 94.5733 153.542 94.04C154.049 93.5067 154.729 93.1733 155.582 93.04C154.982 92.92 154.529 92.7133 154.222 92.42C153.915 92.1133 153.709 91.7933 153.602 91.46C153.509 91.1133 153.462 90.8133 153.462 90.56C153.462 89.96 153.629 89.4333 153.962 88.98C154.309 88.5267 154.782 88.1733 155.382 87.92C155.982 87.6667 156.675 87.54 157.462 87.54C158.275 87.54 158.982 87.6733 159.582 87.94C160.182 88.1933 160.649 88.5467 160.982 89C161.315 89.4533 161.482 89.9733 161.482 90.56C161.482 90.8133 161.429 91.1133 161.322 91.46C161.229 91.7933 161.029 92.1133 160.722 92.42C160.415 92.7133 159.962 92.92 159.362 93.04C160.229 93.2 160.909 93.54 161.402 94.06C161.909 94.5667 162.162 95.1933 162.162 95.94C162.162 96.66 161.949 97.2667 161.522 97.76C161.109 98.24 160.549 98.6 159.842 98.84C159.135 99.08 158.342 99.2 157.462 99.2ZM157.462 92.62C158.222 92.62 158.835 92.48 159.302 92.2C159.769 91.92 160.002 91.48 160.002 90.88C160.002 90.2267 159.762 89.7267 159.282 89.38C158.802 89.02 158.195 88.84 157.462 88.84C156.702 88.84 156.089 89.02 155.622 89.38C155.169 89.74 154.942 90.24 154.942 90.88C154.942 91.4933 155.182 91.94 155.662 92.22C156.142 92.4867 156.742 92.62 157.462 92.62ZM157.462 97.88C158.409 97.88 159.155 97.6733 159.702 97.26C160.249 96.8467 160.522 96.3133 160.522 95.66C160.522 94.9267 160.249 94.38 159.702 94.02C159.155 93.6467 158.409 93.46 157.462 93.46C156.529 93.46 155.789 93.6467 155.242 94.02C154.695 94.38 154.422 94.9267 154.422 95.66C154.422 96.3133 154.695 96.8467 155.242 97.26C155.789 97.6733 156.529 97.88 157.462 97.88Z" fill="#585858"/>
<path d="M203.299 99.2C202.459 99.2 201.772 99.0867 201.239 98.86C200.706 98.62 200.286 98.3467 199.979 98.04C199.686 97.72 199.479 97.44 199.359 97.2C199.239 96.96 199.179 96.8333 199.179 96.82L200.799 96.44C200.799 96.4533 200.839 96.5267 200.919 96.66C200.999 96.78 201.132 96.9267 201.319 97.1C201.519 97.26 201.779 97.4067 202.099 97.54C202.419 97.66 202.819 97.72 203.299 97.72C204.339 97.72 205.112 97.2667 205.619 96.36C206.139 95.4533 206.372 94.1267 206.319 92.38C206.292 92.58 206.199 92.8333 206.039 93.14C205.892 93.4333 205.679 93.7267 205.399 94.02C205.119 94.3133 204.759 94.56 204.319 94.76C203.892 94.96 203.392 95.06 202.819 95.06C201.926 95.06 201.186 94.88 200.599 94.52C200.026 94.16 199.599 93.7 199.319 93.14C199.052 92.58 198.932 91.9867 198.959 91.36C198.999 90.72 199.186 90.12 199.519 89.56C199.852 89 200.339 88.54 200.979 88.18C201.619 87.82 202.406 87.64 203.339 87.64C204.472 87.64 205.386 87.9133 206.079 88.46C206.772 88.9933 207.266 89.7067 207.559 90.6C207.866 91.4933 207.992 92.4667 207.939 93.52C207.899 94.5733 207.726 95.5333 207.419 96.4C207.112 97.2533 206.626 97.9333 205.959 98.44C205.306 98.9467 204.419 99.2 203.299 99.2ZM203.159 94.02C204.026 94.02 204.706 93.76 205.199 93.24C205.706 92.7067 206.006 92.0467 206.099 91.26C205.912 90.5 205.572 89.9333 205.079 89.56C204.586 89.1867 203.999 89 203.319 89C202.612 89 202.039 89.1667 201.599 89.5C201.172 89.8333 200.879 90.2533 200.719 90.76C200.559 91.2533 200.539 91.7533 200.659 92.26C200.792 92.7533 201.066 93.1733 201.479 93.52C201.892 93.8533 202.452 94.02 203.159 94.02Z" fill="#585858"/>
<path d="M244.452 97.56V99H239.432V97.56H241.252V89.92C241.132 90.3733 240.952 90.7267 240.712 90.98C240.472 91.22 240.219 91.4 239.952 91.52C239.685 91.6267 239.445 91.6933 239.232 91.72C239.032 91.7333 238.899 91.74 238.832 91.74V89.96C238.912 89.9733 239.079 89.9667 239.332 89.94C239.599 89.9 239.885 89.8067 240.192 89.66C240.499 89.5133 240.772 89.2867 241.012 88.98C241.252 88.6733 241.379 88.26 241.392 87.74H242.872V97.56H244.452ZM250.542 99.28C248.916 99.28 247.716 98.7533 246.942 97.7C246.182 96.6333 245.802 95.2 245.802 93.4C245.802 92.2133 245.962 91.1867 246.282 90.32C246.616 89.44 247.129 88.76 247.822 88.28C248.529 87.7867 249.436 87.54 250.542 87.54C251.622 87.54 252.509 87.78 253.202 88.26C253.909 88.74 254.429 89.42 254.762 90.3C255.109 91.18 255.282 92.2133 255.282 93.4C255.282 94.56 255.109 95.5867 254.762 96.48C254.429 97.36 253.909 98.0467 253.202 98.54C252.509 99.0333 251.622 99.28 250.542 99.28ZM250.522 97.88C251.629 97.88 252.436 97.4933 252.942 96.72C253.462 95.9467 253.722 94.84 253.722 93.4C253.722 91.9733 253.469 90.8733 252.962 90.1C252.456 89.3133 251.642 88.92 250.522 88.92C249.442 88.92 248.642 89.3 248.122 90.06C247.616 90.8067 247.362 91.92 247.362 93.4C247.362 94.8267 247.609 95.9333 248.102 96.72C248.596 97.4933 249.402 97.88 250.522 97.88Z" fill="#585858"/>
<path d="M292.71 97.56V99H287.69V97.56H289.51V89.92C289.39 90.3733 289.21 90.7267 288.97 90.98C288.73 91.22 288.476 91.4 288.21 91.52C287.943 91.6267 287.703 91.6933 287.49 91.72C287.29 91.7333 287.156 91.74 287.09 91.74V89.96C287.17 89.9733 287.336 89.9667 287.59 89.94C287.856 89.9 288.143 89.8067 288.45 89.66C288.756 89.5133 289.03 89.2867 289.27 88.98C289.51 88.6733 289.636 88.26 289.65 87.74H291.13V97.56H292.71ZM299.78 97.56V99H294.76V97.56H296.58V89.92C296.46 90.3733 296.28 90.7267 296.04 90.98C295.8 91.22 295.547 91.4 295.28 91.52C295.013 91.6267 294.773 91.6933 294.56 91.72C294.36 91.7333 294.227 91.74 294.16 91.74V89.96C294.24 89.9733 294.407 89.9667 294.66 89.94C294.927 89.9 295.213 89.8067 295.52 89.66C295.827 89.5133 296.1 89.2867 296.34 88.98C296.58 88.6733 296.707 88.26 296.72 87.74H298.2V97.56H299.78Z" fill="#F38723"/>
<path d="M11.6863 136.56V138H6.66625V136.56H8.48625V128.92C8.36625 129.373 8.18625 129.727 7.94625 129.98C7.70625 130.22 7.45292 130.4 7.18625 130.52C6.91958 130.627 6.67958 130.693 6.46625 130.72C6.26625 130.733 6.13292 130.74 6.06625 130.74V128.96C6.14625 128.973 6.31292 128.967 6.56625 128.94C6.83292 128.9 7.11958 128.807 7.42625 128.66C7.73292 128.513 8.00625 128.287 8.24625 127.98C8.48625 127.673 8.61292 127.26 8.62625 126.74H10.1063V136.56H11.6863ZM13.2766 138V136.62C13.2899 136.607 13.4632 136.5 13.7966 136.3C14.1432 136.1 14.5832 135.827 15.1166 135.48C15.6499 135.12 16.2032 134.72 16.7766 134.28C17.3632 133.827 17.9032 133.347 18.3966 132.84C18.8899 132.333 19.2632 131.833 19.5166 131.34C19.8232 130.7 19.9166 130.133 19.7966 129.64C19.6899 129.133 19.4232 128.74 18.9966 128.46C18.5832 128.167 18.0699 128.02 17.4566 128.02C16.6966 128.033 16.0899 128.28 15.6366 128.76C15.1832 129.24 14.9966 129.96 15.0766 130.92L13.5366 130.72C13.4699 129.867 13.6032 129.14 13.9366 128.54C14.2832 127.927 14.7766 127.46 15.4166 127.14C16.0566 126.807 16.7966 126.64 17.6366 126.64C18.3566 126.64 18.9966 126.773 19.5566 127.04C20.1166 127.293 20.5632 127.653 20.8966 128.12C21.2432 128.573 21.4366 129.093 21.4766 129.68C21.5166 130.267 21.3766 130.887 21.0566 131.54C20.8032 132.033 20.4499 132.52 19.9966 133C19.5566 133.467 19.0699 133.907 18.5366 134.32C18.0032 134.733 17.4832 135.107 16.9766 135.44C16.4832 135.76 16.0499 136.02 15.6766 136.22C15.3166 136.407 15.0899 136.52 14.9966 136.56H21.6966V138H13.2766Z" fill="#91ADA3"/>
<path d="M60.7058 136.56V138H55.6858V136.56H57.5058V128.92C57.3858 129.373 57.2058 129.727 56.9658 129.98C56.7258 130.22 56.4724 130.4 56.2058 130.52C55.9391 130.627 55.6991 130.693 55.4858 130.72C55.2858 130.733 55.1524 130.74 55.0858 130.74V128.96C55.1658 128.973 55.3324 128.967 55.5858 128.94C55.8524 128.9 56.1391 128.807 56.4458 128.66C56.7524 128.513 57.0258 128.287 57.2658 127.98C57.5058 127.673 57.6324 127.26 57.6458 126.74H59.1258V136.56H60.7058ZM66.6761 138.2C65.8494 138.2 65.0894 138.053 64.3961 137.76C63.7161 137.453 63.1694 137.007 62.7561 136.42C62.3561 135.82 62.1561 135.067 62.1561 134.16L63.7361 133.96C63.7761 134.88 64.0828 135.573 64.6561 136.04C65.2294 136.507 65.9094 136.74 66.6961 136.74C67.4428 136.74 68.0694 136.547 68.5761 136.16C69.0961 135.773 69.3561 135.26 69.3561 134.62C69.3561 134.113 69.2228 133.72 68.9561 133.44C68.7028 133.16 68.3961 132.96 68.0361 132.84C67.6761 132.72 67.3428 132.66 67.0361 132.66H65.5761V131.76H67.0761C67.6761 131.76 68.1694 131.627 68.5561 131.36C68.9561 131.08 69.1561 130.667 69.1561 130.12C69.1561 129.44 68.9161 128.907 68.4361 128.52C67.9694 128.12 67.3494 127.92 66.5761 127.92C65.9494 127.92 65.4361 128.053 65.0361 128.32C64.6494 128.587 64.3628 128.907 64.1761 129.28C63.9894 129.64 63.8894 129.98 63.8761 130.3L62.3761 130.08C62.3894 129.867 62.4628 129.567 62.5961 129.18C62.7294 128.793 62.9494 128.4 63.2561 128C63.5628 127.587 63.9828 127.24 64.5161 126.96C65.0494 126.68 65.7228 126.54 66.5361 126.54C67.8161 126.54 68.8228 126.833 69.5561 127.42C70.2894 127.993 70.6561 128.773 70.6561 129.76C70.6561 130.427 70.4761 130.98 70.1161 131.42C69.7561 131.86 69.2494 132.14 68.5961 132.26C69.2494 132.38 69.7961 132.68 70.2361 133.16C70.6894 133.64 70.9161 134.233 70.9161 134.94C70.9161 135.607 70.7294 136.187 70.3561 136.68C69.9961 137.173 69.4961 137.553 68.8561 137.82C68.2161 138.073 67.4894 138.2 66.6761 138.2Z" fill="#585858"/>
<path d="M106.637 136.56V138H101.617V136.56H103.437V128.92C103.317 129.373 103.137 129.727 102.897 129.98C102.657 130.22 102.404 130.4 102.137 130.52C101.871 130.627 101.631 130.693 101.417 130.72C101.217 130.733 101.084 130.74 101.017 130.74V128.96C101.097 128.973 101.264 128.967 101.517 128.94C101.784 128.9 102.071 128.807 102.377 128.66C102.684 128.513 102.957 128.287 103.197 127.98C103.437 127.673 103.564 127.26 103.577 126.74H105.057V136.56H106.637ZM107.988 135.7V134.26C108.641 133.967 109.241 133.54 109.788 132.98C110.348 132.42 110.828 131.787 111.228 131.08C111.628 130.373 111.934 129.647 112.148 128.9C112.374 128.14 112.488 127.42 112.488 126.74H114.268C114.268 127.647 114.074 128.567 113.688 129.5C113.301 130.433 112.761 131.313 112.068 132.14C111.388 132.967 110.601 133.673 109.708 134.26H113.808V132.38H115.468V134.26H116.948V135.7H115.468V138H113.808V135.7H107.988Z" fill="#585858"/>
<path d="M154.579 136.56V138H149.559V136.56H151.379V128.92C151.259 129.373 151.079 129.727 150.839 129.98C150.599 130.22 150.345 130.4 150.079 130.52C149.812 130.627 149.572 130.693 149.359 130.72C149.159 130.733 149.025 130.74 148.959 130.74V128.96C149.039 128.973 149.205 128.967 149.459 128.94C149.725 128.9 150.012 128.807 150.319 128.66C150.625 128.513 150.899 128.287 151.139 127.98C151.379 127.673 151.505 127.26 151.519 126.74H152.999V136.56H154.579ZM160.509 138.2C159.282 138.2 158.309 137.9 157.589 137.3C156.869 136.7 156.416 135.967 156.229 135.1L157.889 134.88C157.902 134.96 157.949 135.1 158.029 135.3C158.109 135.5 158.249 135.72 158.449 135.96C158.649 136.187 158.916 136.38 159.249 136.54C159.596 136.7 160.029 136.78 160.549 136.78C161.122 136.78 161.602 136.667 161.989 136.44C162.389 136.213 162.696 135.913 162.909 135.54C163.122 135.167 163.242 134.78 163.269 134.38C163.309 133.94 163.236 133.52 163.049 133.12C162.862 132.707 162.569 132.367 162.169 132.1C161.769 131.833 161.262 131.7 160.649 131.7C160.062 131.7 159.596 131.8 159.249 132C158.902 132.187 158.649 132.38 158.489 132.58C158.342 132.78 158.269 132.887 158.269 132.9L156.589 132.6L157.169 126.74H164.369V128.18H158.369L157.969 131.98C157.969 131.98 158.022 131.913 158.129 131.78C158.249 131.633 158.429 131.467 158.669 131.28C158.922 131.08 159.242 130.907 159.629 130.76C160.029 130.613 160.516 130.54 161.089 130.54C161.996 130.54 162.736 130.733 163.309 131.12C163.896 131.493 164.316 131.973 164.569 132.56C164.836 133.147 164.949 133.76 164.909 134.4C164.856 135.04 164.649 135.653 164.289 136.24C163.942 136.813 163.449 137.287 162.809 137.66C162.169 138.02 161.402 138.2 160.509 138.2Z" fill="#585858"/>
<path d="M200.374 136.56V138H195.354V136.56H197.174V128.92C197.054 129.373 196.874 129.727 196.634 129.98C196.394 130.22 196.14 130.4 195.874 130.52C195.607 130.627 195.367 130.693 195.154 130.72C194.954 130.733 194.82 130.74 194.754 130.74V128.96C194.834 128.973 195 128.967 195.254 128.94C195.52 128.9 195.807 128.807 196.114 128.66C196.42 128.513 196.694 128.287 196.934 127.98C197.174 127.673 197.3 127.26 197.314 126.74H198.794V136.56H200.374ZM206.704 138.2C205.624 138.2 204.737 137.947 204.044 137.44C203.364 136.933 202.864 136.26 202.544 135.42C202.224 134.58 202.064 133.653 202.064 132.64C202.064 131.88 202.164 131.133 202.364 130.4C202.577 129.667 202.891 129.013 203.304 128.44C203.717 127.853 204.237 127.393 204.864 127.06C205.491 126.713 206.224 126.54 207.064 126.54C207.811 126.54 208.424 126.653 208.904 126.88C209.384 127.093 209.751 127.347 210.004 127.64C210.271 127.933 210.457 128.193 210.564 128.42C210.671 128.633 210.724 128.74 210.724 128.74L209.104 129.08C209.104 129.08 209.037 128.993 208.904 128.82C208.771 128.633 208.551 128.453 208.244 128.28C207.937 128.093 207.517 128 206.984 128C206.317 128 205.711 128.22 205.164 128.66C204.617 129.1 204.204 129.733 203.924 130.56C203.644 131.373 203.577 132.36 203.724 133.52C203.737 133.32 203.817 133.06 203.964 132.74C204.111 132.42 204.324 132.107 204.604 131.8C204.897 131.48 205.271 131.22 205.724 131.02C206.191 130.807 206.751 130.707 207.404 130.72C208.257 130.733 208.957 130.927 209.504 131.3C210.064 131.66 210.471 132.127 210.724 132.7C210.977 133.26 211.077 133.86 211.024 134.5C210.984 135.127 210.791 135.72 210.444 136.28C210.111 136.84 209.631 137.3 209.004 137.66C208.377 138.02 207.611 138.2 206.704 138.2ZM206.784 136.8C207.464 136.813 208.017 136.653 208.444 136.32C208.884 135.987 209.184 135.58 209.344 135.1C209.517 134.607 209.544 134.113 209.424 133.62C209.317 133.127 209.064 132.707 208.664 132.36C208.264 132.013 207.724 131.827 207.044 131.8C206.391 131.787 205.831 131.927 205.364 132.22C204.911 132.5 204.564 132.873 204.324 133.34C204.084 133.793 203.964 134.26 203.964 134.74C204.111 135.407 204.444 135.92 204.964 136.28C205.484 136.627 206.091 136.8 206.784 136.8Z" fill="#585858"/>
<path d="M245.294 136.56V138H240.274V136.56H242.094V128.92C241.974 129.373 241.794 129.727 241.554 129.98C241.314 130.22 241.06 130.4 240.794 130.52C240.527 130.627 240.287 130.693 240.074 130.72C239.874 130.733 239.74 130.74 239.674 130.74V128.96C239.754 128.973 239.92 128.967 240.174 128.94C240.44 128.9 240.727 128.807 241.034 128.66C241.34 128.513 241.614 128.287 241.854 127.98C242.094 127.673 242.22 127.26 242.234 126.74H243.714V136.56H245.294ZM250.064 138H248.404C248.404 136.467 248.624 135.08 249.064 133.84C249.517 132.6 250.131 131.513 250.904 130.58C251.691 129.633 252.584 128.833 253.584 128.18H246.924V126.74H255.184V128.14C254.864 128.353 254.484 128.633 254.044 128.98C253.604 129.327 253.151 129.76 252.684 130.28C252.231 130.787 251.804 131.407 251.404 132.14C251.004 132.86 250.677 133.707 250.424 134.68C250.184 135.64 250.064 136.747 250.064 138Z" fill="#585858"/>
<rect x="276" y="113" width="35" height="35" rx="17.5" fill="#F38723"/>
<path d="M290.747 136.56V138H285.727V136.56H287.547V128.92C287.427 129.373 287.247 129.727 287.007 129.98C286.767 130.22 286.513 130.4 286.247 130.52C285.98 130.627 285.74 130.693 285.527 130.72C285.327 130.733 285.193 130.74 285.127 130.74V128.96C285.207 128.973 285.373 128.967 285.627 128.94C285.893 128.9 286.18 128.807 286.487 128.66C286.793 128.513 287.067 128.287 287.307 127.98C287.547 127.673 287.673 127.26 287.687 126.74H289.167V136.56H290.747ZM296.997 138.2C296.104 138.2 295.304 138.08 294.597 137.84C293.904 137.587 293.35 137.22 292.937 136.74C292.537 136.247 292.337 135.647 292.337 134.94C292.337 134.207 292.584 133.573 293.077 133.04C293.584 132.507 294.264 132.173 295.117 132.04C294.517 131.92 294.064 131.713 293.757 131.42C293.45 131.113 293.244 130.793 293.137 130.46C293.044 130.113 292.997 129.813 292.997 129.56C292.997 128.96 293.164 128.433 293.497 127.98C293.844 127.527 294.317 127.173 294.917 126.92C295.517 126.667 296.21 126.54 296.997 126.54C297.81 126.54 298.517 126.673 299.117 126.94C299.717 127.193 300.184 127.547 300.517 128C300.85 128.453 301.017 128.973 301.017 129.56C301.017 129.813 300.964 130.113 300.857 130.46C300.764 130.793 300.564 131.113 300.257 131.42C299.95 131.713 299.497 131.92 298.897 132.04C299.764 132.2 300.444 132.54 300.937 133.06C301.444 133.567 301.697 134.193 301.697 134.94C301.697 135.66 301.484 136.267 301.057 136.76C300.644 137.24 300.084 137.6 299.377 137.84C298.67 138.08 297.877 138.2 296.997 138.2ZM296.997 131.62C297.757 131.62 298.37 131.48 298.837 131.2C299.304 130.92 299.537 130.48 299.537 129.88C299.537 129.227 299.297 128.727 298.817 128.38C298.337 128.02 297.73 127.84 296.997 127.84C296.237 127.84 295.624 128.02 295.157 128.38C294.704 128.74 294.477 129.24 294.477 129.88C294.477 130.493 294.717 130.94 295.197 131.22C295.677 131.487 296.277 131.62 296.997 131.62ZM296.997 136.88C297.944 136.88 298.69 136.673 299.237 136.26C299.784 135.847 300.057 135.313 300.057 134.66C300.057 133.927 299.784 133.38 299.237 133.02C298.69 132.647 297.944 132.46 296.997 132.46C296.064 132.46 295.324 132.647 294.777 133.02C294.23 133.38 293.957 133.927 293.957 134.66C293.957 135.313 294.23 135.847 294.777 136.26C295.324 136.673 296.064 136.88 296.997 136.88Z" fill="white"/>
<path d="M11.364 175.56V177H6.34398V175.56H8.16398V167.92C8.04398 168.373 7.86398 168.727 7.62398 168.98C7.38398 169.22 7.13065 169.4 6.86398 169.52C6.59732 169.627 6.35732 169.693 6.14398 169.72C5.94398 169.733 5.81065 169.74 5.74398 169.74V167.96C5.82398 167.973 5.99065 167.967 6.24398 167.94C6.51065 167.9 6.79732 167.807 7.10398 167.66C7.41065 167.513 7.68398 167.287 7.92398 166.98C8.16398 166.673 8.29065 166.26 8.30398 165.74H9.78398V175.56H11.364ZM17.3343 177.2C16.4943 177.2 15.8076 177.087 15.2743 176.86C14.741 176.62 14.321 176.347 14.0143 176.04C13.721 175.72 13.5143 175.44 13.3943 175.2C13.2743 174.96 13.2143 174.833 13.2143 174.82L14.8343 174.44C14.8343 174.453 14.8743 174.527 14.9543 174.66C15.0343 174.78 15.1676 174.927 15.3543 175.1C15.5543 175.26 15.8143 175.407 16.1343 175.54C16.4543 175.66 16.8543 175.72 17.3343 175.72C18.3743 175.72 19.1476 175.267 19.6543 174.36C20.1743 173.453 20.4076 172.127 20.3543 170.38C20.3276 170.58 20.2343 170.833 20.0743 171.14C19.9276 171.433 19.7143 171.727 19.4343 172.02C19.1543 172.313 18.7943 172.56 18.3543 172.76C17.9276 172.96 17.4276 173.06 16.8543 173.06C15.961 173.06 15.221 172.88 14.6343 172.52C14.061 172.16 13.6343 171.7 13.3543 171.14C13.0876 170.58 12.9676 169.987 12.9943 169.36C13.0343 168.72 13.221 168.12 13.5543 167.56C13.8876 167 14.3743 166.54 15.0143 166.18C15.6543 165.82 16.441 165.64 17.3743 165.64C18.5076 165.64 19.421 165.913 20.1143 166.46C20.8076 166.993 21.301 167.707 21.5943 168.6C21.901 169.493 22.0276 170.467 21.9743 171.52C21.9343 172.573 21.761 173.533 21.4543 174.4C21.1476 175.253 20.661 175.933 19.9943 176.44C19.341 176.947 18.4543 177.2 17.3343 177.2ZM17.1943 172.02C18.061 172.02 18.741 171.76 19.2343 171.24C19.741 170.707 20.041 170.047 20.1343 169.26C19.9476 168.5 19.6076 167.933 19.1143 167.56C18.621 167.187 18.0343 167 17.3543 167C16.6476 167 16.0743 167.167 15.6343 167.5C15.2076 167.833 14.9143 168.253 14.7543 168.76C14.5943 169.253 14.5743 169.753 14.6943 170.26C14.8276 170.753 15.101 171.173 15.5143 171.52C15.9276 171.853 16.4876 172.02 17.1943 172.02Z" fill="#91ADA3"/>
<path d="M53.9484 177V175.62C53.9618 175.607 54.1351 175.5 54.4684 175.3C54.8151 175.1 55.2551 174.827 55.7884 174.48C56.3218 174.12 56.8751 173.72 57.4484 173.28C58.0351 172.827 58.5751 172.347 59.0684 171.84C59.5618 171.333 59.9351 170.833 60.1884 170.34C60.4951 169.7 60.5884 169.133 60.4684 168.64C60.3618 168.133 60.0951 167.74 59.6684 167.46C59.2551 167.167 58.7418 167.02 58.1284 167.02C57.3684 167.033 56.7618 167.28 56.3084 167.76C55.8551 168.24 55.6684 168.96 55.7484 169.92L54.2084 169.72C54.1418 168.867 54.2751 168.14 54.6084 167.54C54.9551 166.927 55.4484 166.46 56.0884 166.14C56.7284 165.807 57.4684 165.64 58.3084 165.64C59.0284 165.64 59.6684 165.773 60.2284 166.04C60.7884 166.293 61.2351 166.653 61.5684 167.12C61.9151 167.573 62.1084 168.093 62.1484 168.68C62.1884 169.267 62.0484 169.887 61.7284 170.54C61.4751 171.033 61.1218 171.52 60.6684 172C60.2284 172.467 59.7418 172.907 59.2084 173.32C58.6751 173.733 58.1551 174.107 57.6484 174.44C57.1551 174.76 56.7218 175.02 56.3484 175.22C55.9884 175.407 55.7618 175.52 55.6684 175.56H62.3684V177H53.9484ZM68.5656 177.28C66.939 177.28 65.739 176.753 64.9656 175.7C64.2056 174.633 63.8256 173.2 63.8256 171.4C63.8256 170.213 63.9856 169.187 64.3056 168.32C64.639 167.44 65.1523 166.76 65.8456 166.28C66.5523 165.787 67.459 165.54 68.5656 165.54C69.6456 165.54 70.5323 165.78 71.2256 166.26C71.9323 166.74 72.4523 167.42 72.7856 168.3C73.1323 169.18 73.3056 170.213 73.3056 171.4C73.3056 172.56 73.1323 173.587 72.7856 174.48C72.4523 175.36 71.9323 176.047 71.2256 176.54C70.5323 177.033 69.6456 177.28 68.5656 177.28ZM68.5456 175.88C69.6523 175.88 70.459 175.493 70.9656 174.72C71.4856 173.947 71.7456 172.84 71.7456 171.4C71.7456 169.973 71.4923 168.873 70.9856 168.1C70.479 167.313 69.6656 166.92 68.5456 166.92C67.4656 166.92 66.6656 167.3 66.1456 168.06C65.639 168.807 65.3856 169.92 65.3856 171.4C65.3856 172.827 65.6323 173.933 66.1256 174.72C66.619 175.493 67.4256 175.88 68.5456 175.88Z" fill="#585858"/>
<path d="M101.206 177V175.62C101.22 175.607 101.393 175.5 101.726 175.3C102.073 175.1 102.513 174.827 103.046 174.48C103.58 174.12 104.133 173.72 104.706 173.28C105.293 172.827 105.833 172.347 106.326 171.84C106.82 171.333 107.193 170.833 107.446 170.34C107.753 169.7 107.846 169.133 107.726 168.64C107.62 168.133 107.353 167.74 106.926 167.46C106.513 167.167 106 167.02 105.386 167.02C104.626 167.033 104.02 167.28 103.566 167.76C103.113 168.24 102.926 168.96 103.006 169.92L101.466 169.72C101.4 168.867 101.533 168.14 101.866 167.54C102.213 166.927 102.706 166.46 103.346 166.14C103.986 165.807 104.726 165.64 105.566 165.64C106.286 165.64 106.926 165.773 107.486 166.04C108.046 166.293 108.493 166.653 108.826 167.12C109.173 167.573 109.366 168.093 109.406 168.68C109.446 169.267 109.306 169.887 108.986 170.54C108.733 171.033 108.38 171.52 107.926 172C107.486 172.467 107 172.907 106.466 173.32C105.933 173.733 105.413 174.107 104.906 174.44C104.413 174.76 103.98 175.02 103.606 175.22C103.246 175.407 103.02 175.52 102.926 175.56H109.626V177H101.206ZM116.803 175.56V177H111.783V175.56H113.603V167.92C113.483 168.373 113.303 168.727 113.063 168.98C112.823 169.22 112.57 169.4 112.303 169.52C112.037 169.627 111.797 169.693 111.583 169.72C111.383 169.733 111.25 169.74 111.183 169.74V167.96C111.263 167.973 111.43 167.967 111.683 167.94C111.95 167.9 112.237 167.807 112.543 167.66C112.85 167.513 113.123 167.287 113.363 166.98C113.603 166.673 113.73 166.26 113.743 165.74H115.223V175.56H116.803Z" fill="#585858"/>
<path d="M148.183 177V175.62C148.196 175.607 148.369 175.5 148.703 175.3C149.049 175.1 149.489 174.827 150.023 174.48C150.556 174.12 151.109 173.72 151.683 173.28C152.269 172.827 152.809 172.347 153.303 171.84C153.796 171.333 154.169 170.833 154.423 170.34C154.729 169.7 154.823 169.133 154.703 168.64C154.596 168.133 154.329 167.74 153.903 167.46C153.489 167.167 152.976 167.02 152.363 167.02C151.603 167.033 150.996 167.28 150.543 167.76C150.089 168.24 149.903 168.96 149.983 169.92L148.443 169.72C148.376 168.867 148.509 168.14 148.843 167.54C149.189 166.927 149.683 166.46 150.323 166.14C150.963 165.807 151.703 165.64 152.543 165.64C153.263 165.64 153.903 165.773 154.463 166.04C155.023 166.293 155.469 166.653 155.803 167.12C156.149 167.573 156.343 168.093 156.383 168.68C156.423 169.267 156.283 169.887 155.963 170.54C155.709 171.033 155.356 171.52 154.903 172C154.463 172.467 153.976 172.907 153.443 173.32C152.909 173.733 152.389 174.107 151.883 174.44C151.389 174.76 150.956 175.02 150.583 175.22C150.223 175.407 149.996 175.52 149.903 175.56H156.603V177H148.183ZM158.3 177V175.62C158.313 175.607 158.487 175.5 158.82 175.3C159.167 175.1 159.607 174.827 160.14 174.48C160.673 174.12 161.227 173.72 161.8 173.28C162.387 172.827 162.927 172.347 163.42 171.84C163.913 171.333 164.287 170.833 164.54 170.34C164.847 169.7 164.94 169.133 164.82 168.64C164.713 168.133 164.447 167.74 164.02 167.46C163.607 167.167 163.093 167.02 162.48 167.02C161.72 167.033 161.113 167.28 160.66 167.76C160.207 168.24 160.02 168.96 160.1 169.92L158.56 169.72C158.493 168.867 158.627 168.14 158.96 167.54C159.307 166.927 159.8 166.46 160.44 166.14C161.08 165.807 161.82 165.64 162.66 165.64C163.38 165.64 164.02 165.773 164.58 166.04C165.14 166.293 165.587 166.653 165.92 167.12C166.267 167.573 166.46 168.093 166.5 168.68C166.54 169.267 166.4 169.887 166.08 170.54C165.827 171.033 165.473 171.52 165.02 172C164.58 172.467 164.093 172.907 163.56 173.32C163.027 173.733 162.507 174.107 162 174.44C161.507 174.76 161.073 175.02 160.7 175.22C160.34 175.407 160.113 175.52 160.02 175.56H166.72V177H158.3Z" fill="#585858"/>
<path d="M194.202 177V175.62C194.216 175.607 194.389 175.5 194.722 175.3C195.069 175.1 195.509 174.827 196.042 174.48C196.576 174.12 197.129 173.72 197.702 173.28C198.289 172.827 198.829 172.347 199.322 171.84C199.816 171.333 200.189 170.833 200.442 170.34C200.749 169.7 200.842 169.133 200.722 168.64C200.616 168.133 200.349 167.74 199.922 167.46C199.509 167.167 198.996 167.02 198.382 167.02C197.622 167.033 197.016 167.28 196.562 167.76C196.109 168.24 195.922 168.96 196.002 169.92L194.462 169.72C194.396 168.867 194.529 168.14 194.862 167.54C195.209 166.927 195.702 166.46 196.342 166.14C196.982 165.807 197.722 165.64 198.562 165.64C199.282 165.64 199.922 165.773 200.482 166.04C201.042 166.293 201.489 166.653 201.822 167.12C202.169 167.573 202.362 168.093 202.402 168.68C202.442 169.267 202.302 169.887 201.982 170.54C201.729 171.033 201.376 171.52 200.922 172C200.482 172.467 199.996 172.907 199.462 173.32C198.929 173.733 198.409 174.107 197.902 174.44C197.409 174.76 196.976 175.02 196.602 175.22C196.242 175.407 196.016 175.52 195.922 175.56H202.622V177H194.202ZM208.7 177.2C207.873 177.2 207.113 177.053 206.42 176.76C205.74 176.453 205.193 176.007 204.78 175.42C204.38 174.82 204.18 174.067 204.18 173.16L205.76 172.96C205.8 173.88 206.106 174.573 206.68 175.04C207.253 175.507 207.933 175.74 208.72 175.74C209.466 175.74 210.093 175.547 210.6 175.16C211.12 174.773 211.38 174.26 211.38 173.62C211.38 173.113 211.246 172.72 210.98 172.44C210.726 172.16 210.42 171.96 210.06 171.84C209.7 171.72 209.366 171.66 209.06 171.66H207.6V170.76H209.1C209.7 170.76 210.193 170.627 210.58 170.36C210.98 170.08 211.18 169.667 211.18 169.12C211.18 168.44 210.94 167.907 210.46 167.52C209.993 167.12 209.373 166.92 208.6 166.92C207.973 166.92 207.46 167.053 207.06 167.32C206.673 167.587 206.386 167.907 206.2 168.28C206.013 168.64 205.913 168.98 205.9 169.3L204.4 169.08C204.413 168.867 204.486 168.567 204.62 168.18C204.753 167.793 204.973 167.4 205.28 167C205.586 166.587 206.006 166.24 206.54 165.96C207.073 165.68 207.746 165.54 208.56 165.54C209.84 165.54 210.846 165.833 211.58 166.42C212.313 166.993 212.68 167.773 212.68 168.76C212.68 169.427 212.5 169.98 212.14 170.42C211.78 170.86 211.273 171.14 210.62 171.26C211.273 171.38 211.82 171.68 212.26 172.16C212.713 172.64 212.94 173.233 212.94 173.94C212.94 174.607 212.753 175.187 212.38 175.68C212.02 176.173 211.52 176.553 210.88 176.82C210.24 177.073 209.513 177.2 208.7 177.2Z" fill="#585858"/>
<path d="M238.134 177V175.62C238.147 175.607 238.321 175.5 238.654 175.3C239.001 175.1 239.441 174.827 239.974 174.48C240.507 174.12 241.061 173.72 241.634 173.28C242.221 172.827 242.761 172.347 243.254 171.84C243.747 171.333 244.121 170.833 244.374 170.34C244.681 169.7 244.774 169.133 244.654 168.64C244.547 168.133 244.281 167.74 243.854 167.46C243.441 167.167 242.927 167.02 242.314 167.02C241.554 167.033 240.947 167.28 240.494 167.76C240.041 168.24 239.854 168.96 239.934 169.92L238.394 169.72C238.327 168.867 238.461 168.14 238.794 167.54C239.141 166.927 239.634 166.46 240.274 166.14C240.914 165.807 241.654 165.64 242.494 165.64C243.214 165.64 243.854 165.773 244.414 166.04C244.974 166.293 245.421 166.653 245.754 167.12C246.101 167.573 246.294 168.093 246.334 168.68C246.374 169.267 246.234 169.887 245.914 170.54C245.661 171.033 245.307 171.52 244.854 172C244.414 172.467 243.927 172.907 243.394 173.32C242.861 173.733 242.341 174.107 241.834 174.44C241.341 174.76 240.907 175.02 240.534 175.22C240.174 175.407 239.947 175.52 239.854 175.56H246.554V177H238.134ZM248.011 174.7V173.26C248.665 172.967 249.265 172.54 249.811 171.98C250.371 171.42 250.851 170.787 251.251 170.08C251.651 169.373 251.958 168.647 252.171 167.9C252.398 167.14 252.511 166.42 252.511 165.74H254.291C254.291 166.647 254.098 167.567 253.711 168.5C253.325 169.433 252.785 170.313 252.091 171.14C251.411 171.967 250.625 172.673 249.731 173.26H253.831V171.38H255.491V173.26H256.971V174.7H255.491V177H253.831V174.7H248.011Z" fill="#585858"/>
<path d="M284.075 177V175.62C284.089 175.607 284.262 175.5 284.595 175.3C284.942 175.1 285.382 174.827 285.915 174.48C286.449 174.12 287.002 173.72 287.575 173.28C288.162 172.827 288.702 172.347 289.195 171.84C289.689 171.333 290.062 170.833 290.315 170.34C290.622 169.7 290.715 169.133 290.595 168.64C290.489 168.133 290.222 167.74 289.795 167.46C289.382 167.167 288.869 167.02 288.255 167.02C287.495 167.033 286.889 167.28 286.435 167.76C285.982 168.24 285.795 168.96 285.875 169.92L284.335 169.72C284.269 168.867 284.402 168.14 284.735 167.54C285.082 166.927 285.575 166.46 286.215 166.14C286.855 165.807 287.595 165.64 288.435 165.64C289.155 165.64 289.795 165.773 290.355 166.04C290.915 166.293 291.362 166.653 291.695 167.12C292.042 167.573 292.235 168.093 292.275 168.68C292.315 169.267 292.175 169.887 291.855 170.54C291.602 171.033 291.249 171.52 290.795 172C290.355 172.467 289.869 172.907 289.335 173.32C288.802 173.733 288.282 174.107 287.775 174.44C287.282 174.76 286.849 175.02 286.475 175.22C286.115 175.407 285.889 175.52 285.795 175.56H292.495V177H284.075ZM298.533 177.2C297.306 177.2 296.333 176.9 295.613 176.3C294.893 175.7 294.439 174.967 294.253 174.1L295.913 173.88C295.926 173.96 295.973 174.1 296.053 174.3C296.133 174.5 296.273 174.72 296.473 174.96C296.673 175.187 296.939 175.38 297.273 175.54C297.619 175.7 298.053 175.78 298.573 175.78C299.146 175.78 299.626 175.667 300.013 175.44C300.413 175.213 300.719 174.913 300.933 174.54C301.146 174.167 301.266 173.78 301.293 173.38C301.333 172.94 301.259 172.52 301.073 172.12C300.886 171.707 300.593 171.367 300.193 171.1C299.793 170.833 299.286 170.7 298.673 170.7C298.086 170.7 297.619 170.8 297.273 171C296.926 171.187 296.673 171.38 296.513 171.58C296.366 171.78 296.293 171.887 296.293 171.9L294.613 171.6L295.193 165.74H302.393V167.18H296.393L295.993 170.98C295.993 170.98 296.046 170.913 296.153 170.78C296.273 170.633 296.453 170.467 296.693 170.28C296.946 170.08 297.266 169.907 297.653 169.76C298.053 169.613 298.539 169.54 299.113 169.54C300.019 169.54 300.759 169.733 301.333 170.12C301.919 170.493 302.339 170.973 302.593 171.56C302.859 172.147 302.973 172.76 302.933 173.4C302.879 174.04 302.673 174.653 302.313 175.24C301.966 175.813 301.473 176.287 300.833 176.66C300.193 177.02 299.426 177.2 298.533 177.2Z" fill="#F38723"/>
</svg>
