<svg width="51" height="44" viewBox="0 0 51 44" fill="none" xmlns="http://www.w3.org/2000/svg">
<path d="M42 8.15385V6.61538C41.9964 5.3924 41.509 4.22052 40.6443 3.35574C39.7795 2.49095 38.6076 2.00355 37.3846 2H6.61538C5.3924 2.00355 4.22052 2.49095 3.35574 3.35574C2.49095 4.22052 2.00355 5.3924 2 6.61538V31.2308C2.00355 32.4538 2.49095 33.6256 3.35574 34.4904C4.22052 35.3552 5.3924 35.8426 6.61538 35.8462H8.15385" stroke="#EA4C89" stroke-width="4" stroke-linejoin="round"/>
<path d="M43.7318 9.69238H14.1145C11.6722 9.69238 9.69238 11.6722 9.69238 14.1145V37.578C9.69238 40.0202 11.6722 42.0001 14.1145 42.0001H43.7318C46.1741 42.0001 48.1539 40.0202 48.1539 37.578V14.1145C48.1539 11.6722 46.1741 9.69238 43.7318 9.69238Z" stroke="#EA4C89" stroke-width="4" stroke-linejoin="round"/>
<path d="M36.319 21.4414C37.953 21.4414 39.2777 20.1262 39.2777 18.5039C39.2777 16.8816 37.953 15.5664 36.319 15.5664C34.685 15.5664 33.3604 16.8816 33.3604 18.5039C33.3604 20.1262 34.685 21.4414 36.319 21.4414Z" stroke="#EA4C89" stroke-width="4" stroke-miterlimit="10"/>
<path d="M33.3607 33.17L24.9808 24.8633C24.4452 24.334 23.7286 24.0277 22.9759 24.0061C22.2231 23.9845 21.4902 24.2493 20.9251 24.747L9.69238 34.6575" stroke="#EA4C89" stroke-width="4" stroke-linecap="round" stroke-linejoin="round"/>
<path d="M25.9648 42L37.3677 30.6798C37.8924 30.1623 38.5903 29.8575 39.3265 29.8243C40.0627 29.7911 40.7851 30.0318 41.3543 30.5L48.1543 36.1259" stroke="#EA4C89" stroke-width="4" stroke-linecap="round" stroke-linejoin="round"/>
</svg>
