<svg width="500" height="35" viewBox="0 0 500 35" fill="none" xmlns="http://www.w3.org/2000/svg">
<path d="M75 28.0151L450.5 28.0151C426.333 28.0151 367.7 24.1151 326.5 8.51513C275 -10.9849 185 8.01511 157.5 16.0151C135.5 22.4151 93.3333 26.6818 75 28.0151Z" fill="white" fill-opacity="0.5"/>
<path d="M409.5 7.32745C455.5 0.719078 489 20.6713 500 31.4735L0 34.0151C12.6667 25.9664 50.5 9.8691 100.5 9.86911C163 9.86911 229.5 31.4734 263 31.4734C296.5 31.4734 352 15.5879 409.5 7.32745Z" fill="white" fill-opacity="0.6"/>
<path d="M279.929 27.9959L280 28.0151L28 28.0151C68.5 28.0151 121.5 13.0151 160.5 9.51513C199.473 6.01754 245.77 18.6644 279.929 27.9959Z" fill="white" fill-opacity="0.8"/>
</svg>
