<svg width="500" height="29" viewBox="0 0 500 29" fill="none" xmlns="http://www.w3.org/2000/svg">
<path d="M425 0H49.5C73.6667 0 132.3 3.9 173.5 19.5C225 39 315 20 342.5 12C364.5 5.6 406.667 1.33333 425 0Z" fill="white" fill-opacity="0.5"/>
<path d="M90.5 26.6877C44.5 33.2961 11 13.3438 0 2.54168L500 0C487.333 8.04867 449.5 24.146 399.5 24.146C337 24.146 270.5 2.54168 237 2.54168C203.5 2.54168 148 18.4272 90.5 26.6877Z" fill="white" fill-opacity="0.6"/>
<path d="M220.071 6.01928L220 6H472C431.5 6 378.5 21 339.5 24.5C300.527 27.9976 254.23 15.3508 220.071 6.01928Z" fill="white" fill-opacity="0.8"/>
</svg>
