<svg width="28" height="28" viewBox="0 0 28 28" fill="none" xmlns="http://www.w3.org/2000/svg">
<path d="M24.99 16.1933C25.9234 15.8433 26.6234 14.98 26.4834 13.93C26.18 11.69 23.9634 11.5267 21.9334 11.83C22.2367 11.69 22.5167 11.55 22.82 11.3867C23.9867 10.78 25.34 9.51999 24.7334 8.04999C24.15 6.64999 22.4234 6.76666 21.28 7.32666C20.65 7.62999 20.0667 8.02666 19.5067 8.44666C21.0467 6.46332 22.12 4.22332 20.2067 3.28999C18.9467 2.65999 17.64 3.54666 16.94 4.57332C16.3334 5.48332 15.8667 6.55666 15.54 7.67666C15.68 6.50999 15.75 5.34332 15.75 4.17666C15.75 2.93999 15.5167 1.02666 13.86 1.11999C12.2967 1.21332 11.7834 3.07999 11.7134 4.36332C11.69 4.94666 11.7134 5.52999 11.76 6.11332C11.3634 5.01666 10.71 3.87332 9.77668 3.31332C8.82002 2.77666 7.58335 2.91666 7.09335 3.96666C6.44002 5.29666 7.42002 6.74332 8.12002 7.86332C7.39668 6.99999 6.55668 6.22999 5.43668 6.11332C4.34002 5.99666 3.22002 6.62666 3.08002 7.76999C2.89335 9.21666 4.03668 10.29 5.22668 10.85C5.55335 11.0133 5.88002 11.1533 6.23002 11.2933C4.01335 10.8733 1.14335 10.9667 1.09668 13.6267C1.07335 14.8167 1.75002 15.8433 2.91668 16.1933C4.10668 16.5433 5.32002 16.17 6.48668 15.8433C6.23002 15.96 5.99668 16.0767 5.76335 16.1933C4.34002 16.8933 2.94002 17.4533 2.80002 19.1567C2.68335 20.4633 3.19668 21.3733 4.57335 21.49C5.46002 21.56 6.27668 21.3267 6.95335 20.86C6.23002 21.98 5.57668 23.4267 6.41668 24.64C7.21002 25.76 8.79668 25.55 9.70668 24.7333C10.7567 23.8233 11.3167 22.26 11.7367 20.8133C11.6434 21.5133 11.62 22.2133 11.62 22.89C11.62 24.43 11.7134 26.7867 13.72 26.9733C15.4 27.1367 16.0067 25.5267 16.0067 24.15C16.0067 23.38 15.9367 22.6333 15.8667 21.8633C16.0767 22.3533 16.2867 22.8433 16.52 23.31C17.1734 24.64 18.69 26.5767 20.3934 25.4567C21.98 24.4067 21.3034 22.2133 20.58 20.86C20.4867 20.6967 20.3934 20.51 20.3 20.3467C20.79 20.72 21.3267 21.0467 21.8633 21.28C23.1933 21.8167 24.99 21.4667 25.2934 19.8567C25.5734 18.3167 24.3834 17.08 23.1234 16.45C23.0767 16.4267 23.03 16.4033 22.9834 16.38C23.66 16.4733 24.36 16.4267 24.99 16.1933ZM24.3367 7.97999C25.4334 9.75332 22.89 11.06 21.63 11.62C20.1367 12.2733 18.55 12.6933 16.9167 12.7167C16.8934 12.7167 16.8934 12.7167 16.87 12.7167C16.8234 12.5767 16.7767 12.46 16.7067 12.3433C17.0334 12.32 17.4767 11.9933 17.71 11.8767C18.48 11.5033 19.2734 11.1533 20.0434 10.7333C20.16 10.6633 20.0667 10.5 19.95 10.5467C19.39 10.78 18.8534 11.0367 18.2934 11.3167C18.06 11.4333 17.8267 11.55 17.5934 11.6433C17.5234 11.69 16.8934 12.0167 16.6834 12.1567C16.6834 12.1567 16.6834 12.1567 16.6834 12.1333V12.11C16.66 12.0633 16.6367 12.0633 16.59 12.0633C16.5667 12.0633 16.5667 12.0633 16.5434 12.0633C16.4734 11.97 16.4034 11.8767 16.31 11.7833C16.3334 11.76 16.3567 11.76 16.38 11.7367C16.4034 11.76 16.4267 11.7833 16.45 11.76C17.4767 10.8267 18.41 9.77666 19.4834 8.91332C20.58 8.02666 23.1934 6.13666 24.3367 7.97999ZM16.38 14.6533C16.03 15.47 15.4 16.1467 14.56 16.3567C14.14 16.45 13.65 16.45 13.2067 16.3567C13.2067 16.3333 13.16 16.3333 13.16 16.3333C12.2267 16.1233 11.3867 15.5167 11.1534 14.6067C10.71 12.81 12.0167 11.2467 13.79 11.13C14.98 11.1533 16.4734 11.7133 16.6367 13.0433C16.6834 13.51 16.6367 14.0233 16.45 14.49C16.38 14.5133 16.3567 14.5833 16.38 14.6533ZM19.88 3.47666C22.0734 4.19999 20.0667 7.06999 19.2967 8.14332C18.3867 9.42666 17.29 10.57 16.1 11.5967C15.9834 11.5033 15.8434 11.41 15.7034 11.34C16.2634 10.3367 16.87 9.35666 17.57 8.44666C17.64 8.37666 17.5234 8.25999 17.4534 8.32999C16.6834 9.21666 16.03 10.1967 15.5634 11.2467C15.5634 11.2467 15.5634 11.2467 15.5634 11.27C15.3767 11.1767 15.19 11.1067 15.0034 11.0367C15.0034 11.0133 15.0267 10.9667 15.0267 10.9433C15.54 8.91332 16.6367 2.40332 19.88 3.47666ZM13.6267 1.44666C15.96 0.90999 15.4934 4.64332 15.4234 5.87999C15.33 7.60666 15.0967 9.28666 14.77 10.99C14.49 10.92 14.21 10.8967 13.93 10.8967C14 9.93999 13.93 8.95999 13.6734 8.04999C13.65 7.93332 13.4867 7.97999 13.51 8.09666C13.6967 9.02999 13.79 9.93999 13.79 10.8967C13.6734 10.8967 13.5567 10.8967 13.44 10.92C13.3934 10.92 13.37 10.9433 13.3467 10.9667C13.23 10.9667 13.1134 10.9667 12.9967 10.99C12.67 9.47332 12.3434 7.95666 12.1334 6.41666C11.9467 4.96999 11.6434 1.88999 13.6267 1.44666ZM7.60668 6.36999C7.30335 5.73999 7.07002 4.99332 7.30335 4.29332C7.74668 3.00999 9.26335 3.17332 10.08 3.91999C11.0134 4.78332 11.4334 6.13666 11.9 7.27999C11.9 7.30332 11.9234 7.30332 11.9234 7.32666C12.1334 8.58666 12.46 9.86999 12.8334 11.0133C12.6234 11.06 12.4367 11.13 12.25 11.2467C11.76 10.29 11.2234 9.35666 10.71 8.42332C10.6634 8.32999 10.5234 8.42332 10.57 8.49332C11.0367 9.47332 11.5267 10.43 12.1334 11.3167C11.9 11.4567 11.7134 11.6433 11.5267 11.8533C9.98668 10.2433 8.56335 8.39999 7.60668 6.36999ZM3.89668 9.49666C3.36002 8.77332 3.10335 7.69999 3.80335 6.95332C4.41002 6.29999 5.41335 6.32332 6.16002 6.64999C7.39668 7.16332 8.14335 8.35332 9.05335 9.30999C9.73002 10.3133 10.5 11.27 11.4567 11.9933C11.3634 12.11 11.2934 12.2267 11.2234 12.3433C10.4067 11.8767 9.61335 11.3867 8.86668 10.8033C8.79668 10.7333 8.68002 10.85 8.75002 10.92C9.45002 11.55 10.2667 12.11 11.1534 12.4833C11.1067 12.5767 11.06 12.6933 11.0134 12.7867C9.91669 12.2967 8.77335 11.9233 7.65335 11.5033C6.37002 11.0133 4.76002 10.64 3.89668 9.49666ZM1.40002 13.8133C1.30668 10.4533 5.76335 11.5267 7.72335 11.97C7.74668 11.97 7.77002 11.97 7.79335 11.97C8.84335 12.3667 9.91669 12.7167 10.9434 12.9967C10.8734 13.23 10.8267 13.4633 10.8034 13.72C9.75335 13.6033 8.58668 13.58 7.56002 13.6733C7.53668 13.6733 7.51335 13.7433 7.56002 13.7433C8.58668 13.8833 9.77668 13.93 10.8034 13.8833C10.8034 13.9533 10.8034 14.0233 10.8034 14.0933C10.8034 14.2333 10.8267 14.35 10.85 14.49C9.66002 14.6067 8.47002 15.0267 7.32668 15.5167C5.27335 15.68 1.49335 17.1033 1.40002 13.8133ZM4.55002 21.1867C3.52335 21.0933 3.01002 20.2533 3.08002 19.2967C3.15002 18.34 3.54668 17.78 4.34002 17.29C5.43668 16.6367 6.60335 16.0767 7.81668 15.61C8.82002 15.2133 9.87002 14.98 10.8734 14.56C10.92 14.7233 10.9667 14.8633 11.0367 15.0267C10.1034 15.4 9.26335 15.9833 8.54002 16.6833C8.47002 16.7533 8.56335 16.8467 8.63335 16.7767C9.40335 16.1233 10.22 15.61 11.1067 15.1433C11.1767 15.2833 11.27 15.4233 11.3634 15.54C9.87002 16.8933 8.61002 18.48 7.46668 20.1367C6.65002 20.8833 5.60002 21.28 4.55002 21.1867ZM10.29 23.52C9.84668 24.2667 9.21668 24.92 8.33002 25.0833C7.16335 25.2933 6.30002 24.4067 6.30002 23.2867C6.30002 22.2133 7.00002 21.14 7.70002 20.23C7.81668 20.09 7.93335 19.95 8.05002 19.81C8.07335 19.7867 8.07335 19.7633 8.07335 19.74C8.19002 19.5767 8.30668 19.4367 8.42335 19.2967C9.35668 18.0367 10.4067 16.87 11.48 15.7267C11.6667 15.9133 11.8534 16.0767 12.0867 16.2167C11.5267 17.1033 11.0134 18.0367 10.4767 18.9467C10.4067 19.0633 10.5934 19.1567 10.64 19.04C11.1534 18.1067 11.7134 17.1967 12.2034 16.2633C12.46 16.4033 12.74 16.52 13.0434 16.59C12.6234 17.36 12.32 18.2 12.11 19.0867C12.11 19.0867 12.0867 19.11 12.0867 19.1333C11.5034 20.58 11.06 22.1667 10.29 23.52ZM15.68 24.6633C15.61 25.9233 14.6534 27.1133 13.2534 26.53C11.5734 25.83 11.8767 22.96 11.9934 21.49C12.1334 19.81 12.6234 18.2467 13.1367 16.6367C13.3467 16.6833 13.5567 16.7067 13.7667 16.7067C13.6034 17.5233 13.51 18.3633 13.3934 19.2033C13.37 19.32 13.6034 19.3667 13.6034 19.2267C13.72 18.3867 13.86 17.5467 13.9067 16.7067C13.9534 16.7067 14.0234 16.7067 14.07 16.7067C14.1867 16.7067 14.3267 16.6833 14.4434 16.66C14.49 16.7767 14.5134 16.9167 14.5367 17.0333C14.6767 18.1767 14.9334 19.2967 15.26 20.37C15.3534 20.93 15.4234 21.5133 15.4934 22.0733C15.6334 22.9367 15.7267 23.8233 15.68 24.6633ZM20.51 24.99C19.3667 26.2267 17.85 25.1067 17.15 24.0567C16.66 23.31 16.31 22.4467 15.9834 21.63C15.8667 21.35 15.7734 21.07 15.68 20.79C15.4934 19.3667 15.1667 17.9667 14.7467 16.6133C14.98 16.5433 15.19 16.45 15.4 16.3333C15.7034 17.36 16.2167 18.3867 16.6134 19.3667C16.66 19.46 16.8234 19.4367 16.7767 19.32C16.4034 18.3167 16.03 17.1967 15.47 16.2867C15.61 16.1933 15.75 16.1 15.8667 15.9833C16.59 16.6367 17.3134 17.29 17.99 17.99C18.41 18.5733 18.8767 19.1567 19.4134 19.67C20.4167 21 21.9334 23.45 20.51 24.99ZM24.8034 18.55C25.2234 19.6233 24.92 20.8833 23.6367 21.21C22.7267 21.4433 21.7934 21.07 21.0467 20.58C20.58 20.2767 20.1367 19.9267 19.7167 19.5533C18.69 18.13 17.3834 16.94 16.0767 15.7733C16.1934 15.6567 16.2867 15.5167 16.38 15.3767C17.1734 15.9133 17.92 16.52 18.5734 17.22C18.6434 17.29 18.7134 17.1967 18.6667 17.1267C18.0367 16.4033 17.2667 15.75 16.4267 15.3067C16.52 15.1433 16.6134 14.98 16.6834 14.7933C18.1534 15.0967 19.6234 15.47 21.0467 15.9833C22.4467 16.45 24.1967 17.0333 24.8034 18.55ZM21.8167 15.8667C20.2067 15.2367 18.4567 14.8167 16.7767 14.49C16.8467 14.2333 16.9167 13.9767 16.94 13.72C18.0834 13.93 19.2267 14.0933 20.37 14.2333C20.4634 14.2333 20.4867 14.07 20.3934 14.07C19.25 13.8833 18.1067 13.72 16.9634 13.6033C16.9634 13.51 16.9634 13.4167 16.9634 13.3C16.9634 13.2067 16.9634 13.09 16.94 12.9967C18.1534 12.9967 19.32 12.7633 20.4634 12.39C22.3533 11.97 24.8967 11.34 25.9467 13.2767C26.7634 14.77 25.3633 15.9833 23.94 16.0767C23.24 16.1233 22.5167 16.03 21.8167 15.8667Z" fill="#CBD5E1"/>
<path d="M13.9533 27.1133C13.86 27.1133 13.79 27.1133 13.6967 27.0899C11.5267 26.8799 11.5033 24.1733 11.5033 22.8899C11.5033 22.5399 11.5033 22.2133 11.5267 21.8633C11.13 23.0299 10.6167 24.1033 9.77668 24.8266C9.19334 25.3399 8.37668 25.5966 7.65334 25.5033C7.09334 25.4333 6.60334 25.1533 6.30001 24.7099C5.48334 23.5433 5.99668 22.2133 6.58001 21.2099C5.95001 21.5366 5.25001 21.6766 4.52668 21.6299C3.89668 21.5833 3.40668 21.3499 3.08001 20.9766C2.73001 20.5566 2.56668 19.9499 2.63668 19.1566C2.77668 17.5233 4.01334 16.8933 5.32001 16.2633C4.50334 16.4499 3.66334 16.5433 2.84668 16.2866C1.68001 15.9366 0.933344 14.8866 0.956678 13.6266C0.980011 12.8099 1.26001 12.1566 1.79668 11.7133C2.73001 10.9666 4.22334 10.9433 5.39001 11.0599C5.32001 11.0133 5.22668 10.9899 5.15668 10.9433C4.57334 10.6633 2.70668 9.61327 2.94001 7.72327C3.10334 6.43993 4.34001 5.8566 5.43668 5.97327C6.25334 6.0666 6.90668 6.46327 7.44334 6.95327C6.90668 5.9966 6.48668 4.92327 6.97668 3.87327C7.21001 3.4066 7.58334 3.07993 8.05001 2.93993C8.61001 2.7766 9.26334 2.8466 9.82334 3.17327C10.6633 3.66327 11.2467 4.57327 11.5733 5.34327C11.55 4.99327 11.55 4.64327 11.5733 4.29327C11.6433 2.72993 12.2733 1.0266 13.8133 0.956602C14.3033 0.933268 14.7233 1.07327 15.0267 1.3766C15.68 2.0066 15.82 3.21993 15.82 4.12993C15.82 4.96993 15.7733 5.80993 15.7033 6.64993C16.03 5.80993 16.38 5.0866 16.8 4.4566C17.5233 3.35993 18.9 2.47327 20.2067 3.1266C20.7667 3.4066 21.1167 3.8266 21.2567 4.36327C21.4433 5.2266 21.0467 6.4166 20.02 7.86327C20.4167 7.6066 20.8133 7.37327 21.21 7.16327C21.8867 6.8366 22.9133 6.60327 23.7533 6.92993C24.2433 7.1166 24.6167 7.4666 24.8033 7.9566C25.41 9.4266 24.1267 10.7566 22.8433 11.4333C22.75 11.4799 22.68 11.5266 22.5867 11.5733C23.94 11.4566 24.9667 11.6433 25.6433 12.1566C26.1567 12.5533 26.46 13.1133 26.5767 13.8599C26.7167 14.8633 26.0867 15.8433 25.0133 16.2399C24.5467 16.4033 24.0333 16.4966 23.4733 16.4733C24.6167 17.1733 25.6433 18.3633 25.3633 19.8099C25.2467 20.4633 24.8967 20.9533 24.3367 21.2566C23.6133 21.6533 22.6333 21.6766 21.7933 21.3266C21.42 21.1633 21.0233 20.9533 20.65 20.6966C20.65 20.7199 20.6733 20.7199 20.6733 20.7433C21.0933 21.5366 22.3533 24.2433 20.44 25.5033C19.9267 25.8533 19.39 25.9466 18.8533 25.8066C17.5467 25.4566 16.6367 23.8233 16.4033 23.3333C16.2867 23.0766 16.17 22.8199 16.0533 22.5633C16.1 23.0999 16.1233 23.6133 16.1233 24.1033C16.1467 25.1299 15.82 26.0633 15.26 26.5766C14.8867 26.9499 14.4667 27.1133 13.9533 27.1133ZM11.62 20.7899L11.8533 20.8366C11.7833 21.5133 11.7367 22.1899 11.7367 22.8899C11.7367 24.8499 11.9933 26.6933 13.72 26.8799C14.2567 26.9266 14.7233 26.7866 15.0733 26.4599C15.5867 25.9933 15.89 25.1299 15.8667 24.1733C15.8667 23.4499 15.7967 22.7033 15.7267 21.9099L15.6333 21.0699L15.9367 21.8399C16.1467 22.3299 16.3567 22.8199 16.59 23.2866C16.7067 23.5199 16.8467 23.7766 17.01 24.0333C16.5433 23.2866 16.1933 22.4466 15.89 21.6533C15.7967 21.3966 15.7033 21.1399 15.5867 20.8133C15.3767 19.4133 15.05 18.0133 14.63 16.6366L14.6067 16.5199L14.7233 16.4966C14.9333 16.4499 15.12 16.3566 15.33 16.2399L15.4233 16.1699C15.5633 16.0766 15.7033 15.9833 15.7967 15.8666L15.8667 15.7966L15.9367 15.8666C16.7533 16.5899 17.43 17.2199 18.06 17.8733C18.5033 18.5033 18.97 19.0399 19.4833 19.5533C20.2533 20.5799 20.7433 21.5133 21 22.3299C20.8367 21.7233 20.5567 21.1866 20.4167 20.9066C20.3467 20.7666 20.2533 20.6033 20.1367 20.4166L19.8333 19.9033L20.3233 20.2766C20.8367 20.6733 21.35 20.9766 21.8633 21.1866C22.6567 21.5133 23.5667 21.4899 24.22 21.1399C24.71 20.8599 25.0367 20.4166 25.13 19.8566C25.41 18.3633 24.22 17.1733 23.03 16.5666C23.0067 16.5433 22.9833 16.5433 22.96 16.5199L22.2833 16.1933L22.96 16.2633C23.73 16.3566 24.3833 16.2866 24.9433 16.0766C25.76 15.7733 26.5067 14.9799 26.3667 13.9299C26.2733 13.2533 25.9933 12.7399 25.5267 12.3899C24.8033 11.8533 23.59 11.6899 21.9567 11.9233L21.14 12.0399L21.8867 11.6899C22.19 11.5499 22.4933 11.4099 22.7733 11.2699C23.9867 10.6399 25.1767 9.40327 24.64 8.07327C24.4533 7.62993 24.15 7.3266 23.7067 7.16327C23.0533 6.92993 22.1433 6.99993 21.35 7.3966C20.7667 7.6766 20.1833 8.04993 19.5767 8.5166L18.83 9.09993L19.4133 8.35327C20.6967 6.6966 21.28 5.34327 21.07 4.43327C20.9767 3.9666 20.65 3.6166 20.16 3.35993C19.67 3.10327 19.1567 3.1266 18.69 3.2666C19.0867 3.17327 19.4833 3.1966 19.9033 3.3366C20.4167 3.49993 20.7667 3.80327 20.9067 4.2466C21.2567 5.34327 20.2767 6.92993 19.39 8.18993C18.5033 9.4266 17.4533 10.5699 16.17 11.6666L16.1 11.7599L16.03 11.6899C15.9133 11.5966 15.7967 11.5266 15.6567 11.4333L15.54 11.3633C15.3767 11.2699 15.19 11.1999 15.0033 11.1533L14.91 11.1299L14.9567 10.9199C15.0267 10.6866 15.0733 10.4066 15.1667 10.1033C15.47 8.81993 15.89 6.99993 16.59 5.55327C16.2633 6.18327 15.9833 6.9066 15.7267 7.72327L15.4933 7.6766C15.6333 6.50993 15.7033 5.34327 15.7033 4.19993C15.7033 3.3366 15.5867 2.16993 15.0033 1.60993C14.7233 1.35327 14.3733 1.2366 13.9533 1.25993C13.4633 1.28327 13.0667 1.5166 12.7867 1.81993C13.02 1.5866 13.3233 1.4466 13.65 1.35327C14.1867 1.2366 14.6067 1.3066 14.9333 1.5866C15.7733 2.33327 15.6333 4.43327 15.5633 5.55327C15.5633 5.66993 15.54 5.7866 15.54 5.87993C15.4467 7.44327 15.2367 9.12327 14.8867 11.0133L14.8633 11.1299L14.7467 11.1066C14.49 11.0366 14.21 11.0133 13.93 11.0133H13.8133C13.6967 11.0133 13.58 11.0133 13.4867 11.0366L13.4633 11.0599C13.58 11.0366 13.6733 11.0366 13.79 11.0133C15.1433 11.0599 16.59 11.6899 16.7533 13.0199C16.8233 13.4866 16.7533 14.0233 16.5667 14.5133L16.5433 14.5599L16.4967 14.5833C16.4733 14.5833 16.4733 14.6066 16.4733 14.6066L16.4967 14.6533V14.6999C16.1233 15.6099 15.4 16.2633 14.6067 16.4733C14.1633 16.5899 13.6733 16.5899 13.2067 16.4733L13.16 16.4499C12.0867 16.2166 11.2933 15.5166 11.06 14.6299C10.85 13.7666 11.0133 12.9266 11.5033 12.2266C11.9467 11.6199 12.6 11.2233 13.3467 11.0599C13.2533 11.0599 13.16 11.0599 13.0667 11.0833L12.9033 11.1066C12.7167 11.1533 12.53 11.2233 12.3667 11.3166L12.25 11.3866C12.04 11.5266 11.8533 11.6899 11.6667 11.8999L11.5733 12.0166C11.5033 12.1099 11.4333 12.2266 11.3633 12.3666L11.2933 12.4833C11.2467 12.5999 11.2 12.6933 11.1533 12.7866L11.1067 12.9033L11.0833 12.9966C11.0133 13.2066 10.9667 13.4399 10.9433 13.6966V13.8366C10.9433 13.9066 10.9433 13.9766 10.9433 14.0466C10.9433 14.1633 10.9667 14.2799 10.99 14.4199L11.0133 14.5599C11.0367 14.6999 11.0833 14.8399 11.1533 15.0033L11.2233 15.1433C11.2933 15.2833 11.3633 15.3999 11.4567 15.5166L11.5733 15.6566C11.7367 15.8199 11.9233 15.9833 12.1567 16.1233L12.25 16.1933C12.5067 16.3333 12.7633 16.4266 13.0433 16.4966L13.1833 16.5199C13.37 16.5666 13.58 16.5899 13.8133 16.5899H13.9767C14.0467 16.5899 14.0933 16.5899 14.14 16.5899C14.2567 16.5899 14.3733 16.5666 14.49 16.5433L14.5833 16.5199L14.6067 16.6133C14.63 16.7066 14.6533 16.7999 14.6767 16.8933L14.7 17.0333C14.84 18.1533 15.0733 19.2733 15.4233 20.3699C15.5167 20.9999 15.61 21.5599 15.6567 22.0966L15.68 22.2833C15.75 23.0766 15.8433 23.8699 15.7967 24.6633C15.75 25.4799 15.3533 26.2033 14.7933 26.5533C14.3267 26.8333 13.79 26.8799 13.2067 26.6233C11.5033 25.8999 11.7367 23.0766 11.8767 21.5599V21.4666C12.0167 19.9733 12.4133 18.5266 12.8333 17.2199C12.5767 17.8033 12.3433 18.4333 12.18 19.1099V19.1333L12.1333 19.1799C12.0167 19.5066 11.9 19.8566 11.7833 20.1833C11.3867 21.3266 10.99 22.5399 10.3833 23.5666C9.84668 24.4766 9.14668 25.0366 8.35334 25.1999C7.79334 25.2933 7.28001 25.1766 6.86001 24.8499C6.41668 24.4999 6.18334 23.9166 6.18334 23.3099C6.18334 22.2133 6.86001 21.1399 7.60668 20.1833C7.74668 20.0433 7.86334 19.9033 7.95668 19.7633V19.7166L7.98001 19.6933C8.09668 19.5299 8.21334 19.3899 8.33001 19.2499C9.26334 18.0133 10.2667 16.8933 11.0833 16.0066C9.91668 17.1033 8.82001 18.4333 7.53668 20.2533L7.51334 20.2766C6.69668 21.0233 5.60001 21.4199 4.55001 21.3499C3.54668 21.2799 2.89334 20.4399 2.96334 19.3433C3.03334 18.3866 3.43001 17.7566 4.29334 17.2433C5.36668 16.5666 6.53334 16.0066 7.77001 15.5166C8.23668 15.3299 8.72668 15.1899 9.19334 15.0266C9.63668 14.8866 10.08 14.7466 10.5233 14.5833C9.61334 14.6999 8.58668 15.0266 7.35001 15.5633H7.30334C6.93001 15.5866 6.51001 15.6799 6.04334 15.7499C4.59668 16.0066 2.94001 16.3099 2.00668 15.5399C1.54001 15.1666 1.30668 14.5833 1.28334 13.7666C1.26001 12.9499 1.49334 12.3199 2.00668 11.8999C3.33668 10.8033 6.11334 11.4333 7.60668 11.7599L7.72334 11.7833L7.77001 11.7599L7.81668 11.7833C8.82001 12.1566 9.84668 12.4833 10.8733 12.7866C10.1033 12.4366 9.28668 12.1566 8.51668 11.8766C8.21334 11.7599 7.91001 11.6666 7.60668 11.5499C7.39668 11.4799 7.18668 11.3866 6.95334 11.3166C5.83334 10.9899 4.55001 10.5466 3.80334 9.5666C3.24334 8.81993 2.96334 7.65327 3.71001 6.88327C4.41001 6.15993 5.48334 6.25327 6.20668 6.5566C7.16334 6.95327 7.84001 7.7466 8.47001 8.49327C8.68001 8.74993 8.89001 9.0066 9.12334 9.23993C9.77668 10.2199 10.4067 10.9433 11.0367 11.5266C9.49668 9.8466 8.28334 8.11993 7.49001 6.43993C7.21001 5.83327 6.90668 5.03993 7.18668 4.29327C7.42001 3.63993 7.86334 3.4066 8.21334 3.31327C8.84334 3.14993 9.61334 3.38327 10.15 3.87327C10.9667 4.61993 11.3867 5.69327 11.7833 6.74327C11.8533 6.92993 11.9233 7.09327 11.9933 7.27993L12.0167 7.30327V7.34993C12.1567 8.2366 12.39 9.2166 12.6933 10.2899C12.6933 10.2666 12.67 10.2199 12.67 10.1966C12.4133 8.98327 12.1567 7.72327 11.97 6.4866C11.8067 5.34327 11.7833 4.3866 11.9 3.6166C11.83 3.9666 11.8067 4.26993 11.8067 4.40993C11.7833 4.9466 11.8067 5.52993 11.8533 6.15993L11.9467 7.09327L11.6667 6.15993C11.41 5.41327 10.8033 4.05993 9.73001 3.42993C9.21668 3.14993 8.63334 3.0566 8.14334 3.21993C7.72334 3.35993 7.39668 3.63993 7.21001 4.0366C6.62668 5.24993 7.46668 6.57993 8.12001 7.65327L8.21334 7.8166L8.02668 7.93327C7.42001 7.20993 6.58001 6.3466 5.41334 6.22994C4.43334 6.1366 3.33668 6.64994 3.17334 7.79327C2.94001 9.51993 4.71334 10.4999 5.25001 10.7566C5.53001 10.8966 5.85668 11.0366 6.25334 11.1999L7.21001 11.6199L6.20668 11.4333C5.08668 11.2233 3.05668 11.0133 1.96001 11.8999C1.47001 12.2966 1.21334 12.8799 1.21334 13.6499C1.19001 14.8166 1.86668 15.7733 2.94001 16.0999C4.06001 16.4266 5.25001 16.0999 6.39334 15.7733L6.46334 15.7499L6.55668 15.9599C6.30001 16.0766 6.06668 16.1933 5.83334 16.3099L5.53001 16.4499C4.20001 17.1033 3.05668 17.6399 2.91668 19.1799C2.84668 19.9033 2.98668 20.4399 3.29001 20.8133C3.57001 21.1399 4.01334 21.3266 4.57334 21.3733C5.39001 21.4433 6.18334 21.2333 6.88334 20.7666L7.35001 20.4633L7.04668 20.9299C6.41668 21.9099 5.67001 23.3566 6.51001 24.5699C6.79001 24.9666 7.21001 25.2233 7.70001 25.2699C8.35334 25.3399 9.10001 25.1066 9.63668 24.6399C10.6633 23.7766 11.2 22.2833 11.62 20.7899ZM13.2067 16.7766C12.7633 18.1999 12.25 19.8333 12.11 21.4899V21.5833C11.97 23.0533 11.7367 25.7599 13.3 26.4133C13.79 26.6233 14.28 26.5999 14.6767 26.3433C15.19 26.0166 15.5167 25.3633 15.5633 24.6399C15.61 23.8699 15.54 23.0766 15.4467 22.3066L15.4233 22.1199C15.3767 21.5833 15.2833 21.0233 15.19 20.4166C14.84 19.3199 14.5833 18.1766 14.4667 17.0566L14.4433 16.9633C14.42 16.9166 14.42 16.8466 14.3967 16.7999C14.3033 16.8233 14.21 16.8233 14.1167 16.8233C14.0933 16.8233 14.07 16.8233 14.0467 16.8233C14 17.5699 13.8833 18.3399 13.7667 19.0633L13.7433 19.2499C13.72 19.3666 13.6267 19.4366 13.4867 19.4366C13.37 19.4133 13.2767 19.3199 13.3 19.2033L13.3233 19.0166C13.4167 18.2933 13.4867 17.5466 13.65 16.8233C13.4867 16.7999 13.3467 16.7999 13.2067 16.7766ZM17.43 24.5699C17.85 25.0833 18.3633 25.5033 18.9 25.6433C19.3667 25.7599 19.8567 25.6899 20.3 25.3866C21.0467 24.8966 21.2567 24.1499 21.21 23.4033C21.2333 24.0566 21.0233 24.6166 20.6033 25.0599C20.2067 25.4799 19.7633 25.6899 19.2267 25.6433C18.5267 25.5733 17.8733 25.0833 17.43 24.5699ZM14.91 16.6833C15.3067 18.0133 15.6333 19.3899 15.82 20.7666C15.9367 21.0699 16.03 21.3266 16.1233 21.5833C16.45 22.3999 16.8 23.2633 17.2667 23.9866C17.6867 24.6399 18.48 25.3399 19.25 25.4099C19.6933 25.4566 20.09 25.2699 20.4167 24.9199C21.42 23.8233 21.0467 22.0966 19.32 19.7399C18.8067 19.2499 18.3167 18.6899 17.8967 18.0599C17.29 17.4299 16.6367 16.8466 15.8667 16.1466C15.7967 16.2166 15.7033 16.2633 15.6333 16.3333C16.0767 17.1033 16.4033 17.9899 16.73 18.8533C16.7767 18.9933 16.8467 19.1566 16.8933 19.2966C16.94 19.3899 16.8933 19.5066 16.7767 19.5533C16.6833 19.5999 16.5433 19.5533 16.4967 19.4366C16.38 19.1566 16.2633 18.8999 16.1467 18.6199C15.8433 17.9433 15.54 17.2433 15.3067 16.5199C15.19 16.5666 15.05 16.6366 14.91 16.6833ZM8.16668 19.7866C8.16668 19.8099 8.14334 19.8333 8.12001 19.8566C8.00334 19.9966 7.88668 20.1599 7.74668 20.2999C7.04668 21.2333 6.39334 22.2599 6.39334 23.2866C6.39334 23.8466 6.60334 24.3366 7.00001 24.6633C7.35001 24.9433 7.81668 25.0599 8.28334 24.9666C9.21668 24.8033 9.80001 24.0566 10.15 23.4499C10.7333 22.4233 11.1533 21.2333 11.5267 20.0899C11.6433 19.7399 11.76 19.3899 11.8767 19.0633C11.8767 19.0399 11.9 19.0166 11.9 19.0166C12.11 18.1533 12.4133 17.3599 12.7867 16.6599C12.5767 16.5899 12.3667 16.5199 12.18 16.4266C11.8533 17.0799 11.48 17.7099 11.1067 18.3399C10.9667 18.5966 10.8033 18.8533 10.6633 19.1099C10.6167 19.1799 10.57 19.2033 10.4767 19.2266C10.4067 19.2266 10.3133 19.1799 10.29 19.1099C10.2433 19.0399 10.2433 18.9699 10.29 18.8999C10.43 18.6433 10.5933 18.3866 10.7333 18.1299C11.0833 17.4999 11.4567 16.8699 11.8533 16.2399C11.69 16.1233 11.55 16.0066 11.41 15.8899C10.5467 16.7999 9.45001 18.0133 8.44668 19.3666C8.40001 19.5066 8.28334 19.6466 8.16668 19.7866ZM10.78 14.7466C10.29 14.9566 9.77668 15.0966 9.26334 15.2599C8.79668 15.3999 8.30668 15.5633 7.84001 15.7266C6.62668 16.1933 5.46001 16.7533 4.38668 17.4066C3.57001 17.8733 3.22001 18.4333 3.17334 19.3199C3.12668 20.1366 3.52334 20.9999 4.55001 21.0699C5.53001 21.1399 6.55668 20.7666 7.32668 20.0666C8.70334 18.1066 9.89334 16.7066 11.1533 15.5399C11.1067 15.4699 11.06 15.3999 11.0133 15.3299C10.0567 15.8199 9.31001 16.3333 8.65668 16.8933C8.58668 16.9633 8.47001 16.9633 8.37668 16.8699C8.30668 16.7999 8.30668 16.6833 8.37668 16.6133C9.12334 15.8899 9.94001 15.3299 10.8033 14.9799C10.8267 14.9099 10.8033 14.8166 10.78 14.7466ZM13.7667 17.3833C13.6967 17.8733 13.6267 18.3866 13.5567 18.8766C13.65 18.3866 13.72 17.8733 13.7667 17.3833ZM15.7733 17.1033C15.9367 17.4999 16.1 17.8966 16.2633 18.2933C16.1233 17.8966 15.96 17.4766 15.7733 17.1033ZM13.2533 16.2399C13.6967 16.3333 14.14 16.3333 14.5367 16.2399C15.26 16.0533 15.9133 15.4699 16.2633 14.6533C16.2633 14.5599 16.2867 14.4899 16.3567 14.4199C16.52 13.9533 16.5667 13.4866 16.52 13.0666C16.38 11.8766 15.05 11.2933 13.79 11.2699C12.95 11.3166 12.18 11.7366 11.69 12.3899C11.2233 13.0199 11.0833 13.8133 11.27 14.5833C11.48 15.3766 12.18 16.0066 13.16 16.2166C13.1833 16.2166 13.23 16.2166 13.2533 16.2399ZM1.51668 13.8133C1.54001 14.5599 1.75001 15.0733 2.14668 15.3999C3.01001 16.0999 4.59668 15.8199 5.99668 15.5633C6.46334 15.4933 6.88334 15.3999 7.25668 15.3766C8.61001 14.7933 9.70668 14.4666 10.6867 14.3499C10.6633 14.2566 10.6633 14.1633 10.6633 14.0699C10.6633 14.0466 10.6633 13.9999 10.6633 13.9766C9.63668 14.0233 8.51668 13.9766 7.51334 13.8366C7.44334 13.8366 7.39668 13.7666 7.39668 13.6966C7.39668 13.6266 7.46668 13.5566 7.53668 13.5566C8.54001 13.4633 9.66001 13.4866 10.6867 13.5799C10.71 13.4166 10.7333 13.2299 10.78 13.0666C9.75334 12.7866 8.75001 12.4366 7.77001 12.0866C7.74668 12.0866 7.72334 12.0866 7.67668 12.0866L7.56001 12.0633C6.09001 11.7366 3.38334 11.1299 2.14668 12.1566C1.70334 12.4833 1.49334 13.0666 1.51668 13.8133ZM8.58668 13.7199C9.12334 13.7666 9.66001 13.7666 10.1967 13.7666C9.66001 13.7199 9.12334 13.6966 8.58668 13.7199ZM5.11001 6.5566C4.66668 6.5566 4.22334 6.6966 3.87334 7.0466C3.22001 7.72327 3.47668 8.74993 3.99001 9.4266C4.69001 10.3599 5.95001 10.7799 7.04668 11.1533C7.28001 11.2233 7.49001 11.3166 7.70001 11.3866C8.00334 11.5033 8.30668 11.5966 8.61001 11.7133C9.38001 11.9933 10.1967 12.2733 10.9667 12.6233C10.99 12.5999 10.99 12.5533 11.0133 12.5299C10.22 12.1566 9.45001 11.6433 8.70334 10.9899C8.63334 10.9199 8.61001 10.8033 8.68001 10.7333C8.75001 10.6399 8.86668 10.6399 8.96001 10.7099C9.70668 11.2933 10.5 11.7833 11.2 12.2033C11.2233 12.1566 11.27 12.0866 11.3167 12.0399C10.5233 11.4099 9.77668 10.5699 8.98334 9.40327C8.77334 9.16993 8.54001 8.91327 8.33001 8.67993C7.70001 7.93327 7.04668 7.1866 6.13668 6.78993C5.83334 6.6266 5.46001 6.5566 5.11001 6.5566ZM7.72334 6.29993C8.56334 8.0966 9.84668 9.89327 11.55 11.6899C11.69 11.5266 11.83 11.4099 11.9933 11.2933C11.5033 10.5466 11.0367 9.68327 10.5 8.56327C10.4533 8.46993 10.5 8.35327 10.5933 8.3066C10.6867 8.25993 10.8033 8.28327 10.85 8.3766C11.0833 8.81993 11.3167 9.23993 11.5733 9.68327C11.83 10.1499 12.0867 10.6166 12.3433 11.1066C12.46 11.0366 12.6 10.9899 12.7167 10.9666C12.32 9.6366 12.04 8.46993 11.8533 7.41993C11.83 7.3966 11.83 7.3966 11.83 7.37327C11.76 7.1866 11.69 7.02327 11.62 6.8366C11.2233 5.83327 10.8267 4.78327 10.0333 4.05993C9.54334 3.6166 8.86668 3.4066 8.30668 3.5466C7.88668 3.63993 7.58334 3.94327 7.44334 4.36327C7.18668 5.0166 7.44334 5.73993 7.72334 6.29993ZM15.8433 11.2933C15.9367 11.3399 16.0067 11.3866 16.0767 11.4566C17.3133 10.3833 18.34 9.2866 19.18 8.07327C19.6933 7.34993 21.0467 5.45993 20.6733 4.33993C20.5567 3.98993 20.2767 3.73327 19.8333 3.59327C19.2733 3.4066 18.7833 3.45327 18.2933 3.70993C16.6133 4.64327 15.7733 8.2366 15.33 10.1499C15.26 10.4533 15.19 10.7333 15.1433 10.9666C15.26 11.0133 15.4 11.0599 15.5167 11.1066C15.96 10.1266 16.59 9.16994 17.3833 8.25993C17.4533 8.18994 17.57 8.1666 17.64 8.2366C17.7333 8.3066 17.7333 8.42327 17.6633 8.5166C17.0333 9.30993 16.45 10.1966 15.8433 11.2933ZM13.65 1.56327C12.32 1.8666 11.8533 3.49993 12.25 6.4166C12.4133 7.65327 12.6933 8.91327 12.95 10.1266C12.9967 10.3833 13.0667 10.6399 13.1133 10.8733C13.1833 10.8733 13.2533 10.8499 13.3233 10.8499C13.3467 10.8266 13.3933 10.8033 13.44 10.8033C13.51 10.8033 13.6033 10.7799 13.6733 10.7799C13.65 9.89327 13.5567 9.0066 13.3933 8.0966C13.37 7.97993 13.44 7.8866 13.5567 7.86327C13.6733 7.83993 13.7667 7.90993 13.79 8.00327C14.0233 8.88993 14.1167 9.8466 14.0467 10.7799C14.2567 10.7799 14.4667 10.8033 14.6767 10.8499C15.0033 9.02993 15.2133 7.3966 15.3067 5.87993C15.3067 5.7866 15.33 5.66994 15.33 5.52993C15.4 4.4566 15.5633 2.4266 14.7467 1.74993C14.4667 1.5166 14.1167 1.4466 13.65 1.56327ZM23.0533 21.3966C22.4233 21.3966 21.7233 21.1633 20.9767 20.6733C20.5333 20.3933 20.09 20.0433 19.6233 19.6233L19.6 19.5999C18.5733 18.1999 17.3133 17.0099 15.9833 15.8433L15.89 15.7733L15.96 15.6799C16.0533 15.5633 16.1467 15.4466 16.24 15.2833L16.2867 15.1899C16.38 15.0499 16.45 14.8866 16.52 14.7233L16.5667 14.6299L16.66 14.6533C18.27 14.9799 19.7167 15.3766 21.0233 15.8433L21.14 15.8899C22.54 16.3799 24.2667 16.9866 24.85 18.5033C25.1067 19.1566 25.1067 19.8566 24.8267 20.3933C24.5933 20.8599 24.1733 21.1866 23.6133 21.3266C23.4733 21.3733 23.2633 21.3966 23.0533 21.3966ZM19.81 19.4599C20.2533 19.8566 20.6733 20.1833 21.1167 20.4633C22.05 21.0699 22.89 21.2799 23.6133 21.0699C24.1033 20.9533 24.4533 20.6733 24.6633 20.2533C24.92 19.7633 24.92 19.1566 24.6867 18.5499C24.1267 17.1266 22.4467 16.5433 21.1167 16.0766H21C19.7167 15.6333 18.3167 15.2366 16.7533 14.9099C16.7067 15.0266 16.66 15.1433 16.59 15.2366C17.3833 15.6799 18.1067 16.2866 18.76 17.0333C18.83 17.1033 18.83 17.2199 18.7367 17.2899C18.6667 17.3599 18.55 17.3599 18.48 17.2899C17.8967 16.6599 17.22 16.0999 16.4033 15.5166C16.3567 15.6099 16.2867 15.6799 16.24 15.7499C17.5 16.8699 18.8067 18.0833 19.81 19.4599ZM23.59 16.2166C23.0533 16.2166 22.47 16.1466 21.77 15.9833H21.7467C20.3933 15.4466 18.83 15.0266 16.73 14.6299L16.59 14.6066L16.6367 14.4899C16.7067 14.2566 16.7533 13.9999 16.8 13.7433L16.8233 13.6266C16.8233 13.5333 16.8233 13.4399 16.8233 13.3466C16.8233 13.2533 16.8233 13.1833 16.8 13.0666V12.9033H16.94C18.0833 12.9033 19.25 12.6933 20.44 12.3199L20.58 12.2966C22.4467 11.8766 24.99 11.3166 26.04 13.2766C26.46 14.0233 26.2967 14.6299 26.0867 15.0033C25.7133 15.6799 24.85 16.1699 23.94 16.2399C23.8233 16.2166 23.7067 16.2166 23.59 16.2166ZM21.84 15.7733C22.6567 15.9599 23.3333 16.0066 23.9167 15.9833C24.7567 15.9366 25.55 15.4933 25.8767 14.8633C26.1333 14.3966 26.11 13.8833 25.83 13.3466C24.85 11.5499 22.4933 12.0633 20.6267 12.4833L20.4867 12.5066C19.3433 12.8799 18.1767 13.0899 17.0567 13.1133C17.0567 13.1833 17.0567 13.2299 17.0567 13.2999C17.0567 13.3699 17.0567 13.4166 17.0567 13.4866C18.34 13.6266 19.4133 13.7666 20.3933 13.9533C20.51 13.9766 20.5567 14.0699 20.5567 14.1866C20.5333 14.3033 20.44 14.3733 20.3467 14.3733C19.3667 14.2566 18.2933 14.1166 17.0333 13.8833C17.01 14.0699 16.9633 14.2566 16.9167 14.4199C18.97 14.8166 20.4867 15.2366 21.84 15.7733ZM16.8 12.8566L16.7533 12.7633C16.73 12.6466 16.66 12.5299 16.59 12.3899L16.5667 12.3433H16.5433V12.2966L16.4967 12.2033H16.5433V12.1799L16.4733 12.2033L16.45 12.1333C16.38 12.0399 16.31 11.9466 16.24 11.8766L16.1467 11.7833L16.4033 11.5499L16.4267 11.5966C16.8 11.2466 17.1967 10.8733 17.5467 10.5233C18.13 9.93993 18.7367 9.33327 19.39 8.7966C20.4867 7.90993 22.05 6.88327 23.2633 7.06993C23.7533 7.13993 24.1267 7.41993 24.4067 7.86327C24.6867 8.32993 24.7567 8.7966 24.6167 9.23993C24.36 10.1033 23.3567 10.8966 21.6533 11.6666C19.9967 12.3899 18.4333 12.7633 16.8933 12.7866L16.8 12.8566ZM16.87 12.4133C16.8933 12.4833 16.9167 12.5299 16.94 12.5766C18.4567 12.5533 19.95 12.2033 21.56 11.4799C23.2167 10.7566 24.1733 9.9866 24.4067 9.2166C24.5233 8.81993 24.4533 8.42327 24.22 8.0266C23.9867 7.62994 23.6367 7.3966 23.24 7.3266C22.3533 7.1866 21.0467 7.76993 19.5533 8.98327C18.9 9.51993 18.2933 10.1033 17.71 10.6866C17.3133 11.0599 16.9167 11.4566 16.52 11.8299C16.5433 11.8533 16.5667 11.8766 16.59 11.9233C16.6367 11.9233 16.6833 11.9466 16.73 11.9699C16.9867 11.8299 17.4767 11.5499 17.5467 11.5266L18.4333 11.1066C18.9233 10.8733 19.4133 10.6399 19.9033 10.4299C20.02 10.3833 20.16 10.4533 20.2067 10.5466C20.2533 10.6399 20.2067 10.7566 20.1133 10.8266C19.4833 11.1533 18.8533 11.4566 18.2233 11.7599L17.78 11.9699C17.71 11.9933 17.64 12.0399 17.5467 12.1099C17.3367 12.2266 17.1033 12.3666 16.87 12.4133ZM19.6467 10.8033C19.2733 10.9666 18.8767 11.1533 18.5033 11.3399L17.6167 11.7599C17.57 11.7833 17.1267 12.0166 16.8467 12.1799C17.01 12.1099 17.22 11.9933 17.3833 11.8999C17.4767 11.8299 17.57 11.7833 17.64 11.7599L18.0833 11.5499C18.62 11.3166 19.1333 11.0599 19.6467 10.8033ZM16.6133 12.1333H16.6367L16.66 12.1099L16.6133 12.1333Z" fill="#CBD5E1"/>
<path d="M13.1133 12.4367C13.0433 12.46 12.95 12.4367 12.9033 12.3667C12.8567 12.2734 12.9267 12.18 12.9967 12.1334C13.0433 12.11 13.0433 12.04 12.9733 12.04C12.81 12.0634 12.67 12.2267 12.74 12.39C12.7867 12.5534 12.9967 12.6234 13.1367 12.53C13.2067 12.5067 13.16 12.4134 13.1133 12.4367Z" fill="#CBD5E1"/>
<path d="M12.9967 12.6934C12.95 12.6934 12.9033 12.6934 12.8567 12.6701C12.74 12.6234 12.67 12.5534 12.6233 12.4368C12.5767 12.3201 12.6 12.2034 12.67 12.1101C12.74 12.0168 12.8333 11.9468 12.9733 11.9468C13.0433 11.9468 13.1133 11.9934 13.1367 12.0634C13.16 12.1568 13.1133 12.2268 13.02 12.2501C12.9967 12.2501 12.9967 12.2734 12.9733 12.2968C12.9733 12.3201 13.02 12.3434 13.0433 12.3434C13.1367 12.3201 13.2067 12.3668 13.2533 12.4368C13.3 12.5068 13.2533 12.6001 13.1833 12.6468C13.1367 12.6701 13.0667 12.6934 12.9967 12.6934Z" fill="#CBD5E1"/>
<path d="M13.3933 12.0864C13.3467 12.0864 13.3233 12.1564 13.3933 12.1798C13.58 12.2031 13.6733 12.4598 13.5567 12.5998C13.5333 12.6464 13.58 12.6698 13.6267 12.6464C13.79 12.4598 13.65 12.1098 13.3933 12.0864Z" fill="#CBD5E1"/>
<path d="M13.58 12.7864C13.5333 12.7864 13.51 12.7631 13.4633 12.7397C13.3933 12.6931 13.3933 12.5997 13.44 12.5297C13.4633 12.4831 13.4633 12.4364 13.4633 12.3664C13.4633 12.3431 13.4167 12.2964 13.37 12.2731C13.2767 12.2497 13.23 12.1797 13.23 12.1097C13.23 12.0164 13.3 11.9697 13.3933 11.9697C13.5567 11.9931 13.72 12.1097 13.7667 12.2731C13.8133 12.4364 13.79 12.5997 13.6733 12.7164C13.65 12.7631 13.6267 12.7864 13.58 12.7864Z" fill="#CBD5E1"/>
<path d="M12.8567 12.7629C12.74 12.7163 12.5767 12.7396 12.5767 12.9029C12.5767 12.9496 12.6467 12.9496 12.6467 12.9029C12.67 12.8096 12.7867 12.8329 12.8333 12.9029C12.88 12.9963 12.7867 13.1363 12.7867 13.2296C12.7867 13.2763 12.8567 13.2996 12.88 13.2763C13.02 13.1596 13.02 12.8563 12.8567 12.7629Z" fill="#CBD5E1"/>
<path d="M12.8333 13.4164C12.81 13.4164 12.7867 13.4164 12.7633 13.3931C12.6933 13.3698 12.67 13.2998 12.67 13.2298C12.67 13.1831 12.6933 13.1364 12.7167 13.0898C12.7167 13.0664 12.74 13.0431 12.74 13.0198C12.7167 13.0664 12.6467 13.0898 12.6 13.0664C12.5067 13.0664 12.46 12.9964 12.46 12.9031C12.46 12.8098 12.5067 12.7398 12.6 12.6931C12.6933 12.6464 12.8333 12.6231 12.9267 12.6931C13.02 12.7398 13.09 12.8564 13.1133 12.9731C13.1367 13.1364 13.09 13.2998 12.9733 13.3931C12.9267 13.3931 12.88 13.4164 12.8333 13.4164Z" fill="#CBD5E1"/>
<path d="M13.79 15.8436C13.72 16.0069 13.44 16.0536 13.37 15.8669C13.3467 15.7969 13.2534 15.8202 13.2767 15.8902C13.37 16.1702 13.86 16.1936 13.93 15.8902C13.9067 15.8436 13.8134 15.7736 13.79 15.8436Z" fill="#CBD5E1"/>
<path d="M13.58 16.24C13.37 16.24 13.1834 16.1233 13.1367 15.9367C13.1134 15.8433 13.16 15.75 13.23 15.7267C13.3234 15.7033 13.4167 15.75 13.44 15.82C13.44 15.82 13.4634 15.8667 13.51 15.8667C13.5567 15.8667 13.6267 15.8433 13.65 15.7967C13.6967 15.7267 13.7667 15.68 13.86 15.7033C13.9534 15.7267 14 15.82 14 15.9133C13.9767 16.1 13.8134 16.24 13.6034 16.24C13.6034 16.24 13.6034 16.24 13.58 16.24Z" fill="#CBD5E1"/>
<path d="M13.1833 15.1899C13.0433 15.1899 12.9033 15.2833 12.95 15.4466C12.9733 15.4933 13.0433 15.4933 13.0433 15.4233C13.02 15.3066 13.1833 15.3066 13.2533 15.3533C13.3233 15.3999 13.37 15.5166 13.4167 15.5866C13.44 15.6333 13.5333 15.6099 13.51 15.5399C13.44 15.3999 13.37 15.1899 13.1833 15.1899Z" fill="#CBD5E1"/>
<path d="M13.44 15.7268C13.37 15.7268 13.3233 15.7034 13.3 15.6334L13.2767 15.6101C13.2533 15.5401 13.2067 15.4701 13.16 15.4468H13.1367C13.1367 15.5168 13.09 15.5868 12.9967 15.5868C12.9033 15.6101 12.8333 15.5401 12.81 15.4701C12.7867 15.3768 12.81 15.2834 12.88 15.2134C12.95 15.1201 13.0667 15.0734 13.1833 15.0968C13.3233 15.0968 13.51 15.1901 13.6033 15.5401C13.6267 15.6334 13.58 15.7034 13.4867 15.7501C13.4867 15.7268 13.4633 15.7268 13.44 15.7268Z" fill="#CBD5E1"/>
<path d="M14.56 15.6331C14.5133 15.7031 14.35 15.7265 14.3033 15.6331C14.2333 15.5398 14.3033 15.4231 14.3967 15.3765C14.4433 15.3531 14.3967 15.2831 14.3733 15.3065C14.1867 15.3298 14.0933 15.5865 14.1867 15.7498C14.3033 15.9131 14.5833 15.8898 14.6767 15.7265C14.7233 15.6331 14.63 15.5631 14.56 15.6331Z" fill="#CBD5E1"/>
<path d="M14.42 15.9833C14.28 15.9833 14.1633 15.9133 14.0933 15.8199C14.0233 15.7033 14 15.5633 14.07 15.4233C14.1167 15.3066 14.2333 15.2133 14.35 15.1899C14.42 15.1899 14.5133 15.2366 14.5367 15.3066C14.56 15.3766 14.5133 15.4466 14.4433 15.4933C14.42 15.4933 14.3967 15.5166 14.3967 15.5633C14.3967 15.5866 14.3967 15.5866 14.3967 15.5866H14.42C14.4433 15.5866 14.4433 15.5866 14.4667 15.5633C14.5367 15.4933 14.63 15.4699 14.7233 15.5166C14.7933 15.5633 14.84 15.6799 14.77 15.7499C14.7 15.8666 14.5833 15.9599 14.42 15.9599C14.4433 15.9833 14.4433 15.9833 14.42 15.9833Z" fill="#CBD5E1"/>
<path d="M15.8433 13.6496C15.7733 13.7196 15.7033 13.8363 15.6333 13.8829C15.5867 13.9063 15.54 13.9063 15.5167 13.8596C15.47 13.8363 15.4467 13.7663 15.4933 13.7429C15.54 13.6963 15.47 13.6263 15.4233 13.6496C15.2833 13.7429 15.3533 13.9529 15.4933 14.0229C15.7033 14.1163 15.89 13.8829 15.96 13.7196C15.9833 13.6496 15.89 13.5796 15.8433 13.6496Z" fill="#CBD5E1"/>
<path d="M15.5867 14.1632C15.54 14.1632 15.4933 14.1632 15.4467 14.1398C15.33 14.0932 15.2367 13.9532 15.2367 13.8365C15.2367 13.7198 15.2833 13.6265 15.3767 13.5798C15.4467 13.5332 15.54 13.5565 15.61 13.6265C15.6333 13.6732 15.6567 13.7198 15.6333 13.7665C15.68 13.7432 15.7033 13.6965 15.75 13.6498L15.7733 13.6032C15.82 13.5332 15.9133 13.5098 16.0067 13.5565C16.1 13.6032 16.1233 13.7198 16.0767 13.8132C15.96 13.9765 15.7733 14.1632 15.5867 14.1632Z" fill="#CBD5E1"/>
<path d="M15.2833 12.927C15.12 12.927 15.0034 13.1603 15.1434 13.277C15.19 13.3003 15.2367 13.2536 15.19 13.2303C15.1433 13.1836 15.1667 13.137 15.19 13.0903C15.2367 13.0436 15.33 13.067 15.3767 13.1136C15.47 13.207 15.47 13.347 15.4934 13.4636C15.4934 13.5336 15.61 13.5336 15.61 13.4636C15.6334 13.2303 15.5633 12.9036 15.2833 12.927Z" fill="#CBD5E1"/>
<path d="M15.5633 13.6034C15.47 13.6034 15.4 13.5334 15.3767 13.4401V13.3934C15.3767 13.3001 15.3533 13.2301 15.3067 13.1834C15.33 13.2301 15.3067 13.3001 15.2833 13.3467C15.2367 13.4167 15.12 13.4167 15.0733 13.3701C14.98 13.3001 14.9333 13.1601 14.98 13.0434C15.0267 12.9034 15.1433 12.8101 15.2833 12.8101C15.4 12.8101 15.4933 12.8567 15.5867 12.9267C15.75 13.0901 15.75 13.3701 15.75 13.4401C15.75 13.5334 15.68 13.6034 15.5633 13.6034C15.5867 13.6034 15.5867 13.6034 15.5633 13.6034Z" fill="#CBD5E1"/>
<path d="M16.3567 13.1133C16.2633 13.1833 16.1 13.1833 16.0067 13.0666C15.9133 12.95 15.9367 12.7866 16.0533 12.7166C16.1 12.67 16.0533 12.6 16.0067 12.6233C15.82 12.7166 15.7733 12.9733 15.89 13.1366C16.0067 13.3233 16.2633 13.3466 16.4267 13.1833C16.4733 13.16 16.4033 13.0666 16.3567 13.1133Z" fill="#CBD5E1"/>
<path d="M16.17 13.4167C16.1467 13.4167 16.1467 13.4167 16.1233 13.4167C15.9833 13.3934 15.8667 13.3234 15.7733 13.2067C15.7033 13.09 15.68 12.9734 15.7033 12.8334C15.7267 12.6934 15.82 12.5767 15.9367 12.5067C16.0067 12.46 16.1 12.4834 16.1467 12.5534C16.1933 12.6234 16.17 12.74 16.1 12.7867C16.0767 12.81 16.0533 12.8567 16.0533 12.88C16.0533 12.9034 16.0533 12.95 16.0767 12.9734C16.1233 13.02 16.2167 13.02 16.2633 12.9967C16.3333 12.95 16.45 12.9734 16.4967 13.0434C16.5433 13.1134 16.5433 13.2067 16.4733 13.2767C16.4033 13.37 16.2867 13.4167 16.17 13.4167Z" fill="#CBD5E1"/>
<path d="M12.18 14.1866C12.04 14.1166 11.8767 14.1866 11.8067 14.3266C11.7833 14.3733 11.8534 14.42 11.8767 14.3733C11.9234 14.28 12.04 14.2566 12.1333 14.3033C12.2033 14.35 12.2267 14.4666 12.2033 14.5366C12.18 14.5833 12.2734 14.63 12.2967 14.5833C12.3667 14.4433 12.2967 14.2566 12.18 14.1866Z" fill="#CBD5E1"/>
<path d="M12.25 14.7233C12.2267 14.7233 12.2033 14.7233 12.18 14.6999C12.11 14.6766 12.0633 14.5833 12.0867 14.5133C12.0867 14.4899 12.11 14.4199 12.0633 14.3966C12.0633 14.3966 12.04 14.3966 12.0167 14.3966C11.9933 14.3966 11.97 14.4199 11.97 14.4433C11.9233 14.5133 11.83 14.5366 11.76 14.4899C11.69 14.4433 11.6667 14.3499 11.69 14.2799C11.7833 14.0933 12.04 13.9999 12.2267 14.0933C12.32 14.1399 12.39 14.2333 12.4367 14.3499C12.46 14.4433 12.46 14.5599 12.39 14.6533C12.3433 14.6999 12.2967 14.7233 12.25 14.7233Z" fill="#CBD5E1"/>
<path d="M12.53 14.8633C12.39 15.1667 11.9934 15.2133 11.8534 14.8867C11.83 14.84 11.76 14.8633 11.7834 14.91C11.9467 15.3067 12.5067 15.33 12.6467 14.8867C12.6467 14.84 12.5534 14.8167 12.53 14.8633Z" fill="#CBD5E1"/>
<path d="M12.2267 15.3534C11.9933 15.3534 11.76 15.2134 11.6667 14.98C11.6433 14.91 11.6667 14.8167 11.76 14.77C11.83 14.7467 11.9233 14.77 11.97 14.84C12.0167 14.9334 12.0867 15.0034 12.2033 15.0034C12.32 15.0034 12.4133 14.9334 12.46 14.8167C12.4833 14.7467 12.5767 14.7 12.67 14.7234C12.7633 14.7467 12.81 14.84 12.7867 14.9334C12.7167 15.1667 12.53 15.33 12.2733 15.33C12.2267 15.3534 12.2267 15.3534 12.2267 15.3534Z" fill="#CBD5E1"/>
<path d="M14.1867 14.093C14.07 14.093 13.93 14.1163 13.8133 14.0463C13.7433 13.9996 13.6967 13.8596 13.79 13.813C13.86 13.7896 13.8367 13.6963 13.7667 13.6963C13.6033 13.743 13.58 13.9296 13.65 14.0696C13.7667 14.2563 14 14.2563 14.1867 14.2096C14.28 14.2096 14.2567 14.093 14.1867 14.093Z" fill="#CBD5E1"/>
<path d="M14 14.3498C13.79 14.3498 13.6267 14.2798 13.5567 14.1165C13.51 13.9998 13.4867 13.8831 13.5333 13.7665C13.58 13.6731 13.65 13.6031 13.7433 13.5798C13.8367 13.5565 13.93 13.6031 13.9533 13.6731C13.9767 13.7665 13.9533 13.8365 13.8833 13.8831C13.8833 13.9065 13.9067 13.9065 13.9067 13.9298C13.9533 13.9765 14.07 13.9531 14.14 13.9531H14.1867C14.28 13.9531 14.35 14.0231 14.3733 14.1165C14.3733 14.2098 14.3267 14.3031 14.2333 14.3031C14.14 14.3498 14.07 14.3498 14 14.3498Z" fill="#CBD5E1"/>
<path d="M15.0267 12.1101C14.9333 12.1568 14.8167 12.2268 14.7 12.2035C14.6067 12.1801 14.56 12.0635 14.63 11.9935C14.6533 11.9701 14.63 11.9235 14.5833 11.9468C14.4667 12.0168 14.49 12.1801 14.56 12.2735C14.7 12.4368 14.9333 12.3435 15.0733 12.2268C15.1433 12.1801 15.0967 12.0868 15.0267 12.1101Z" fill="#CBD5E1"/>
<path d="M14.7467 12.4599C14.6533 12.4599 14.5367 12.4366 14.4667 12.3433C14.3967 12.2733 14.35 12.1566 14.3733 12.0399C14.3967 11.9466 14.4433 11.8766 14.5133 11.8299C14.5833 11.7833 14.6533 11.8066 14.7 11.8766C14.7467 11.9466 14.7233 12.0166 14.6767 12.0633C14.6767 12.0633 14.7 12.0633 14.7 12.0866C14.7467 12.1099 14.8167 12.0633 14.8867 12.0166C14.91 12.0166 14.9333 11.9933 14.9567 11.9933C15.05 11.9466 15.1433 11.9933 15.19 12.0633C15.2367 12.1566 15.2133 12.2499 15.1433 12.2966C15.0267 12.4133 14.8867 12.4599 14.7467 12.4599Z" fill="#CBD5E1"/>
<path d="M14.8634 14.8163C14.84 14.8863 14.9567 14.9096 14.98 14.8396C15.05 14.6763 15.26 14.723 15.26 14.8863C15.26 14.9796 15.4 14.9796 15.4 14.8863C15.4234 14.5596 14.9334 14.4896 14.8634 14.8163Z" fill="#CBD5E1"/>
<path d="M15.3067 15.073C15.2134 15.073 15.12 15.003 15.12 14.8864C15.12 14.863 15.0967 14.8397 15.0967 14.8397C15.0967 14.8397 15.0734 14.8397 15.0734 14.863C15.05 14.9564 14.9334 15.003 14.8634 14.9797C14.77 14.9564 14.7234 14.863 14.7467 14.7697C14.7934 14.5364 15.0034 14.443 15.19 14.4897C15.4 14.513 15.54 14.6997 15.5167 14.9097C15.4934 15.003 15.4234 15.073 15.3067 15.073Z" fill="#CBD5E1"/>
<path d="M12.2033 13.4169C12.0633 13.6035 11.7367 13.6269 11.5967 13.4402C11.5733 13.3935 11.48 13.4402 11.5267 13.4869C11.69 13.7435 12.1333 13.7435 12.2733 13.4635C12.32 13.3935 12.25 13.3702 12.2033 13.4169Z" fill="#CBD5E1"/>
<path d="M11.9233 13.7667C11.7367 13.7667 11.55 13.6734 11.4567 13.5101C11.41 13.4401 11.4333 13.3467 11.5033 13.3001C11.5733 13.2534 11.6667 13.2767 11.7367 13.3467C11.7833 13.3934 11.8533 13.4401 11.9233 13.4401C12.0167 13.4401 12.0867 13.3934 12.1333 13.3234C12.18 13.2534 12.2733 13.2301 12.3433 13.2767C12.4133 13.3234 12.4367 13.4167 12.39 13.4867C12.2967 13.6734 12.1333 13.7667 11.9467 13.7667C11.9233 13.7667 11.9233 13.7667 11.9233 13.7667Z" fill="#CBD5E1"/>
</svg>
