<svg width="20" height="21" viewBox="0 0 20 21" fill="none" xmlns="http://www.w3.org/2000/svg">
<path fill-rule="evenodd" clip-rule="evenodd" d="M13.725 20.5V12.755H16.325L16.714 9.737H13.724V7.81C13.724 6.936 13.967 6.34 15.221 6.34H16.819V3.64C16.0451 3.55764 15.2673 3.51758 14.489 3.52C12.185 3.52 10.608 4.927 10.608 7.51V9.737H8V12.755H10.607V20.5H1.104C0.494 20.5 0 20.006 0 19.396V1.604C0 0.994 0.494 0.5 1.104 0.5H18.896C19.506 0.5 20 0.994 20 1.604V19.396C20 20.006 19.506 20.5 18.896 20.5H13.725V20.5Z" fill="#3874CB"/>
</svg>
