<svg width="20" height="21" viewBox="0 0 20 21" fill="none" xmlns="http://www.w3.org/2000/svg">
<g clip-path="url(#clip0_751_11727)">
<path d="M19.9905 10.6873C19.9905 9.86792 19.9224 9.26998 19.7752 8.6499H10.1992V12.3482H15.8201C15.7068 13.2673 15.0948 14.6514 13.7349 15.5815L13.7159 15.7053L16.7436 17.9972L16.9534 18.0176C18.8798 16.2791 19.9905 13.7213 19.9905 10.6873" fill="#4285F4"/>
<path d="M10.1992 20.4312C12.953 20.4312 15.2648 19.5453 16.9534 18.0173L13.7349 15.5812C12.8737 16.1681 11.7177 16.5777 10.1992 16.5777C7.50211 16.5777 5.21297 14.8393 4.39695 12.4365L4.27734 12.4464L1.12906 14.8271L1.08789 14.939C2.76508 18.1944 6.21016 20.4312 10.1992 20.4312Z" fill="#34A853"/>
<path d="M4.39695 12.4368C4.18164 11.8167 4.05703 11.1523 4.05703 10.4658C4.05703 9.77927 4.18164 9.11492 4.38563 8.49484L4.37992 8.36278L1.19219 5.94385L1.08789 5.99232C0.396641 7.34324 0 8.86026 0 10.4658C0 12.0714 0.396641 13.5884 1.08789 14.9393L4.39695 12.4368" fill="#FBBC05"/>
<path d="M10.1992 4.35336C12.1144 4.35336 13.4063 5.16168 14.1429 5.83718L17.0213 3.09107C15.2535 1.4855 12.953 0.5 10.1992 0.5C6.21016 0.5 2.76508 2.73672 1.08789 5.99214L4.38563 8.49466C5.21297 6.09183 7.50211 4.35336 10.1992 4.35336" fill="#EB4335"/>
</g>
<defs>
<clipPath id="clip0_751_11727">
<rect width="20" height="20" fill="white" transform="translate(0 0.5)"/>
</clipPath>
</defs>
</svg>
