<svg width="198" height="198" viewBox="0 0 198 198" fill="none" xmlns="http://www.w3.org/2000/svg">
<g filter="url(#filter0_d_1254_4344)">
<rect x="19" y="10" width="160" height="160" rx="80" fill="#AA7878"/>
<path d="M58.0978 64.2C58.5298 64.2 58.8818 64.328 59.1538 64.584C59.4258 64.84 59.5618 65.176 59.5618 65.592C59.5618 66.008 59.4258 66.344 59.1538 66.6C58.8818 66.84 58.5298 66.96 58.0978 66.96H54.3298V79.536C54.3298 79.952 54.1778 80.304 53.8738 80.592C53.5698 80.864 53.1938 81 52.7458 81C52.2978 81 51.9298 80.864 51.6418 80.592C51.3538 80.304 51.2098 79.952 51.2098 79.536V66.96H47.4418C47.0098 66.96 46.6578 66.832 46.3858 66.576C46.1138 66.32 45.9778 65.984 45.9778 65.568C45.9778 65.168 46.1138 64.84 46.3858 64.584C46.6738 64.328 47.0258 64.2 47.4418 64.2H58.0978ZM69.8426 67.92C70.2586 67.92 70.6026 68.056 70.8746 68.328C71.1466 68.6 71.2826 68.952 71.2826 69.384V79.536C71.2826 79.952 71.1466 80.304 70.8746 80.592C70.6026 80.864 70.2586 81 69.8426 81C69.4266 81 69.0826 80.864 68.8106 80.592C68.5546 80.32 68.4186 79.976 68.4026 79.56C68.0026 80.024 67.4586 80.424 66.7706 80.76C66.0986 81.08 65.3866 81.24 64.6346 81.24C63.5306 81.24 62.5306 80.96 61.6346 80.4C60.7386 79.824 60.0266 79.032 59.4986 78.024C58.9866 77.016 58.7306 75.872 58.7306 74.592C58.7306 73.312 58.9866 72.168 59.4986 71.16C60.0106 70.136 60.7066 69.344 61.5866 68.784C62.4826 68.208 63.4666 67.92 64.5386 67.92C65.3066 67.92 66.0266 68.064 66.6986 68.352C67.3706 68.624 67.9386 68.976 68.4026 69.408V69.384C68.4026 68.968 68.5386 68.624 68.8106 68.352C69.0826 68.064 69.4266 67.92 69.8426 67.92ZM64.9946 78.6C66.0346 78.6 66.8826 78.224 67.5386 77.472C68.1946 76.704 68.5226 75.744 68.5226 74.592C68.5226 73.44 68.1946 72.48 67.5386 71.712C66.8826 70.944 66.0346 70.56 64.9946 70.56C63.9706 70.56 63.1306 70.944 62.4746 71.712C61.8186 72.48 61.4906 73.44 61.4906 74.592C61.4906 75.744 61.8106 76.704 62.4506 77.472C63.1066 78.224 63.9546 78.6 64.9946 78.6ZM65.3306 84.84C64.8026 84.84 64.4266 84.752 64.2026 84.576C63.9786 84.4 63.8666 84.088 63.8666 83.64V83.184C63.8666 82.736 63.9866 82.424 64.2266 82.248C64.4666 82.072 64.8346 81.984 65.3306 81.984C65.9226 81.984 66.3306 82.072 66.5546 82.248C66.7786 82.424 66.8906 82.736 66.8906 83.184V83.64C66.8906 84.104 66.7706 84.416 66.5306 84.576C66.2906 84.752 65.8906 84.84 65.3306 84.84ZM86.7398 74.592C86.7398 75.872 86.4518 77.024 85.8758 78.048C85.2998 79.056 84.5078 79.84 83.4998 80.4C82.5078 80.96 81.4118 81.24 80.2118 81.24C78.9958 81.24 77.8918 80.96 76.8998 80.4C75.9078 79.84 75.1238 79.056 74.5478 78.048C73.9718 77.024 73.6838 75.872 73.6838 74.592C73.6838 73.312 73.9718 72.168 74.5478 71.16C75.1238 70.136 75.9078 69.344 76.8998 68.784C77.8918 68.208 78.9958 67.92 80.2118 67.92C81.4118 67.92 82.5078 68.208 83.4998 68.784C84.5078 69.344 85.2998 70.136 85.8758 71.16C86.4518 72.168 86.7398 73.312 86.7398 74.592ZM83.8598 74.592C83.8598 73.808 83.6918 73.112 83.3558 72.504C83.0358 71.88 82.5958 71.4 82.0358 71.064C81.4918 70.728 80.8838 70.56 80.2118 70.56C79.5398 70.56 78.9238 70.728 78.3638 71.064C77.8198 71.4 77.3798 71.88 77.0438 72.504C76.7238 73.112 76.5638 73.808 76.5638 74.592C76.5638 75.376 76.7238 76.072 77.0438 76.68C77.3798 77.288 77.8198 77.76 78.3638 78.096C78.9238 78.432 79.5398 78.6 80.2118 78.6C80.8838 78.6 81.4918 78.432 82.0358 78.096C82.5958 77.76 83.0358 77.288 83.3558 76.68C83.6918 76.072 83.8598 75.376 83.8598 74.592ZM102.065 78.288C102.289 78.288 102.489 78.4 102.665 78.624C102.857 78.832 102.953 79.112 102.953 79.464C102.953 79.896 102.713 80.264 102.233 80.568C101.769 80.856 101.241 81 100.648 81C99.6565 81 98.8165 80.792 98.1285 80.376C97.4565 79.944 97.1205 79.04 97.1205 77.664V71.04H96.0165C95.6325 71.04 95.3125 70.912 95.0565 70.656C94.8005 70.4 94.6725 70.08 94.6725 69.696C94.6725 69.328 94.8005 69.024 95.0565 68.784C95.3125 68.528 95.6325 68.4 96.0165 68.4H97.1205V66.864C97.1205 66.448 97.2565 66.104 97.5285 65.832C97.8165 65.544 98.1685 65.4 98.5845 65.4C98.9845 65.4 99.3205 65.544 99.5925 65.832C99.8645 66.104 100.001 66.448 100.001 66.864V68.4H101.705C102.089 68.4 102.409 68.528 102.665 68.784C102.921 69.04 103.049 69.36 103.049 69.744C103.049 70.112 102.921 70.424 102.665 70.68C102.409 70.92 102.089 71.04 101.705 71.04H100.001V77.544C100.001 77.88 100.089 78.128 100.265 78.288C100.441 78.432 100.681 78.504 100.985 78.504C101.113 78.504 101.289 78.472 101.513 78.408C101.705 78.328 101.889 78.288 102.065 78.288ZM112.437 67.92C114.021 67.92 115.117 68.408 115.725 69.384C116.333 70.344 116.637 71.68 116.637 73.392V79.536C116.637 79.952 116.501 80.304 116.229 80.592C115.957 80.864 115.613 81 115.197 81C114.781 81 114.437 80.864 114.165 80.592C113.893 80.304 113.757 79.952 113.757 79.536V73.392C113.757 72.512 113.581 71.824 113.229 71.328C112.893 70.816 112.293 70.56 111.429 70.56C110.533 70.56 109.829 70.832 109.317 71.376C108.821 71.904 108.573 72.576 108.573 73.392V79.536C108.573 79.952 108.437 80.304 108.165 80.592C107.893 80.864 107.549 81 107.133 81C106.717 81 106.373 80.864 106.101 80.592C105.829 80.304 105.693 79.952 105.693 79.536V64.704C105.693 64.288 105.829 63.944 106.101 63.672C106.373 63.384 106.717 63.24 107.133 63.24C107.549 63.24 107.893 63.384 108.165 63.672C108.437 63.944 108.573 64.288 108.573 64.704V70.008C109.005 69.432 109.549 68.944 110.205 68.544C110.877 68.128 111.621 67.92 112.437 67.92ZM122.467 79.536C122.467 79.952 122.331 80.304 122.059 80.592C121.787 80.864 121.443 81 121.027 81C120.611 81 120.267 80.864 119.995 80.592C119.723 80.304 119.587 79.952 119.587 79.536V69.624C119.587 69.208 119.723 68.864 119.995 68.592C120.267 68.304 120.611 68.16 121.027 68.16C121.443 68.16 121.787 68.304 122.059 68.592C122.331 68.864 122.467 69.208 122.467 69.624V79.536ZM121.003 66.6C120.459 66.6 120.075 66.512 119.851 66.336C119.627 66.16 119.515 65.848 119.515 65.4V64.944C119.515 64.496 119.635 64.184 119.875 64.008C120.115 63.832 120.499 63.744 121.027 63.744C121.587 63.744 121.979 63.832 122.203 64.008C122.427 64.184 122.539 64.496 122.539 64.944V65.4C122.539 65.864 122.419 66.184 122.179 66.36C121.955 66.52 121.563 66.6 121.003 66.6ZM136.947 74.28C136.931 74.664 136.779 74.976 136.491 75.216C136.203 75.456 135.867 75.576 135.483 75.576H127.563C127.755 76.52 128.195 77.264 128.883 77.808C129.571 78.336 130.347 78.6 131.211 78.6C131.867 78.6 132.379 78.544 132.747 78.432C133.115 78.304 133.403 78.176 133.611 78.048C133.835 77.904 133.987 77.808 134.067 77.76C134.355 77.616 134.627 77.544 134.883 77.544C135.219 77.544 135.507 77.664 135.747 77.904C135.987 78.144 136.107 78.424 136.107 78.744C136.107 79.176 135.883 79.568 135.435 79.92C134.987 80.288 134.387 80.6 133.635 80.856C132.883 81.112 132.123 81.24 131.355 81.24C130.011 81.24 128.835 80.96 127.827 80.4C126.835 79.84 126.067 79.072 125.523 78.096C124.979 77.104 124.707 75.992 124.707 74.76C124.707 73.384 124.995 72.176 125.571 71.136C126.147 70.096 126.907 69.304 127.851 68.76C128.795 68.2 129.803 67.92 130.875 67.92C131.931 67.92 132.923 68.208 133.851 68.784C134.795 69.36 135.547 70.136 136.107 71.112C136.667 72.088 136.947 73.144 136.947 74.28ZM130.875 70.56C129.019 70.56 127.923 71.432 127.587 73.176H133.875V73.008C133.811 72.336 133.483 71.76 132.891 71.28C132.299 70.8 131.627 70.56 130.875 70.56ZM130.779 84.84C130.251 84.84 129.875 84.752 129.651 84.576C129.427 84.4 129.315 84.088 129.315 83.64V83.184C129.315 82.736 129.435 82.424 129.675 82.248C129.915 82.072 130.283 81.984 130.779 81.984C131.371 81.984 131.779 82.072 132.003 82.248C132.227 82.424 132.339 82.736 132.339 83.184V83.64C132.339 84.104 132.219 84.416 131.979 84.576C131.739 84.752 131.339 84.84 130.779 84.84ZM133.707 65.28C133.835 65.44 133.915 65.568 133.947 65.664C133.979 65.76 133.995 65.88 133.995 66.024C133.995 66.184 133.923 66.328 133.779 66.456C133.651 66.568 133.483 66.624 133.275 66.624C133.035 66.624 132.851 66.592 132.723 66.528C132.611 66.464 132.491 66.384 132.363 66.288C132.251 66.176 132.163 66.096 132.099 66.048L130.827 64.92L129.459 66.048C129.395 66.096 129.291 66.184 129.147 66.312C129.019 66.424 128.891 66.504 128.763 66.552C128.635 66.6 128.475 66.624 128.283 66.624C128.075 66.624 127.899 66.568 127.755 66.456C127.627 66.328 127.563 66.184 127.563 66.024C127.563 65.88 127.579 65.76 127.611 65.664C127.643 65.568 127.723 65.44 127.851 65.28L129.027 63.792C129.395 63.328 129.883 63.096 130.491 63.096H131.355C131.675 63.096 131.923 63.144 132.099 63.24C132.291 63.336 132.475 63.52 132.651 63.792L133.707 65.28ZM145.997 67.92C147.101 67.92 148.101 68.208 148.997 68.784C149.893 69.344 150.597 70.128 151.109 71.136C151.637 72.144 151.901 73.288 151.901 74.568C151.901 75.848 151.645 77 151.133 78.024C150.621 79.032 149.917 79.824 149.021 80.4C148.141 80.96 147.165 81.24 146.093 81.24C145.325 81.24 144.597 81.088 143.909 80.784C143.237 80.464 142.677 80.08 142.229 79.632V84.336C142.229 84.752 142.093 85.096 141.821 85.368C141.549 85.656 141.205 85.8 140.789 85.8C140.373 85.8 140.029 85.664 139.757 85.392C139.485 85.12 139.349 84.768 139.349 84.336V69.624C139.349 69.208 139.485 68.864 139.757 68.592C140.029 68.304 140.373 68.16 140.789 68.16C141.205 68.16 141.549 68.304 141.821 68.592C142.093 68.864 142.229 69.208 142.229 69.624V69.72C142.613 69.24 143.149 68.824 143.837 68.472C144.525 68.104 145.245 67.92 145.997 67.92ZM145.637 78.6C146.661 78.6 147.501 78.216 148.157 77.448C148.813 76.68 149.141 75.72 149.141 74.568C149.141 73.416 148.813 72.464 148.157 71.712C147.517 70.944 146.677 70.56 145.637 70.56C144.597 70.56 143.749 70.944 143.093 71.712C142.437 72.464 142.109 73.416 142.109 74.568C142.109 75.72 142.437 76.68 143.093 77.448C143.749 78.216 144.597 78.6 145.637 78.6ZM82.7262 103.92C84.0862 103.92 85.1822 104.136 86.0142 104.568C86.8462 104.984 87.2622 105.544 87.2622 106.248C87.2622 106.6 87.1582 106.912 86.9502 107.184C86.7422 107.44 86.4702 107.568 86.1342 107.568C85.8782 107.568 85.6702 107.536 85.5102 107.472C85.3502 107.392 85.1902 107.296 85.0302 107.184C84.8862 107.056 84.7422 106.952 84.5982 106.872C84.4382 106.792 84.1982 106.72 83.8782 106.656C83.5742 106.592 83.3262 106.56 83.1342 106.56C81.9342 106.56 80.9902 106.936 80.3022 107.688C79.6302 108.424 79.2942 109.392 79.2942 110.592C79.2942 111.744 79.6382 112.704 80.3262 113.472C81.0142 114.224 81.8942 114.6 82.9662 114.6C83.7502 114.6 84.3342 114.504 84.7182 114.312C84.8142 114.264 84.9422 114.184 85.1022 114.072C85.2782 113.944 85.4382 113.848 85.5822 113.784C85.7262 113.72 85.9022 113.688 86.1102 113.688C86.5102 113.688 86.8222 113.816 87.0462 114.072C87.2862 114.328 87.4062 114.656 87.4062 115.056C87.4062 115.44 87.1822 115.8 86.7342 116.136C86.2862 116.472 85.6942 116.744 84.9582 116.952C84.2222 117.144 83.4382 117.24 82.6062 117.24C81.3742 117.24 80.2862 116.952 79.3422 116.376C78.4142 115.8 77.6942 115.008 77.1822 114C76.6702 112.976 76.4142 111.84 76.4142 110.592C76.4142 109.296 76.6782 108.144 77.2062 107.136C77.7502 106.128 78.5022 105.344 79.4622 104.784C80.4222 104.208 81.5102 103.92 82.7262 103.92ZM103.166 102.696C103.166 103.576 102.942 104.344 102.494 105C102.046 105.64 101.366 106.096 100.454 106.368V111.72C100.454 113.448 99.9738 114.8 99.0138 115.776C98.0698 116.752 96.7178 117.24 94.9578 117.24C93.1978 117.24 91.8458 116.752 90.9018 115.776C89.9578 114.8 89.4858 113.448 89.4858 111.72V105.624C89.4858 105.208 89.6218 104.864 89.8938 104.592C90.1658 104.304 90.5098 104.16 90.9258 104.16C91.3418 104.16 91.6858 104.304 91.9578 104.592C92.2298 104.864 92.3658 105.208 92.3658 105.624V111.72C92.3658 112.696 92.5818 113.424 93.0138 113.904C93.4458 114.368 94.0938 114.6 94.9578 114.6C95.8378 114.6 96.4938 114.368 96.9258 113.904C97.3578 113.424 97.5738 112.696 97.5738 111.72V105.624C97.5738 105.256 97.6778 104.944 97.8858 104.688C98.0938 104.416 98.3738 104.248 98.7258 104.184C98.7898 104.168 98.8858 104.16 99.0138 104.16H99.1338C100.222 104.064 100.766 103.576 100.766 102.696C100.766 102.376 100.87 102.088 101.078 101.832C101.302 101.56 101.606 101.424 101.99 101.424C102.39 101.424 102.686 101.56 102.878 101.832C103.07 102.088 103.166 102.376 103.166 102.696ZM115.932 102.744C115.932 103.432 115.788 104.064 115.5 104.64C115.212 105.2 114.78 105.648 114.204 105.984C114.748 106.592 115.164 107.288 115.452 108.072C115.756 108.856 115.908 109.696 115.908 110.592C115.908 111.872 115.62 113.024 115.044 114.048C114.468 115.056 113.676 115.84 112.668 116.4C111.676 116.96 110.58 117.24 109.38 117.24C108.164 117.24 107.06 116.96 106.068 116.4C105.076 115.84 104.292 115.056 103.716 114.048C103.14 113.024 102.852 111.872 102.852 110.592C102.852 109.312 103.14 108.168 103.716 107.16C104.292 106.136 105.076 105.344 106.068 104.784C107.06 104.208 108.164 103.92 109.38 103.92C110.084 103.92 110.788 104.032 111.492 104.256V104.232C112.132 104.232 112.628 104.112 112.98 103.872C113.348 103.616 113.532 103.24 113.532 102.744C113.532 102.424 113.636 102.136 113.844 101.88C114.068 101.608 114.372 101.472 114.756 101.472C115.156 101.472 115.452 101.608 115.644 101.88C115.836 102.136 115.932 102.424 115.932 102.744ZM109.38 114.6C110.052 114.6 110.66 114.432 111.204 114.096C111.764 113.76 112.204 113.288 112.524 112.68C112.86 112.072 113.028 111.376 113.028 110.592C113.028 109.808 112.86 109.112 112.524 108.504C112.204 107.88 111.764 107.4 111.204 107.064C110.66 106.728 110.052 106.56 109.38 106.56C108.708 106.56 108.092 106.728 107.532 107.064C106.988 107.4 106.548 107.88 106.212 108.504C105.892 109.112 105.732 109.808 105.732 110.592C105.732 111.376 105.892 112.072 106.212 112.68C106.548 113.288 106.988 113.76 107.532 114.096C108.092 114.432 108.708 114.6 109.38 114.6ZM109.332 103.344C109.172 103.344 108.996 103.272 108.804 103.128C108.628 102.984 108.548 102.792 108.564 102.552C108.564 102.408 108.612 102.256 108.708 102.096L110.1 99.648C110.26 99.36 110.452 99.128 110.676 98.952C110.9 98.776 111.148 98.688 111.42 98.688C111.852 98.688 112.172 98.8 112.38 99.024C112.604 99.248 112.708 99.536 112.692 99.888C112.66 100.256 112.508 100.6 112.236 100.92L110.412 102.936C110.156 103.208 109.796 103.344 109.332 103.344ZM121.026 115.536C121.026 115.952 120.89 116.304 120.618 116.592C120.346 116.864 120.002 117 119.586 117C119.17 117 118.826 116.864 118.554 116.592C118.282 116.304 118.146 115.952 118.146 115.536V105.624C118.146 105.208 118.282 104.864 118.554 104.592C118.826 104.304 119.17 104.16 119.586 104.16C120.002 104.16 120.346 104.304 120.618 104.592C120.89 104.864 121.026 105.208 121.026 105.624V115.536ZM119.562 102.6C119.018 102.6 118.634 102.512 118.41 102.336C118.186 102.16 118.074 101.848 118.074 101.4V100.944C118.074 100.496 118.194 100.184 118.434 100.008C118.674 99.832 119.058 99.744 119.586 99.744C120.146 99.744 120.538 99.832 120.762 100.008C120.986 100.184 121.098 100.496 121.098 100.944V101.4C121.098 101.864 120.978 102.184 120.738 102.36C120.514 102.52 120.122 102.6 119.562 102.6Z" fill="white"/>
<rect x="19" y="10" width="160" height="160" rx="80" stroke="white" stroke-width="2"/>
</g>
<defs>
<filter id="filter0_d_1254_4344" x="0" y="0" width="198" height="198" filterUnits="userSpaceOnUse" color-interpolation-filters="sRGB">
<feFlood flood-opacity="0" result="BackgroundImageFix"/>
<feColorMatrix in="SourceAlpha" type="matrix" values="0 0 0 0 0 0 0 0 0 0 0 0 0 0 0 0 0 0 127 0" result="hardAlpha"/>
<feOffset dy="9"/>
<feGaussianBlur stdDeviation="9"/>
<feColorMatrix type="matrix" values="0 0 0 0 0 0 0 0 0 0 0 0 0 0 0 0 0 0 0.2 0"/>
<feBlend mode="normal" in2="BackgroundImageFix" result="effect1_dropShadow_1254_4344"/>
<feBlend mode="normal" in="SourceGraphic" in2="effect1_dropShadow_1254_4344" result="shape"/>
</filter>
</defs>
</svg>
