<svg width="198" height="198" viewBox="0 0 198 198" fill="none" xmlns="http://www.w3.org/2000/svg">
<g filter="url(#filter0_d_1254_4346)">
<rect x="19" y="10" width="160" height="160" rx="80" fill="#AA7878"/>
<path d="M54.3007 78.792C54.4927 79.048 54.5887 79.344 54.5887 79.68C54.5887 80.096 54.4367 80.44 54.1327 80.712C53.8287 80.984 53.5007 81.12 53.1487 81.12C52.6847 81.12 52.2927 80.912 51.9727 80.496L47.7007 74.808L43.5487 80.448C43.2287 80.896 42.8287 81.12 42.3487 81.12C41.9967 81.12 41.6927 80.992 41.4367 80.736C41.1807 80.48 41.0527 80.184 41.0527 79.848C41.0527 79.496 41.1727 79.168 41.4127 78.864L46.0447 72.6L41.4127 66.456C41.2047 66.2 41.1007 65.912 41.1007 65.592C41.1007 65.192 41.2527 64.848 41.5567 64.56C41.8607 64.272 42.1967 64.128 42.5647 64.128C43.0287 64.128 43.4207 64.336 43.7407 64.752L47.9647 70.368L52.0927 64.872C52.2527 64.648 52.4367 64.48 52.6447 64.368C52.8527 64.24 53.0607 64.176 53.2687 64.176C53.6207 64.176 53.9327 64.32 54.2047 64.608C54.4767 64.88 54.6127 65.184 54.6127 65.52C54.6127 65.824 54.5087 66.112 54.3007 66.384L49.6207 72.552L54.3007 78.792ZM68.4042 74.28C68.3882 74.664 68.2362 74.976 67.9482 75.216C67.6602 75.456 67.3242 75.576 66.9402 75.576H59.0202C59.2122 76.52 59.6522 77.264 60.3402 77.808C61.0282 78.336 61.8042 78.6 62.6682 78.6C63.3242 78.6 63.8362 78.544 64.2042 78.432C64.5722 78.304 64.8602 78.176 65.0682 78.048C65.2922 77.904 65.4442 77.808 65.5242 77.76C65.8122 77.616 66.0842 77.544 66.3402 77.544C66.6762 77.544 66.9642 77.664 67.2042 77.904C67.4442 78.144 67.5642 78.424 67.5642 78.744C67.5642 79.176 67.3402 79.568 66.8922 79.92C66.4442 80.288 65.8442 80.6 65.0922 80.856C64.3402 81.112 63.5802 81.24 62.8122 81.24C61.4682 81.24 60.2922 80.96 59.2842 80.4C58.2922 79.84 57.5242 79.072 56.9802 78.096C56.4362 77.104 56.1642 75.992 56.1642 74.76C56.1642 73.384 56.4522 72.176 57.0282 71.136C57.6042 70.096 58.3642 69.304 59.3082 68.76C60.2522 68.2 61.2602 67.92 62.3322 67.92C63.3882 67.92 64.3802 68.208 65.3082 68.784C66.2522 69.36 67.0042 70.136 67.5642 71.112C68.1242 72.088 68.4042 73.144 68.4042 74.28ZM62.3322 70.56C60.4762 70.56 59.3802 71.432 59.0442 73.176H65.3322V73.008C65.2682 72.336 64.9402 71.76 64.3482 71.28C63.7562 70.8 63.0842 70.56 62.3322 70.56ZM85.6141 67.92C87.1981 67.92 88.2941 68.408 88.9021 69.384C89.5101 70.344 89.8141 71.68 89.8141 73.392V79.536C89.8141 79.952 89.6781 80.304 89.4061 80.592C89.1341 80.864 88.7901 81 88.3741 81C87.9581 81 87.6141 80.864 87.3421 80.592C87.0701 80.304 86.9341 79.952 86.9341 79.536V73.392C86.9341 72.512 86.7581 71.824 86.4061 71.328C86.0701 70.816 85.4701 70.56 84.6061 70.56C83.7101 70.56 83.0061 70.832 82.4941 71.376C81.9981 71.904 81.7501 72.576 81.7501 73.392V79.536C81.7501 79.952 81.6141 80.304 81.3421 80.592C81.0701 80.864 80.7261 81 80.3101 81C79.8941 81 79.5501 80.864 79.2781 80.592C79.0061 80.304 78.8701 79.952 78.8701 79.536V73.392C78.8701 72.512 78.6941 71.824 78.3421 71.328C78.0061 70.816 77.4061 70.56 76.5421 70.56C75.6461 70.56 74.9421 70.832 74.4301 71.376C73.9341 71.904 73.6861 72.576 73.6861 73.392V79.536C73.6861 79.952 73.5501 80.304 73.2781 80.592C73.0061 80.864 72.6621 81 72.2461 81C71.8301 81 71.4861 80.864 71.2141 80.592C70.9421 80.304 70.8061 79.952 70.8061 79.536V69.624C70.8061 69.208 70.9421 68.864 71.2141 68.592C71.4861 68.304 71.8301 68.16 72.2461 68.16C72.6621 68.16 73.0061 68.304 73.2781 68.592C73.5501 68.864 73.6861 69.208 73.6861 69.624V70.008C74.1181 69.432 74.6621 68.944 75.3181 68.544C75.9901 68.128 76.7341 67.92 77.5501 67.92C79.5661 67.92 80.8541 68.8 81.4141 70.56C81.7821 69.888 82.3341 69.28 83.0701 68.736C83.8221 68.192 84.6701 67.92 85.6141 67.92ZM105.85 78.288C106.074 78.288 106.274 78.4 106.45 78.624C106.642 78.832 106.738 79.112 106.738 79.464C106.738 79.896 106.498 80.264 106.018 80.568C105.554 80.856 105.026 81 104.434 81C103.442 81 102.602 80.792 101.914 80.376C101.242 79.944 100.906 79.04 100.906 77.664V71.04H99.8017C99.4177 71.04 99.0977 70.912 98.8417 70.656C98.5857 70.4 98.4577 70.08 98.4577 69.696C98.4577 69.328 98.5857 69.024 98.8417 68.784C99.0977 68.528 99.4177 68.4 99.8017 68.4H100.906V66.864C100.906 66.448 101.042 66.104 101.314 65.832C101.602 65.544 101.954 65.4 102.37 65.4C102.77 65.4 103.106 65.544 103.378 65.832C103.65 66.104 103.786 66.448 103.786 66.864V68.4H105.49C105.874 68.4 106.194 68.528 106.45 68.784C106.706 69.04 106.834 69.36 106.834 69.744C106.834 70.112 106.706 70.424 106.45 70.68C106.194 70.92 105.874 71.04 105.49 71.04H103.786V77.544C103.786 77.88 103.874 78.128 104.05 78.288C104.226 78.432 104.466 78.504 104.77 78.504C104.898 78.504 105.074 78.472 105.298 78.408C105.49 78.328 105.674 78.288 105.85 78.288ZM116.222 67.92C117.806 67.92 118.902 68.408 119.51 69.384C120.118 70.344 120.422 71.68 120.422 73.392V79.536C120.422 79.952 120.286 80.304 120.014 80.592C119.742 80.864 119.398 81 118.982 81C118.566 81 118.222 80.864 117.95 80.592C117.678 80.304 117.542 79.952 117.542 79.536V73.392C117.542 72.512 117.366 71.824 117.014 71.328C116.678 70.816 116.078 70.56 115.214 70.56C114.318 70.56 113.614 70.832 113.102 71.376C112.606 71.904 112.358 72.576 112.358 73.392V79.536C112.358 79.952 112.222 80.304 111.95 80.592C111.678 80.864 111.334 81 110.918 81C110.502 81 110.158 80.864 109.886 80.592C109.614 80.304 109.478 79.952 109.478 79.536V64.704C109.478 64.288 109.614 63.944 109.886 63.672C110.158 63.384 110.502 63.24 110.918 63.24C111.334 63.24 111.678 63.384 111.95 63.672C112.222 63.944 112.358 64.288 112.358 64.704V70.008C112.79 69.432 113.334 68.944 113.99 68.544C114.662 68.128 115.406 67.92 116.222 67.92ZM135.06 74.28C135.044 74.664 134.892 74.976 134.604 75.216C134.316 75.456 133.98 75.576 133.596 75.576H125.676C125.868 76.52 126.308 77.264 126.996 77.808C127.684 78.336 128.46 78.6 129.324 78.6C129.98 78.6 130.492 78.544 130.86 78.432C131.228 78.304 131.516 78.176 131.724 78.048C131.948 77.904 132.1 77.808 132.18 77.76C132.468 77.616 132.74 77.544 132.996 77.544C133.332 77.544 133.62 77.664 133.86 77.904C134.1 78.144 134.22 78.424 134.22 78.744C134.22 79.176 133.996 79.568 133.548 79.92C133.1 80.288 132.5 80.6 131.748 80.856C130.996 81.112 130.236 81.24 129.468 81.24C128.124 81.24 126.948 80.96 125.94 80.4C124.948 79.84 124.18 79.072 123.636 78.096C123.092 77.104 122.82 75.992 122.82 74.76C122.82 73.384 123.108 72.176 123.684 71.136C124.26 70.096 125.02 69.304 125.964 68.76C126.908 68.2 127.916 67.92 128.988 67.92C130.044 67.92 131.036 68.208 131.964 68.784C132.908 69.36 133.66 70.136 134.22 71.112C134.78 72.088 135.06 73.144 135.06 74.28ZM128.988 70.56C127.132 70.56 126.036 71.432 125.7 73.176H131.988V73.008C131.924 72.336 131.596 71.76 131.004 71.28C130.412 70.8 129.74 70.56 128.988 70.56ZM131.82 65.28C131.948 65.44 132.028 65.568 132.06 65.664C132.092 65.76 132.108 65.88 132.108 66.024C132.108 66.184 132.036 66.328 131.892 66.456C131.764 66.568 131.596 66.624 131.388 66.624C131.148 66.624 130.964 66.592 130.836 66.528C130.724 66.464 130.604 66.384 130.476 66.288C130.364 66.176 130.276 66.096 130.212 66.048L128.94 64.92L127.572 66.048C127.508 66.096 127.404 66.184 127.26 66.312C127.132 66.424 127.004 66.504 126.876 66.552C126.748 66.6 126.588 66.624 126.396 66.624C126.188 66.624 126.012 66.568 125.868 66.456C125.74 66.328 125.676 66.184 125.676 66.024C125.676 65.88 125.692 65.76 125.724 65.664C125.756 65.568 125.836 65.44 125.964 65.28L127.14 63.792C127.508 63.328 127.996 63.096 128.604 63.096H129.468C129.788 63.096 130.036 63.144 130.212 63.24C130.404 63.336 130.588 63.52 130.764 63.792L131.82 65.28ZM152.27 67.92C153.854 67.92 154.95 68.408 155.558 69.384C156.166 70.344 156.47 71.68 156.47 73.392V79.536C156.47 79.952 156.334 80.304 156.062 80.592C155.79 80.864 155.446 81 155.03 81C154.614 81 154.27 80.864 153.998 80.592C153.726 80.304 153.59 79.952 153.59 79.536V73.392C153.59 72.512 153.414 71.824 153.062 71.328C152.726 70.816 152.126 70.56 151.262 70.56C150.366 70.56 149.662 70.832 149.15 71.376C148.654 71.904 148.406 72.576 148.406 73.392V79.536C148.406 79.952 148.27 80.304 147.998 80.592C147.726 80.864 147.382 81 146.966 81C146.55 81 146.206 80.864 145.934 80.592C145.662 80.304 145.526 79.952 145.526 79.536V73.392C145.526 72.512 145.35 71.824 144.998 71.328C144.662 70.816 144.062 70.56 143.198 70.56C142.302 70.56 141.598 70.832 141.086 71.376C140.59 71.904 140.342 72.576 140.342 73.392V79.536C140.342 79.952 140.206 80.304 139.934 80.592C139.662 80.864 139.318 81 138.902 81C138.486 81 138.142 80.864 137.87 80.592C137.598 80.304 137.462 79.952 137.462 79.536V69.624C137.462 69.208 137.598 68.864 137.87 68.592C138.142 68.304 138.486 68.16 138.902 68.16C139.318 68.16 139.662 68.304 139.934 68.592C140.206 68.864 140.342 69.208 140.342 69.624V70.008C140.774 69.432 141.318 68.944 141.974 68.544C142.646 68.128 143.39 67.92 144.206 67.92C146.222 67.92 147.51 68.8 148.07 70.56C148.438 69.888 148.99 69.28 149.726 68.736C150.478 68.192 151.326 67.92 152.27 67.92ZM57.325 103.92C58.909 103.92 60.005 104.408 60.613 105.384C61.221 106.344 61.525 107.68 61.525 109.392V115.536C61.525 115.952 61.389 116.304 61.117 116.592C60.845 116.864 60.501 117 60.085 117C59.669 117 59.325 116.864 59.053 116.592C58.781 116.304 58.645 115.952 58.645 115.536V109.392C58.645 108.512 58.469 107.824 58.117 107.328C57.781 106.816 57.181 106.56 56.317 106.56C55.421 106.56 54.717 106.832 54.205 107.376C53.709 107.904 53.461 108.576 53.461 109.392V115.536C53.461 115.952 53.325 116.304 53.053 116.592C52.781 116.864 52.437 117 52.021 117C51.605 117 51.261 116.864 50.989 116.592C50.717 116.304 50.581 115.952 50.581 115.536V109.392C50.581 108.512 50.405 107.824 50.053 107.328C49.717 106.816 49.117 106.56 48.253 106.56C47.357 106.56 46.653 106.832 46.141 107.376C45.645 107.904 45.397 108.576 45.397 109.392V115.536C45.397 115.952 45.261 116.304 44.989 116.592C44.717 116.864 44.373 117 43.957 117C43.541 117 43.197 116.864 42.925 116.592C42.653 116.304 42.517 115.952 42.517 115.536V105.624C42.517 105.208 42.653 104.864 42.925 104.592C43.197 104.304 43.541 104.16 43.957 104.16C44.373 104.16 44.717 104.304 44.989 104.592C45.261 104.864 45.397 105.208 45.397 105.624V106.008C45.829 105.432 46.373 104.944 47.029 104.544C47.701 104.128 48.445 103.92 49.261 103.92C51.277 103.92 52.565 104.8 53.125 106.56C53.493 105.888 54.045 105.28 54.781 104.736C55.533 104.192 56.381 103.92 57.325 103.92ZM75.034 103.92C75.45 103.92 75.794 104.056 76.066 104.328C76.338 104.6 76.474 104.952 76.474 105.384V115.536C76.474 115.952 76.338 116.304 76.066 116.592C75.794 116.864 75.45 117 75.034 117C74.618 117 74.274 116.864 74.002 116.592C73.746 116.32 73.61 115.976 73.594 115.56C73.194 116.024 72.65 116.424 71.962 116.76C71.29 117.08 70.578 117.24 69.826 117.24C68.722 117.24 67.722 116.96 66.826 116.4C65.93 115.824 65.218 115.032 64.69 114.024C64.178 113.016 63.922 111.872 63.922 110.592C63.922 109.312 64.178 108.168 64.69 107.16C65.202 106.136 65.898 105.344 66.778 104.784C67.674 104.208 68.658 103.92 69.73 103.92C70.498 103.92 71.218 104.064 71.89 104.352C72.562 104.624 73.13 104.976 73.594 105.408V105.384C73.594 104.968 73.73 104.624 74.002 104.352C74.274 104.064 74.618 103.92 75.034 103.92ZM70.186 114.6C71.226 114.6 72.074 114.224 72.73 113.472C73.386 112.704 73.714 111.744 73.714 110.592C73.714 109.44 73.386 108.48 72.73 107.712C72.074 106.944 71.226 106.56 70.186 106.56C69.162 106.56 68.322 106.944 67.666 107.712C67.01 108.48 66.682 109.44 66.682 110.592C66.682 111.744 67.002 112.704 67.642 113.472C68.298 114.224 69.146 114.6 70.186 114.6ZM73.138 102.12C73.266 102.28 73.346 102.408 73.378 102.504C73.41 102.6 73.426 102.72 73.426 102.864C73.426 103.024 73.354 103.168 73.21 103.296C73.082 103.408 72.914 103.464 72.706 103.464C72.466 103.464 72.282 103.432 72.154 103.368C72.042 103.304 71.922 103.224 71.794 103.128C71.682 103.016 71.594 102.936 71.53 102.888L70.258 101.76L68.89 102.888C68.826 102.936 68.722 103.024 68.578 103.152C68.45 103.264 68.322 103.344 68.194 103.392C68.066 103.44 67.906 103.464 67.714 103.464C67.506 103.464 67.33 103.408 67.186 103.296C67.058 103.168 66.994 103.024 66.994 102.864C66.994 102.72 67.01 102.6 67.042 102.504C67.074 102.408 67.154 102.28 67.282 102.12L68.458 100.632C68.826 100.168 69.314 99.936 69.922 99.936H70.786C71.106 99.936 71.354 99.984 71.53 100.08C71.722 100.176 71.906 100.36 72.082 100.632L73.138 102.12ZM67.162 99.576C66.794 99.576 66.482 99.432 66.226 99.144C65.97 98.84 65.842 98.44 65.842 97.944C65.842 97.384 66.098 96.896 66.61 96.48C67.122 96.048 67.85 95.832 68.794 95.832C69.21 95.832 69.586 95.92 69.922 96.096C70.274 96.256 70.674 96.488 71.122 96.792C71.394 97 71.618 97.152 71.794 97.248C71.986 97.344 72.162 97.392 72.322 97.392C72.498 97.392 72.634 97.344 72.73 97.248C72.826 97.152 72.85 97.032 72.802 96.888C72.77 96.808 72.754 96.696 72.754 96.552C72.754 96.296 72.834 96.096 72.994 95.952C73.17 95.792 73.386 95.712 73.642 95.712C74.01 95.712 74.322 95.856 74.578 96.144C74.834 96.432 74.962 96.816 74.962 97.296C74.962 97.6 74.866 97.92 74.674 98.256C74.482 98.592 74.178 98.88 73.762 99.12C73.362 99.344 72.85 99.456 72.226 99.456C71.906 99.456 71.57 99.376 71.218 99.216C70.866 99.056 70.45 98.832 69.97 98.544C69.586 98.32 69.282 98.16 69.058 98.064C68.85 97.952 68.658 97.896 68.482 97.896C68.306 97.896 68.17 97.944 68.074 98.04C67.978 98.136 67.954 98.256 68.002 98.4C68.034 98.48 68.05 98.592 68.05 98.736C68.05 98.992 67.962 99.2 67.786 99.36C67.626 99.504 67.418 99.576 67.162 99.576ZM88.8888 104.16C89.3048 104.16 89.6488 104.304 89.9208 104.592C90.1928 104.864 90.3288 105.208 90.3288 105.624V111.72C90.3288 113.448 89.8488 114.8 88.8888 115.776C87.9448 116.752 86.5928 117.24 84.8328 117.24C83.0728 117.24 81.7208 116.752 80.7768 115.776C79.8328 114.8 79.3608 113.448 79.3608 111.72V105.624C79.3608 105.208 79.4968 104.864 79.7688 104.592C80.0408 104.304 80.3848 104.16 80.8008 104.16C81.2168 104.16 81.5608 104.304 81.8328 104.592C82.1048 104.864 82.2408 105.208 82.2408 105.624V111.72C82.2408 112.696 82.4568 113.424 82.8888 113.904C83.3208 114.368 83.9688 114.6 84.8328 114.6C85.7128 114.6 86.3688 114.368 86.8008 113.904C87.2328 113.424 87.4488 112.696 87.4488 111.72V105.624C87.4488 105.208 87.5848 104.864 87.8568 104.592C88.1288 104.304 88.4728 104.16 88.8888 104.16ZM106.365 114.288C106.589 114.288 106.789 114.4 106.965 114.624C107.157 114.832 107.253 115.112 107.253 115.464C107.253 115.896 107.013 116.264 106.533 116.568C106.069 116.856 105.541 117 104.949 117C103.957 117 103.117 116.792 102.429 116.376C101.757 115.944 101.421 115.04 101.421 113.664V107.04H100.317C99.9333 107.04 99.6133 106.912 99.3573 106.656C99.1013 106.4 98.9733 106.08 98.9733 105.696C98.9733 105.328 99.1013 105.024 99.3573 104.784C99.6133 104.528 99.9333 104.4 100.317 104.4H101.421V102.864C101.421 102.448 101.557 102.104 101.829 101.832C102.117 101.544 102.469 101.4 102.885 101.4C103.285 101.4 103.621 101.544 103.893 101.832C104.165 102.104 104.301 102.448 104.301 102.864V104.4H106.005C106.389 104.4 106.709 104.528 106.965 104.784C107.221 105.04 107.349 105.36 107.349 105.744C107.349 106.112 107.221 106.424 106.965 106.68C106.709 106.92 106.389 107.04 106.005 107.04H104.301V113.544C104.301 113.88 104.389 114.128 104.565 114.288C104.741 114.432 104.981 114.504 105.285 114.504C105.413 114.504 105.589 114.472 105.813 114.408C106.005 114.328 106.189 114.288 106.365 114.288ZM116.738 103.92C118.322 103.92 119.418 104.408 120.026 105.384C120.634 106.344 120.938 107.68 120.938 109.392V115.536C120.938 115.952 120.802 116.304 120.53 116.592C120.258 116.864 119.914 117 119.498 117C119.082 117 118.738 116.864 118.466 116.592C118.194 116.304 118.058 115.952 118.058 115.536V109.392C118.058 108.512 117.882 107.824 117.53 107.328C117.194 106.816 116.594 106.56 115.73 106.56C114.834 106.56 114.13 106.832 113.618 107.376C113.122 107.904 112.874 108.576 112.874 109.392V115.536C112.874 115.952 112.738 116.304 112.466 116.592C112.194 116.864 111.85 117 111.434 117C111.018 117 110.674 116.864 110.402 116.592C110.13 116.304 109.994 115.952 109.994 115.536V100.704C109.994 100.288 110.13 99.944 110.402 99.672C110.674 99.384 111.018 99.24 111.434 99.24C111.85 99.24 112.194 99.384 112.466 99.672C112.738 99.944 112.874 100.288 112.874 100.704V106.008C113.306 105.432 113.85 104.944 114.506 104.544C115.178 104.128 115.922 103.92 116.738 103.92ZM126.768 115.536C126.768 115.952 126.632 116.304 126.36 116.592C126.088 116.864 125.744 117 125.328 117C124.912 117 124.568 116.864 124.296 116.592C124.024 116.304 123.888 115.952 123.888 115.536V105.624C123.888 105.208 124.024 104.864 124.296 104.592C124.568 104.304 124.912 104.16 125.328 104.16C125.744 104.16 126.088 104.304 126.36 104.592C126.632 104.864 126.768 105.208 126.768 105.624V115.536ZM125.304 102.6C124.76 102.6 124.376 102.512 124.152 102.336C123.928 102.16 123.816 101.848 123.816 101.4V100.944C123.816 100.496 123.936 100.184 124.176 100.008C124.416 99.832 124.8 99.744 125.328 99.744C125.888 99.744 126.28 99.832 126.504 100.008C126.728 100.184 126.84 100.496 126.84 100.944V101.4C126.84 101.864 126.72 102.184 126.48 102.36C126.256 102.52 125.864 102.6 125.304 102.6ZM141.248 110.28C141.232 110.664 141.08 110.976 140.792 111.216C140.504 111.456 140.168 111.576 139.784 111.576H131.864C132.056 112.52 132.496 113.264 133.184 113.808C133.872 114.336 134.648 114.6 135.512 114.6C136.168 114.6 136.68 114.544 137.048 114.432C137.416 114.304 137.704 114.176 137.912 114.048C138.136 113.904 138.288 113.808 138.368 113.76C138.656 113.616 138.928 113.544 139.184 113.544C139.52 113.544 139.808 113.664 140.048 113.904C140.288 114.144 140.408 114.424 140.408 114.744C140.408 115.176 140.184 115.568 139.736 115.92C139.288 116.288 138.688 116.6 137.936 116.856C137.184 117.112 136.424 117.24 135.656 117.24C134.312 117.24 133.136 116.96 132.128 116.4C131.136 115.84 130.368 115.072 129.824 114.096C129.28 113.104 129.008 111.992 129.008 110.76C129.008 109.384 129.296 108.176 129.872 107.136C130.448 106.096 131.208 105.304 132.152 104.76C133.096 104.2 134.104 103.92 135.176 103.92C136.232 103.92 137.224 104.208 138.152 104.784C139.096 105.36 139.848 106.136 140.408 107.112C140.968 108.088 141.248 109.144 141.248 110.28ZM135.176 106.56C133.32 106.56 132.224 107.432 131.888 109.176H138.176V109.008C138.112 108.336 137.784 107.76 137.192 107.28C136.6 106.8 135.928 106.56 135.176 106.56ZM135.08 120.84C134.552 120.84 134.176 120.752 133.952 120.576C133.728 120.4 133.616 120.088 133.616 119.64V119.184C133.616 118.736 133.736 118.424 133.976 118.248C134.216 118.072 134.584 117.984 135.08 117.984C135.672 117.984 136.08 118.072 136.304 118.248C136.528 118.424 136.64 118.736 136.64 119.184V119.64C136.64 120.104 136.52 120.416 136.28 120.576C136.04 120.752 135.64 120.84 135.08 120.84ZM138.008 101.28C138.136 101.44 138.216 101.568 138.248 101.664C138.28 101.76 138.296 101.88 138.296 102.024C138.296 102.184 138.224 102.328 138.08 102.456C137.952 102.568 137.784 102.624 137.576 102.624C137.336 102.624 137.152 102.592 137.024 102.528C136.912 102.464 136.792 102.384 136.664 102.288C136.552 102.176 136.464 102.096 136.4 102.048L135.128 100.92L133.76 102.048C133.696 102.096 133.592 102.184 133.448 102.312C133.32 102.424 133.192 102.504 133.064 102.552C132.936 102.6 132.776 102.624 132.584 102.624C132.376 102.624 132.2 102.568 132.056 102.456C131.928 102.328 131.864 102.184 131.864 102.024C131.864 101.88 131.88 101.76 131.912 101.664C131.944 101.568 132.024 101.44 132.152 101.28L133.328 99.792C133.696 99.328 134.184 99.096 134.792 99.096H135.656C135.976 99.096 136.224 99.144 136.4 99.24C136.592 99.336 136.776 99.52 136.952 99.792L138.008 101.28ZM150.298 103.92C151.402 103.92 152.402 104.208 153.298 104.784C154.194 105.344 154.898 106.128 155.41 107.136C155.938 108.144 156.202 109.288 156.202 110.568C156.202 111.848 155.946 113 155.434 114.024C154.922 115.032 154.218 115.824 153.322 116.4C152.442 116.96 151.466 117.24 150.394 117.24C149.626 117.24 148.898 117.088 148.21 116.784C147.538 116.464 146.978 116.08 146.53 115.632V120.336C146.53 120.752 146.394 121.096 146.122 121.368C145.85 121.656 145.506 121.8 145.09 121.8C144.674 121.8 144.33 121.664 144.058 121.392C143.786 121.12 143.65 120.768 143.65 120.336V105.624C143.65 105.208 143.786 104.864 144.058 104.592C144.33 104.304 144.674 104.16 145.09 104.16C145.506 104.16 145.85 104.304 146.122 104.592C146.394 104.864 146.53 105.208 146.53 105.624V105.72C146.914 105.24 147.45 104.824 148.138 104.472C148.826 104.104 149.546 103.92 150.298 103.92ZM149.938 114.6C150.962 114.6 151.802 114.216 152.458 113.448C153.114 112.68 153.442 111.72 153.442 110.568C153.442 109.416 153.114 108.464 152.458 107.712C151.818 106.944 150.978 106.56 149.938 106.56C148.898 106.56 148.05 106.944 147.394 107.712C146.738 108.464 146.41 109.416 146.41 110.568C146.41 111.72 146.738 112.68 147.394 113.448C148.05 114.216 148.898 114.6 149.938 114.6Z" fill="white"/>
<rect x="19" y="10" width="160" height="160" rx="80" stroke="white" stroke-width="2"/>
</g>
<defs>
<filter id="filter0_d_1254_4346" x="0" y="0" width="198" height="198" filterUnits="userSpaceOnUse" color-interpolation-filters="sRGB">
<feFlood flood-opacity="0" result="BackgroundImageFix"/>
<feColorMatrix in="SourceAlpha" type="matrix" values="0 0 0 0 0 0 0 0 0 0 0 0 0 0 0 0 0 0 127 0" result="hardAlpha"/>
<feOffset dy="9"/>
<feGaussianBlur stdDeviation="9"/>
<feColorMatrix type="matrix" values="0 0 0 0 0 0 0 0 0 0 0 0 0 0 0 0 0 0 0.2 0"/>
<feBlend mode="normal" in2="BackgroundImageFix" result="effect1_dropShadow_1254_4346"/>
<feBlend mode="normal" in="SourceGraphic" in2="effect1_dropShadow_1254_4346" result="shape"/>
</filter>
</defs>
</svg>
