<svg width="48" height="48" viewBox="0 0 48 48" fill="none" xmlns="http://www.w3.org/2000/svg">
<path d="M24 5.25C13.6613 5.25 5.25 13.6613 5.25 24C5.25 34.3387 13.6613 42.75 24 42.75C34.3387 42.75 42.75 34.3387 42.75 24C42.75 13.6613 34.3387 5.25 24 5.25ZM24 12.9375C24.4821 12.9375 24.9534 13.0805 25.3542 13.3483C25.755 13.6161 26.0675 13.9968 26.252 14.4422C26.4364 14.8876 26.4847 15.3777 26.3907 15.8505C26.2966 16.3234 26.0645 16.7577 25.7236 17.0986C25.3827 17.4395 24.9484 17.6716 24.4755 17.7657C24.0027 17.8597 23.5126 17.8114 23.0672 17.627C22.6218 17.4425 22.2411 17.13 21.9733 16.7292C21.7055 16.3284 21.5625 15.8571 21.5625 15.375C21.5625 14.7285 21.8193 14.1085 22.2764 13.6514C22.7335 13.1943 23.3535 12.9375 24 12.9375V12.9375ZM28.5 34.125H20.25C19.8522 34.125 19.4706 33.967 19.1893 33.6857C18.908 33.4044 18.75 33.0228 18.75 32.625C18.75 32.2272 18.908 31.8456 19.1893 31.5643C19.4706 31.283 19.8522 31.125 20.25 31.125H22.875V22.875H21.375C20.9772 22.875 20.5956 22.717 20.3143 22.4357C20.033 22.1544 19.875 21.7728 19.875 21.375C19.875 20.9772 20.033 20.5956 20.3143 20.3143C20.5956 20.033 20.9772 19.875 21.375 19.875H24.375C24.7728 19.875 25.1544 20.033 25.4357 20.3143C25.717 20.5956 25.875 20.9772 25.875 21.375V31.125H28.5C28.8978 31.125 29.2794 31.283 29.5607 31.5643C29.842 31.8456 30 32.2272 30 32.625C30 33.0228 29.842 33.4044 29.5607 33.6857C29.2794 33.967 28.8978 34.125 28.5 34.125Z" fill="url(#paint0_linear_921_4139)"/>
<defs>
<linearGradient id="paint0_linear_921_4139" x1="5.25" y1="23.9999" x2="42.75" y2="23.9999" gradientUnits="userSpaceOnUse">
<stop stop-color="#8E5757"/>
<stop offset="1" stop-color="#B77C7C"/>
</linearGradient>
</defs>
</svg>
