<svg width="1142" height="264" viewBox="0 0 1142 264" fill="none" xmlns="http://www.w3.org/2000/svg">
<path d="M356.88 263.31C351.93 263.31 347.77 261.46 344.16 257.64C340.45 253.72 338.65 249.16 338.65 243.68V130.56C338.65 125.09 340.45 120.52 344.16 116.6C347.77 112.79 351.94 110.93 356.88 110.93H437.2C437.23 110.98 437.27 111.07 437.27 111.2V122.75C437.27 122.88 437.24 122.97 437.2 123.02H371.88C367.94 123.02 364.58 124.46 361.89 127.31C359.29 130.05 357.97 133.43 357.97 137.34V236.89C357.97 240.8 359.29 244.18 361.89 246.92C364.58 249.76 367.94 251.21 371.88 251.21H437.2C437.23 251.26 437.27 251.35 437.27 251.48V263.03C437.27 263.16 437.24 263.25 437.2 263.3H356.88V263.31Z" fill="#D49696"/>
<path d="M475.801 263.309C470.851 263.309 466.691 261.459 463.081 257.639C459.371 253.719 457.561 249.159 457.561 243.679V111.209C457.561 111.079 457.591 110.989 457.631 110.939H476.831C476.861 110.989 476.901 111.079 476.901 111.209V236.899C476.901 240.809 478.221 244.189 480.821 246.929C483.511 249.769 486.871 251.219 490.811 251.219H522.961C526.901 251.219 530.261 249.779 532.951 246.929C535.551 244.189 536.871 240.809 536.871 236.899V111.209C536.871 111.079 536.901 110.989 536.941 110.939H556.141C556.171 110.989 556.211 111.079 556.211 111.209V243.679C556.211 249.149 554.411 253.719 550.701 257.639C547.091 261.449 542.931 263.309 537.981 263.309H475.801Z" fill="#D49696"/>
<path d="M594.72 263.31C589.77 263.31 585.61 261.46 582 257.64C578.29 253.72 576.49 249.16 576.49 243.68V130.56C576.49 125.09 578.29 120.52 582 116.6C585.61 112.79 589.78 110.93 594.72 110.93H656.87C661.81 110.93 665.98 112.78 669.59 116.6C673.3 120.52 675.1 125.08 675.1 130.56V243.68C675.1 249.15 673.3 253.72 669.59 257.64C665.98 261.45 661.82 263.31 656.87 263.31H594.72ZM609.73 123.04C605.79 123.04 602.43 124.48 599.74 127.33C597.14 130.07 595.82 133.45 595.82 137.36V236.91C595.82 240.82 597.14 244.2 599.74 246.94C602.43 249.78 605.79 251.23 609.73 251.23H641.88C645.82 251.23 649.18 249.79 651.87 246.94C654.47 244.2 655.79 240.82 655.79 236.91V137.36C655.79 133.45 654.47 130.08 651.87 127.34C649.17 124.49 645.81 123.05 641.87 123.05H609.73V123.04Z" fill="#D49696"/>
<path d="M695.48 263.309C695.45 263.259 695.41 263.169 695.41 263.039V111.209C695.41 111.079 695.44 110.989 695.48 110.939H714.68C714.71 110.989 714.75 111.079 714.75 111.209V263.029C714.75 263.159 714.72 263.249 714.68 263.299H695.48V263.309Z" fill="#D49696"/>
<path d="M804.98 263.309C804.95 263.259 804.91 263.169 804.91 263.039V129.309C804.91 125.849 802.09 123.039 798.61 123.039H765.32C765.29 122.989 765.25 122.889 765.25 122.769V111.219C765.25 111.089 765.28 110.999 765.32 110.949H863.82C863.85 110.999 863.89 111.089 863.89 111.219V122.769C863.89 122.899 863.86 122.989 863.82 123.039H830.53C827.06 123.039 824.23 125.849 824.23 129.309V263.029C824.23 263.159 824.2 263.249 824.16 263.299H804.98V263.309Z" fill="#D49696"/>
<path d="M963.55 263.309C963.52 263.259 963.48 263.169 963.48 263.039V199.449C963.48 195.989 960.66 193.179 957.18 193.179H909.8C906.33 193.179 903.5 195.989 903.5 199.449V263.039C903.5 263.169 903.47 263.259 903.43 263.309H884.23C884.2 263.259 884.16 263.169 884.16 263.039V111.209C884.16 111.079 884.19 110.989 884.23 110.939H903.43C903.46 110.989 903.5 111.079 903.5 111.209V174.799C903.5 178.259 906.32 181.069 909.8 181.069H957.18C960.65 181.069 963.48 178.259 963.48 174.799V111.209C963.48 111.079 963.51 110.989 963.55 110.939H982.75C982.78 110.989 982.82 111.079 982.82 111.209V263.029C982.82 263.159 982.79 263.249 982.75 263.299H963.55V263.309Z" fill="#D49696"/>
<path d="M1021.35 263.31C1016.4 263.31 1012.24 261.46 1008.63 257.64C1004.92 253.72 1003.11 249.16 1003.11 243.68V130.56C1003.11 125.09 1004.91 120.52 1008.62 116.6C1012.23 112.79 1016.4 110.93 1021.34 110.93H1083.49C1088.43 110.93 1092.6 112.78 1096.21 116.6C1099.92 120.52 1101.72 125.09 1101.72 130.56V243.68C1101.72 249.15 1099.92 253.72 1096.2 257.64C1092.59 261.45 1088.43 263.31 1083.48 263.31H1021.35ZM1036.35 123.04C1032.41 123.04 1029.05 124.48 1026.36 127.33C1023.76 130.07 1022.44 133.45 1022.44 137.36V236.91C1022.44 240.82 1023.76 244.2 1026.36 246.94C1029.05 249.78 1032.41 251.23 1036.35 251.23H1068.5C1072.44 251.23 1075.8 249.79 1078.49 246.94C1081.09 244.2 1082.41 240.82 1082.41 236.91V137.36C1082.41 133.45 1081.09 130.08 1078.49 127.34C1075.79 124.49 1072.43 123.05 1068.49 123.05H1036.35V123.04Z" fill="#D49696"/>
<path d="M1122.1 263.309C1122.07 263.259 1122.03 263.169 1122.03 263.039V111.209C1122.03 111.079 1122.06 110.989 1122.1 110.939H1141.3C1141.33 110.989 1141.37 111.079 1141.37 111.209V263.029C1141.37 263.159 1141.34 263.249 1141.3 263.299H1122.1V263.309Z" fill="#D49696"/>
<path d="M312.36 229.51C312.36 248.52 297.73 263.98 279.75 263.98H32.5603C32.5603 263.98 31.9603 263.98 30.4803 263.98C29.0903 263.98 25.9103 263.24 25.5203 263.15L25.4803 263.14C10.9303 259.68 0.0302734 245.92 0.0302734 229.51V107.85C0.0302734 99.3601 5.33027 92.0901 13.2103 89.7701C20.8003 87.5301 28.8503 90.5901 33.2403 97.3901C64.9403 146.5 105.77 168.16 155.66 190.23H155.75C159.83 188 163.85 185.83 167.83 183.67C209.77 160.97 245.99 141.36 274.44 102.3C292.42 77.6201 288.92 53.3901 266.63 34.1101C256.73 25.5501 244.13 21.2001 229.19 21.2001C168.07 21.2001 166.36 102.36 166.36 103.29C166.36 108.91 161.81 113.46 156.19 113.46C150.58 113.46 146.03 108.91 146.03 103.29C146.03 97.9001 143.95 84.5401 133.8 61.1801C122.26 34.6501 105.24 21.2001 83.2003 21.2001C58.5903 21.2001 33.1203 41.9701 27.3903 66.6301C26.2603 71.5001 21.9803 75.1701 16.9903 74.9301C10.4803 74.6201 6.11028 68.6001 7.47028 62.5401C15.1003 28.5401 49.0703 0.870117 83.2003 0.870117C113.65 0.870117 137.59 18.9201 152.44 53.0701C153.54 55.6101 154.56 58.1601 155.5 60.7001C155.54 60.7901 155.66 60.7901 155.69 60.7001C156.27 59.0201 156.89 57.3401 157.55 55.6601C171.57 19.8201 196.35 0.870117 229.19 0.870117C249.16 0.870117 266.23 6.88012 279.93 18.7301C310.02 44.7601 314.93 81.2601 290.88 114.27C259.71 157.05 221.62 177.67 177.51 201.55C172.16 204.45 166.71 207.4 161.18 210.44C158.36 211.99 154.97 212.14 152.02 210.85C100.94 188.45 55.6303 165.59 20.5403 114.98C20.4903 114.9 20.3603 114.93 20.3603 115.03V229.51C20.3603 237.31 25.8703 243.65 32.6403 243.65H279.75C286.52 243.65 292.03 237.31 292.03 229.51V132.07C292.03 131.14 292.39 130.24 293.03 129.56C297.63 124.69 297.92 124.14 300.91 119.82C303.7 115.8 305.74 112.08 307.38 108.21C308.3 106.04 311.53 106.65 311.54 109.02L312.36 229.51Z" fill="#D49696"/>
</svg>
