<svg width="191" height="54" viewBox="0 0 191 54" fill="none" xmlns="http://www.w3.org/2000/svg">
<path d="M40.5729 8.43181C41.8765 6.64835 41.4977 4.11553 39.5413 3.08941C36.3177 1.39864 32.7728 0.370583 29.1165 0.0830848C24.1253 -0.309381 19.1233 0.69365 14.6693 2.98011C10.2154 5.26658 6.48482 8.74642 3.89453 13.0308C1.30424 17.3153 -0.0437777 22.2355 0.00108395 27.2419C0.0459456 32.2483 1.48192 37.1436 4.14857 41.381C6.81522 45.6183 10.6075 49.0307 15.1018 51.237C19.596 53.4433 24.6152 54.3565 29.5985 53.8747C33.2491 53.5217 36.775 52.4303 39.9678 50.682C41.9054 49.621 42.2388 47.0818 40.9034 45.322L38.367 41.9795C37.0316 40.2197 34.5289 39.9367 32.4765 40.7539C31.1851 41.2681 29.8216 41.6003 28.4248 41.7354C25.6924 41.9996 22.9404 41.4989 20.4762 40.2892C18.012 39.0794 15.9327 37.2084 14.4706 34.8851C13.0084 32.5618 12.2211 29.8777 12.1965 27.1327C12.1719 24.3876 12.911 21.6899 14.3313 19.3407C15.7515 16.9916 17.797 15.0836 20.2391 13.8299C22.6812 12.5762 25.4238 12.0263 28.1605 12.2414C29.5595 12.3515 30.9288 12.6592 32.2292 13.1502C34.2959 13.9305 36.7931 13.6027 38.0968 11.8192L40.5729 8.43181Z" fill="#EA4C89"/>
<path d="M62.08 17.688C62.6347 17.9653 62.9547 18.4027 63.04 19C63.1467 19.5973 62.9973 20.1413 62.592 20.632C62.3147 21.016 61.952 21.2293 61.504 21.272C61.0773 21.3147 60.64 21.2293 60.192 21.016C59.68 20.7813 59.136 20.6 58.56 20.472C58.0053 20.344 57.4187 20.28 56.8 20.28C55.648 20.28 54.6133 20.4613 53.696 20.824C52.8 21.1867 52.032 21.7093 51.392 22.392C50.752 23.0533 50.2613 23.8427 49.92 24.76C49.6 25.6773 49.44 26.6907 49.44 27.8C49.44 29.1013 49.6213 30.232 49.984 31.192C50.368 32.152 50.8907 32.952 51.552 33.592C52.2133 34.232 52.992 34.712 53.888 35.032C54.784 35.3307 55.7547 35.48 56.8 35.48C57.376 35.48 57.952 35.4267 58.528 35.32C59.104 35.2133 59.6587 35.0213 60.192 34.744C60.64 34.5307 61.0773 34.456 61.504 34.52C61.952 34.584 62.3253 34.808 62.624 35.192C63.0507 35.7253 63.2 36.28 63.072 36.856C62.9653 37.4107 62.6453 37.816 62.112 38.072C61.5573 38.3493 60.9813 38.584 60.384 38.776C59.808 38.9467 59.2213 39.0747 58.624 39.16C58.0267 39.2667 57.4187 39.32 56.8 39.32C55.264 39.32 53.8027 39.0747 52.416 38.584C51.0507 38.0933 49.824 37.368 48.736 36.408C47.6693 35.448 46.8267 34.2533 46.208 32.824C45.5893 31.3733 45.28 29.6987 45.28 27.8C45.28 26.1573 45.5573 24.6427 46.112 23.256C46.688 21.8693 47.488 20.6747 48.512 19.672C49.5573 18.648 50.784 17.8587 52.192 17.304C53.6 16.728 55.136 16.44 56.8 16.44C57.7387 16.44 58.656 16.5467 59.552 16.76C60.448 16.9733 61.2907 17.2827 62.08 17.688ZM81.6305 16.568C82.1852 16.568 82.6332 16.76 82.9745 17.144C83.3158 17.5067 83.4865 17.9653 83.4865 18.52V30.104C83.4865 31.8747 83.1025 33.4427 82.3345 34.808C81.5878 36.1733 80.5532 37.24 79.2305 38.008C77.9078 38.776 76.3718 39.16 74.6225 39.16C72.8732 39.16 71.3265 38.776 69.9825 38.008C68.6598 37.24 67.6145 36.1733 66.8465 34.808C66.0998 33.4427 65.7265 31.8747 65.7265 30.104V18.52C65.7265 17.9653 65.9185 17.5067 66.3025 17.144C66.6865 16.76 67.1772 16.568 67.7745 16.568C68.2652 16.568 68.7025 16.76 69.0865 17.144C69.4918 17.5067 69.6945 17.9653 69.6945 18.52V30.104C69.6945 31.1707 69.9185 32.0987 70.3665 32.888C70.8358 33.656 71.4438 34.2533 72.1905 34.68C72.9585 35.1067 73.7692 35.32 74.6225 35.32C75.5398 35.32 76.3932 35.1067 77.1825 34.68C77.9718 34.2533 78.6118 33.656 79.1025 32.888C79.5932 32.0987 79.8385 31.1707 79.8385 30.104V18.52C79.8385 17.9653 79.9985 17.5067 80.3185 17.144C80.6385 16.76 81.0758 16.568 81.6305 16.568ZM108.161 27.8C108.161 29.4 107.894 30.8933 107.361 32.28C106.828 33.6667 106.07 34.8933 105.089 35.96C104.129 37.0053 102.977 37.8267 101.633 38.424C100.31 39.0213 98.8597 39.32 97.281 39.32C95.7023 39.32 94.2517 39.0213 92.929 38.424C91.6063 37.8267 90.4543 37.0053 89.473 35.96C88.513 34.8933 87.7663 33.6667 87.233 32.28C86.6997 30.8933 86.433 29.4 86.433 27.8C86.433 26.2 86.6997 24.7067 87.233 23.32C87.7663 21.9333 88.513 20.7173 89.473 19.672C90.4543 18.6053 91.6063 17.7733 92.929 17.176C94.2517 16.5787 95.7023 16.28 97.281 16.28C98.8597 16.28 100.31 16.5787 101.633 17.176C102.977 17.7733 104.129 18.6053 105.089 19.672C106.07 20.7173 106.828 21.9333 107.361 23.32C107.894 24.7067 108.161 26.2 108.161 27.8ZM104.001 27.8C104.001 26.3707 103.713 25.08 103.137 23.928C102.561 22.7547 101.772 21.8267 100.769 21.144C99.7663 20.4613 98.6037 20.12 97.281 20.12C95.9583 20.12 94.7957 20.4613 93.793 21.144C92.7903 21.8267 92.001 22.744 91.425 23.896C90.8703 25.048 90.593 26.3493 90.593 27.8C90.593 29.2293 90.8703 30.5307 91.425 31.704C92.001 32.856 92.7903 33.7733 93.793 34.456C94.7957 35.1387 95.9583 35.48 97.281 35.48C98.6037 35.48 99.7663 35.1387 100.769 34.456C101.772 33.7733 102.561 32.856 103.137 31.704C103.713 30.5307 104.001 29.2293 104.001 27.8ZM115.098 37.048C115.098 37.6027 114.896 38.072 114.49 38.456C114.085 38.8187 113.616 39 113.082 39C112.485 39 112.005 38.8187 111.642 38.456C111.28 38.072 111.098 37.6027 111.098 37.048V18.552C111.098 17.9973 111.29 17.5387 111.674 17.176C112.058 16.792 112.549 16.6 113.146 16.6C113.658 16.6 114.106 16.792 114.49 17.176C114.896 17.5387 115.098 17.9973 115.098 18.552V37.048ZM126.759 39C126.161 39 125.671 38.8187 125.287 38.456C124.903 38.072 124.711 37.6027 124.711 37.048V18.488H128.871V37.048C128.871 37.6027 128.668 38.072 128.263 38.456C127.879 38.8187 127.377 39 126.759 39ZM119.687 20.28C119.132 20.28 118.663 20.1093 118.279 19.768C117.916 19.4267 117.735 18.9787 117.735 18.424C117.735 17.8693 117.916 17.432 118.279 17.112C118.663 16.7707 119.132 16.6 119.687 16.6H133.895C134.449 16.6 134.908 16.7707 135.271 17.112C135.655 17.4533 135.847 17.9013 135.847 18.456C135.847 19.0107 135.655 19.4587 135.271 19.8C134.908 20.12 134.449 20.28 133.895 20.28H119.687ZM140.518 16.6C141.03 16.6 141.478 16.792 141.862 17.176C142.267 17.5387 142.47 17.9973 142.47 18.552V37.048C142.47 37.6027 142.267 38.072 141.862 38.456C141.457 38.8187 140.987 39 140.454 39C139.857 39 139.377 38.8187 139.014 38.456C138.651 38.072 138.47 37.6027 138.47 37.048V18.552C138.47 17.9973 138.662 17.5387 139.046 17.176C139.43 16.792 139.921 16.6 140.518 16.6ZM154.694 16.6C155.291 16.6 155.771 16.792 156.134 17.176C156.497 17.5387 156.678 17.9973 156.678 18.552V37.048C156.678 37.6027 156.486 38.072 156.102 38.456C155.739 38.8187 155.249 39 154.63 39C154.118 39 153.659 38.8187 153.254 38.456C152.87 38.072 152.678 37.6027 152.678 37.048V18.552C152.678 17.9973 152.881 17.5387 153.286 17.176C153.691 16.792 154.161 16.6 154.694 16.6ZM140.422 25.912H154.694V29.592H140.422V25.912ZM181.342 27.8C181.342 29.4 181.075 30.8933 180.542 32.28C180.009 33.6667 179.251 34.8933 178.27 35.96C177.31 37.0053 176.158 37.8267 174.814 38.424C173.491 39.0213 172.041 39.32 170.462 39.32C168.883 39.32 167.433 39.0213 166.11 38.424C164.787 37.8267 163.635 37.0053 162.654 35.96C161.694 34.8933 160.947 33.6667 160.414 32.28C159.881 30.8933 159.614 29.4 159.614 27.8C159.614 26.2 159.881 24.7067 160.414 23.32C160.947 21.9333 161.694 20.7173 162.654 19.672C163.635 18.6053 164.787 17.7733 166.11 17.176C167.433 16.5787 168.883 16.28 170.462 16.28C172.041 16.28 173.491 16.5787 174.814 17.176C176.158 17.7733 177.31 18.6053 178.27 19.672C179.251 20.7173 180.009 21.9333 180.542 23.32C181.075 24.7067 181.342 26.2 181.342 27.8ZM177.182 27.8C177.182 26.3707 176.894 25.08 176.318 23.928C175.742 22.7547 174.953 21.8267 173.95 21.144C172.947 20.4613 171.785 20.12 170.462 20.12C169.139 20.12 167.977 20.4613 166.974 21.144C165.971 21.8267 165.182 22.744 164.606 23.896C164.051 25.048 163.774 26.3493 163.774 27.8C163.774 29.2293 164.051 30.5307 164.606 31.704C165.182 32.856 165.971 33.7733 166.974 34.456C167.977 35.1387 169.139 35.48 170.462 35.48C171.785 35.48 172.947 35.1387 173.95 34.456C174.953 33.7733 175.742 32.856 176.318 31.704C176.894 30.5307 177.182 29.2293 177.182 27.8ZM188.279 37.048C188.279 37.6027 188.077 38.072 187.671 38.456C187.266 38.8187 186.797 39 186.263 39C185.666 39 185.186 38.8187 184.823 38.456C184.461 38.072 184.279 37.6027 184.279 37.048V18.552C184.279 17.9973 184.471 17.5387 184.855 17.176C185.239 16.792 185.73 16.6 186.327 16.6C186.839 16.6 187.287 16.792 187.671 17.176C188.077 17.5387 188.279 17.9973 188.279 18.552V37.048Z" fill="black"/>
</svg>
