<svg width="124" height="124" viewBox="0 0 124 124" fill="none" xmlns="http://www.w3.org/2000/svg">
<rect x="2" y="2" width="120" height="120" rx="60" fill="#A8CBBE"/>
<path d="M81.3967 61.8865C81.4035 63.1792 80.8967 64.4218 79.9878 65.341C79.0788 66.2603 77.8421 66.781 76.5493 66.7888C75.9089 66.7854 75.2754 66.656 74.6851 66.4078C74.0947 66.1596 73.559 65.7976 73.1085 65.3423C72.658 64.8871 72.3017 64.3476 72.0597 63.7547C71.8177 63.1617 71.695 62.5269 71.6983 61.8865C71.6945 61.2457 71.8169 60.6105 72.0586 60.0172C72.3004 59.4238 72.6567 58.8839 73.1072 58.4282C73.5577 57.9726 74.0936 57.6103 74.6842 57.3618C75.2748 57.1134 75.9086 56.9838 76.5493 56.9805C79.226 56.9805 81.3967 59.1768 81.3967 61.8865Z" fill="white"/>
<path fill-rule="evenodd" clip-rule="evenodd" d="M84.4837 45.1627C81.3707 44.7227 77.363 44.7227 72.3653 44.7227H51.634C46.6363 44.7227 42.6287 44.7227 39.5157 45.1627C36.3 45.621 33.6197 46.6037 31.625 48.9027C29.634 51.2053 29.0217 54.025 28.9997 57.3103C28.9777 60.4857 29.5093 64.5043 30.1693 69.5167L31.5077 79.677C32.0247 83.5967 32.4427 86.7647 33.0917 89.247C33.77 91.8283 34.7673 93.9733 36.641 95.6307C38.511 97.288 40.7477 98.0067 43.3657 98.344C45.8847 98.6667 49.049 98.6667 52.954 98.6667H71.0453C74.9503 98.6667 78.1147 98.6667 80.6337 98.344C83.2553 98.0067 85.4847 97.288 87.3583 95.6307C89.232 93.9733 90.2293 91.8283 90.9077 89.247C91.5567 86.7647 91.9747 83.593 92.4917 79.677L93.83 69.5167C94.49 64.5043 95.0217 60.4857 94.9997 57.3067C94.974 54.025 94.369 51.2053 92.3743 48.9063C90.3797 46.6037 87.6993 45.621 84.4837 45.1627ZM40.1903 50.0173C37.5283 50.3987 36.179 51.088 35.277 52.1367C34.3677 53.1817 33.869 54.6227 33.847 57.3433C33.8287 60.1373 34.309 63.8113 35.002 69.0583L35.1853 70.4517L36.5457 69.4507C40.0657 66.8767 45.2577 67.0013 48.6017 69.799L61.0097 80.1867C62.183 81.1693 64.2033 81.3527 65.6627 80.4947L66.5243 79.9887C70.6493 77.5613 76.1823 77.818 79.9883 80.6853L86.7057 85.7453C87.0357 83.9267 87.3327 81.6937 87.7067 78.8667L88.9973 69.0583C89.6903 63.815 90.1707 60.1373 90.1487 57.3433C90.1303 54.6227 89.6317 53.1817 88.726 52.1367C87.8203 51.088 86.471 50.3987 83.8053 50.0173C81.0737 49.6287 77.407 49.625 72.1747 49.625H51.8247C46.5923 49.625 42.922 49.6287 40.1903 50.0173Z" fill="white"/>
<path d="M50.483 25.3335H73.517C74.287 25.3335 74.8736 25.3335 75.387 25.3885C77.1422 25.585 78.8094 26.261 80.2058 27.3424C81.6023 28.4239 82.6739 29.8689 83.3033 31.5192H40.6966C41.326 29.8689 42.3977 28.4239 43.7941 27.3424C45.1905 26.261 46.8577 25.585 48.613 25.3885C49.1263 25.3335 49.713 25.3335 50.483 25.3335ZM43.2266 34.5002C38.636 34.5002 34.874 37.5802 33.62 41.6648C33.5932 41.75 33.5675 41.8356 33.543 41.9215C34.8556 41.4815 36.2196 41.1882 37.6056 40.9938C41.1733 40.4842 45.6796 40.4842 50.912 40.4842H73.6563C78.8886 40.4842 83.395 40.4842 86.959 40.9938C88.345 41.1882 89.709 41.4778 91.029 41.9215C91.0044 41.8356 90.9788 41.75 90.952 41.6648C89.6943 37.5802 85.9323 34.5002 81.3453 34.5002H43.2193H43.2266Z" fill="white"/>
<rect x="2" y="2" width="120" height="120" rx="60" stroke="white" stroke-width="3"/>
</svg>
