<svg width="139" height="140" viewBox="0 0 139 140" fill="none" xmlns="http://www.w3.org/2000/svg">
<g filter="url(#filter0_d_1650_4472)">
<rect x="9.5" y="6" width="120" height="120" rx="60" fill="white"/>
<path d="M79.348 64.2126L48.9082 58.8501V98.4748C48.9086 98.9053 48.9937 99.3315 49.1588 99.7291C49.3238 100.127 49.5656 100.488 49.8703 100.792C50.1749 101.096 50.5365 101.337 50.9343 101.502C51.3322 101.666 51.7585 101.75 52.189 101.75H104.714C105.145 101.751 105.572 101.667 105.97 101.503C106.369 101.339 106.731 101.098 107.036 100.794C107.341 100.49 107.584 100.128 107.749 99.7303C107.915 99.3324 108 98.9058 108 98.4748V83.8751L79.348 64.2126Z" fill="#7F5A5A"/>
<path d="M79.348 30.25H52.189C51.7585 30.2496 51.3322 30.3341 50.9343 30.4985C50.5365 30.6629 50.1749 30.904 49.8703 31.2082C49.5656 31.5123 49.3238 31.8735 49.1588 32.271C48.9937 32.6686 48.9086 33.0948 48.9082 33.5253V48.125L79.348 66L95.4657 71.3625L108 66V48.125L79.348 30.25Z" fill="#AA7878"/>
<path d="M48.9082 48.125H79.348V66H48.9082V48.125Z" fill="#946969"/>
<path opacity="0.1" d="M70.6937 44.5498H48.9082V89.2373H70.6937C71.5618 89.233 72.3932 88.8868 73.0078 88.2737C73.6224 87.6607 73.9707 86.8301 73.9772 85.9621V47.8251C73.9707 46.957 73.6224 46.1264 73.0078 45.5134C72.3932 44.9003 71.5618 44.5541 70.6937 44.5498Z" fill="black"/>
<path opacity="0.2" d="M68.9035 46.3374H48.9082V91.0249H68.9035C69.7715 91.0206 70.603 90.6744 71.2176 90.0613C71.8322 89.4483 72.1805 88.6177 72.187 87.7497V49.6127C72.1805 48.7446 71.8322 47.914 71.2176 47.301C70.603 46.6879 69.7715 46.3417 68.9035 46.3374Z" fill="black"/>
<path opacity="0.2" d="M68.9035 46.3374H48.9082V87.4499H68.9035C69.7715 87.4456 70.603 87.0994 71.2176 86.4863C71.8322 85.8733 72.1805 85.0427 72.187 84.1746V49.6127C72.1805 48.7446 71.8322 47.914 71.2176 47.301C70.603 46.6879 69.7715 46.3417 68.9035 46.3374Z" fill="black"/>
<path opacity="0.2" d="M67.1132 46.3374H48.9082V87.4499H67.1132C67.9813 87.4456 68.8127 87.0994 69.4273 86.4863C70.0419 85.8733 70.3902 85.0427 70.3967 84.1746V49.6127C70.3902 48.7446 70.0419 47.914 69.4273 47.301C68.8127 46.6879 67.9813 46.3417 67.1132 46.3374Z" fill="black"/>
<path d="M34.2835 46.3374H67.113C67.9826 46.3367 68.817 46.6812 69.4327 47.2954C70.0484 47.9095 70.395 48.743 70.3965 49.6127V82.3872C70.395 83.2568 70.0484 84.0903 69.4327 84.7044C68.817 85.3186 67.9826 85.6631 67.113 85.6624H34.2835C33.8528 85.6631 33.4262 85.579 33.028 85.4147C32.6298 85.2505 32.268 85.0094 31.963 84.7052C31.6581 84.4011 31.4161 84.0398 31.2508 83.642C31.0856 83.2443 31.0004 82.8179 31 82.3872V49.6127C31.0004 49.182 31.0856 48.7555 31.2508 48.3578C31.4161 47.96 31.6581 47.5988 31.963 47.2946C32.268 46.9904 32.6298 46.7493 33.028 46.5851C33.4262 46.4208 33.8528 46.3367 34.2835 46.3374Z" fill="#D49696"/>
<path d="M41.1748 76.6506L48.0801 65.9696L41.7551 55.3491H46.8343L50.2856 62.1499C50.6046 62.7934 50.8356 63.2719 50.9401 63.5909H50.9868C51.2123 63.0739 51.4516 62.5761 51.7018 62.0894L55.3923 55.3601H60.0673L53.5801 65.9201L60.2323 76.6589H55.2576L51.2701 69.2036C51.0849 68.8831 50.9276 68.5473 50.7998 68.1999H50.7338C50.6175 68.5384 50.4625 68.8623 50.2718 69.1651L46.1661 76.6506H41.1748Z" fill="white"/>
<path d="M104.716 30.25H79.3477V48.125H108V33.5253C108 33.0945 107.914 32.6681 107.749 32.2704C107.584 31.8726 107.342 31.5114 107.037 31.2072C106.732 30.903 106.37 30.6619 105.972 30.4977C105.574 30.3334 105.147 30.2493 104.716 30.25Z" fill="#BF8787"/>
<path d="M79.3477 66H108V83.875H79.3477V66Z" fill="#946969"/>
<rect x="9.5" y="6" width="120" height="120" rx="60" stroke="white" stroke-width="3"/>
</g>
<defs>
<filter id="filter0_d_1650_4472" x="0" y="0.5" width="139" height="139" filterUnits="userSpaceOnUse" color-interpolation-filters="sRGB">
<feFlood flood-opacity="0" result="BackgroundImageFix"/>
<feColorMatrix in="SourceAlpha" type="matrix" values="0 0 0 0 0 0 0 0 0 0 0 0 0 0 0 0 0 0 127 0" result="hardAlpha"/>
<feOffset dy="4"/>
<feGaussianBlur stdDeviation="4"/>
<feColorMatrix type="matrix" values="0 0 0 0 0 0 0 0 0 0 0 0 0 0 0 0 0 0 0.08 0"/>
<feBlend mode="normal" in2="BackgroundImageFix" result="effect1_dropShadow_1650_4472"/>
<feBlend mode="normal" in="SourceGraphic" in2="effect1_dropShadow_1650_4472" result="shape"/>
</filter>
</defs>
</svg>
