<svg width="124" height="124" viewBox="0 0 124 124" fill="none" xmlns="http://www.w3.org/2000/svg">
<rect x="2" y="2" width="120" height="120" rx="60" fill="#A8CBBE"/>
<path d="M82.1667 62C80.708 62 79.309 61.4205 78.2776 60.3891C77.2461 59.3576 76.6667 57.9587 76.6667 56.5C76.6667 55.0413 77.2461 53.6424 78.2776 52.6109C79.309 51.5795 80.708 51 82.1667 51C83.6254 51 85.0243 51.5795 86.0558 52.6109C87.0872 53.6424 87.6667 55.0413 87.6667 56.5C87.6667 57.9587 87.0872 59.3576 86.0558 60.3891C85.0243 61.4205 83.6254 62 82.1667 62ZM71.1667 47.3333C69.708 47.3333 68.309 46.7539 67.2776 45.7224C66.2461 44.691 65.6667 43.292 65.6667 41.8333C65.6667 40.3746 66.2461 38.9757 67.2776 37.9442C68.309 36.9128 69.708 36.3333 71.1667 36.3333C72.6254 36.3333 74.0243 36.9128 75.0558 37.9442C76.0872 38.9757 76.6667 40.3746 76.6667 41.8333C76.6667 43.292 76.0872 44.691 75.0558 45.7224C74.0243 46.7539 72.6254 47.3333 71.1667 47.3333ZM52.8333 47.3333C51.3746 47.3333 49.9757 46.7539 48.9442 45.7224C47.9128 44.691 47.3333 43.292 47.3333 41.8333C47.3333 40.3746 47.9128 38.9757 48.9442 37.9442C49.9757 36.9128 51.3746 36.3333 52.8333 36.3333C54.292 36.3333 55.691 36.9128 56.7224 37.9442C57.7539 38.9757 58.3333 40.3746 58.3333 41.8333C58.3333 43.292 57.7539 44.691 56.7224 45.7224C55.691 46.7539 54.292 47.3333 52.8333 47.3333ZM41.8333 62C40.3746 62 38.9757 61.4205 37.9442 60.3891C36.9128 59.3576 36.3333 57.9587 36.3333 56.5C36.3333 55.0413 36.9128 53.6424 37.9442 52.6109C38.9757 51.5795 40.3746 51 41.8333 51C43.292 51 44.691 51.5795 45.7224 52.6109C46.7539 53.6424 47.3333 55.0413 47.3333 56.5C47.3333 57.9587 46.7539 59.3576 45.7224 60.3891C44.691 61.4205 43.292 62 41.8333 62ZM62 29C53.2479 29 44.8542 32.4768 38.6655 38.6655C32.4768 44.8542 29 53.2479 29 62C29 70.7521 32.4768 79.1458 38.6655 85.3345C44.8542 91.5232 53.2479 95 62 95C63.4587 95 64.8576 94.4205 65.8891 93.3891C66.9205 92.3576 67.5 90.9587 67.5 89.5C67.5 88.07 66.95 86.7867 66.07 85.8333C65.2267 84.8433 64.6767 83.56 64.6767 82.1667C64.6767 80.708 65.2561 79.309 66.2876 78.2776C67.319 77.2461 68.718 76.6667 70.1767 76.6667H76.6667C81.529 76.6667 86.1921 74.7351 89.6303 71.297C93.0685 67.8588 95 63.1956 95 58.3333C95 42.1267 80.2233 29 62 29Z" fill="white"/>
<rect x="2" y="2" width="120" height="120" rx="60" stroke="white" stroke-width="3"/>
</svg>
