<svg width="139" height="140" viewBox="0 0 139 140" fill="none" xmlns="http://www.w3.org/2000/svg">
<g filter="url(#filter0_d_1650_4490)">
<rect x="9.5" y="6" width="120" height="120" rx="60" fill="white"/>
<path d="M57.1211 84.3144C59.3197 87.1162 61.3207 90.0676 63.1097 93.1472C64.6371 96.0434 65.2739 98.0073 66.3902 101.497C67.0748 103.425 67.6935 104 69.0237 104C70.4733 104 71.131 103.022 71.6391 101.508C72.6942 98.212 73.5222 95.6969 74.8284 93.3204C77.3915 88.7323 80.5765 84.6551 83.706 80.7367C84.5532 79.6277 90.0308 73.1668 92.4967 68.0689C92.4967 68.0689 95.5276 62.4689 95.5276 54.6479C95.5276 47.3322 92.5386 42.2583 92.5386 42.2583L83.933 44.5629L78.7069 58.3275L77.4139 60.2256L77.1554 60.5694L76.8115 60.9998L76.2079 61.6873L75.3454 62.5497L70.6916 66.3411L59.0566 73.0591L57.1211 84.3144Z" fill="#7F5A5A"/>
<path d="M45.1133 67.1262C47.953 73.6124 53.4289 79.3141 57.1338 84.3177L76.8122 61.0075C76.8122 61.0075 74.0399 64.6333 69.0109 64.6333C63.4093 64.6333 58.8839 60.1601 58.8839 54.5197C58.8839 50.6518 61.2109 47.9946 61.2109 47.9946L47.8527 51.574L45.1133 67.1262Z" fill="#E1B6B6"/>
<path d="M77.0314 29.1994C83.5671 31.3067 89.1611 35.7305 92.5447 42.254L76.8176 60.9955C76.8176 60.9955 79.1446 58.2903 79.1446 54.4464C79.1446 48.6747 74.2845 44.3628 69.0342 44.3628C64.0693 44.3628 61.2178 47.9826 61.2178 47.9826V36.1757L77.0314 29.1992V29.1994Z" fill="#AA7878"/>
<path d="M48.7158 37.4797C52.6194 32.8094 59.4881 28 68.9577 28C73.552 28 77.0133 29.2062 77.0133 29.2062L61.2011 47.9923H49.998L48.7158 37.4797Z" fill="#D49696"/>
<path d="M45.1124 67.1272C45.1124 67.1272 42.5 62.0113 42.5 54.5998C42.5 47.595 45.2231 41.472 48.7173 37.48L61.2115 47.9942L45.1124 67.1272Z" fill="#DDABAB"/>
<rect x="9.5" y="6" width="120" height="120" rx="60" stroke="white" stroke-width="3"/>
</g>
<defs>
<filter id="filter0_d_1650_4490" x="0" y="0.5" width="139" height="139" filterUnits="userSpaceOnUse" color-interpolation-filters="sRGB">
<feFlood flood-opacity="0" result="BackgroundImageFix"/>
<feColorMatrix in="SourceAlpha" type="matrix" values="0 0 0 0 0 0 0 0 0 0 0 0 0 0 0 0 0 0 127 0" result="hardAlpha"/>
<feOffset dy="4"/>
<feGaussianBlur stdDeviation="4"/>
<feColorMatrix type="matrix" values="0 0 0 0 0 0 0 0 0 0 0 0 0 0 0 0 0 0 0.08 0"/>
<feBlend mode="normal" in2="BackgroundImageFix" result="effect1_dropShadow_1650_4490"/>
<feBlend mode="normal" in="SourceGraphic" in2="effect1_dropShadow_1650_4490" result="shape"/>
</filter>
</defs>
</svg>
