<svg width="36" height="36" viewBox="0 0 36 36" fill="none" xmlns="http://www.w3.org/2000/svg">
<path d="M16.5 19.5V24C16.5 24.425 16.644 24.7815 16.932 25.0695C17.22 25.3575 17.576 25.501 18 25.5C18.425 25.5 18.7815 25.356 19.0695 25.068C19.3575 24.78 19.501 24.424 19.5 24V19.5H24C24.425 19.5 24.7815 19.356 25.0695 19.068C25.3575 18.78 25.501 18.424 25.5 18C25.5 17.575 25.356 17.2185 25.068 16.9305C24.78 16.6425 24.424 16.499 24 16.5H19.5V12C19.5 11.575 19.356 11.2185 19.068 10.9305C18.78 10.6425 18.424 10.499 18 10.5C17.575 10.5 17.2185 10.644 16.9305 10.932C16.6425 11.22 16.499 11.576 16.5 12V16.5H12C11.575 16.5 11.2185 16.644 10.9305 16.932C10.6425 17.22 10.499 17.576 10.5 18C10.5 18.425 10.644 18.7815 10.932 19.0695C11.22 19.3575 11.576 19.501 12 19.5H16.5ZM18 33C15.925 33 13.975 32.606 12.15 31.818C10.325 31.03 8.7375 29.9615 7.3875 28.6125C6.0375 27.2625 4.969 25.675 4.182 23.85C3.395 22.025 3.001 20.075 3 18C3 15.925 3.394 13.975 4.182 12.15C4.97 10.325 6.0385 8.7375 7.3875 7.3875C8.7375 6.0375 10.325 4.969 12.15 4.182C13.975 3.395 15.925 3.001 18 3C20.075 3 22.025 3.394 23.85 4.182C25.675 4.97 27.2625 6.0385 28.6125 7.3875C29.9625 8.7375 31.0315 10.325 31.8195 12.15C32.6075 13.975 33.001 15.925 33 18C33 20.075 32.606 22.025 31.818 23.85C31.03 25.675 29.9615 27.2625 28.6125 28.6125C27.2625 29.9625 25.675 31.0315 23.85 31.8195C22.025 32.6075 20.075 33.001 18 33Z" fill="#946969"/>
</svg>
