<svg width="139" height="140" viewBox="0 0 139 140" fill="none" xmlns="http://www.w3.org/2000/svg">
<g filter="url(#filter0_d_1604_6020)">
<rect x="9.5" y="6" width="120" height="120" rx="60" fill="white"/>
<path d="M58.4997 69.6668V40.3335C58.4997 36.3002 61.7997 33.0002 65.833 33.0002H98.833C102.866 33.0002 106.166 36.3002 106.166 40.3335V62.3335H93.5897L88.8963 55.9535C88.8507 55.8776 88.7862 55.8147 88.7091 55.7711C88.632 55.7275 88.5449 55.7046 88.4563 55.7046C88.3678 55.7046 88.2807 55.7275 88.2036 55.7711C88.1265 55.8147 88.062 55.8776 88.0163 55.9535L80.7197 66.0002C80.4997 66.2202 80.0597 66.2568 79.8397 66.0002L74.5963 59.5835C74.544 59.523 74.4793 59.4744 74.4065 59.4411C74.3338 59.4078 74.2547 59.3906 74.1747 59.3906C74.0947 59.3906 74.0156 59.4078 73.9428 59.4411C73.8701 59.4744 73.8053 59.523 73.753 59.5835L66.0163 69.3368C65.723 69.6668 65.9797 70.2168 66.4197 70.2168H89.6663V77.0002H65.833C61.763 77.0002 58.4997 73.7368 58.4997 69.6668Z" fill="#D49696"/>
<path fill-rule="evenodd" clip-rule="evenodd" d="M109.833 69.6668V77.0002H102.5V97.1668C102.5 99.598 101.534 101.93 99.8148 103.649C98.0957 105.368 95.7642 106.333 93.333 106.333C90.9019 106.333 88.5703 105.368 86.8512 103.649C85.1321 101.93 84.1663 99.598 84.1663 97.1668C84.1671 95.6452 84.5467 94.1476 85.2708 92.8093C85.995 91.471 87.0409 90.334 88.3142 89.5009C89.5875 88.6678 91.0482 88.1647 92.5645 88.0372C94.0808 87.9096 95.6051 88.1615 96.9997 88.7702V69.6668H109.833Z" fill="#946969"/>
<path fill-rule="evenodd" clip-rule="evenodd" d="M47.4997 102.667V99.0002H40.1663V102.667H32.833V29.3335H40.1663V33.0002H47.4997V29.3335H56.263C53.1463 32.0468 51.1663 35.9335 51.1663 40.3335V69.6668C51.1663 77.7702 57.7297 84.3335 65.833 84.3335H83.0663C79.2897 87.3768 76.833 91.9602 76.833 97.1668C76.833 99.1102 77.2363 100.943 77.8597 102.667H47.4997ZM47.4997 47.6668H40.1663V40.3335H47.4997V47.6668ZM47.4997 62.3335H40.1663V55.0002H47.4997V62.3335ZM47.4997 77.0002H40.1663V69.6668H47.4997V77.0002ZM47.4997 84.3335V91.6668H40.1663V84.3335H47.4997Z" fill="#7F5A5A"/>
<rect x="9.5" y="6" width="120" height="120" rx="60" stroke="white" stroke-width="3"/>
</g>
<defs>
<filter id="filter0_d_1604_6020" x="0" y="0.5" width="139" height="139" filterUnits="userSpaceOnUse" color-interpolation-filters="sRGB">
<feFlood flood-opacity="0" result="BackgroundImageFix"/>
<feColorMatrix in="SourceAlpha" type="matrix" values="0 0 0 0 0 0 0 0 0 0 0 0 0 0 0 0 0 0 127 0" result="hardAlpha"/>
<feOffset dy="4"/>
<feGaussianBlur stdDeviation="4"/>
<feColorMatrix type="matrix" values="0 0 0 0 0 0 0 0 0 0 0 0 0 0 0 0 0 0 0.08 0"/>
<feBlend mode="normal" in2="BackgroundImageFix" result="effect1_dropShadow_1604_6020"/>
<feBlend mode="normal" in="SourceGraphic" in2="effect1_dropShadow_1604_6020" result="shape"/>
</filter>
</defs>
</svg>
