<svg width="124" height="124" viewBox="0 0 124 124" fill="none" xmlns="http://www.w3.org/2000/svg">
<rect x="2" y="2" width="120" height="120" rx="60" fill="#A8CBBE"/>
<path d="M82.1671 95.8435C73.9275 100.698 64.2044 102.394 54.808 100.614C45.4115 98.8336 36.9822 93.6995 31.0892 86.1674C25.1962 78.6352 22.2411 69.2181 22.7742 59.6695C23.3074 50.1208 27.2923 41.0912 33.9871 34.2618M99.7121 73.5135C101.504 67.6201 101.891 61.3889 100.842 55.3191C99.7932 49.2492 97.3377 43.5093 93.6721 38.5588C90.0065 33.6084 85.2327 29.5851 79.7329 26.811C74.2332 24.0368 68.1602 22.589 62.0004 22.5835V51.4035M58.7554 58.7552L43.5754 43.5752" stroke="white" stroke-width="4" stroke-linecap="round" stroke-linejoin="round"/>
<path d="M62.0003 66.5832C64.5316 66.5832 66.5837 64.5311 66.5837 61.9998C66.5837 59.4685 64.5316 57.4165 62.0003 57.4165C59.469 57.4165 57.417 59.4685 57.417 61.9998C57.417 64.5311 59.469 66.5832 62.0003 66.5832Z" stroke="white" stroke-width="4" stroke-linecap="round" stroke-linejoin="round"/>
<path d="M69.3335 74.8333C64.2918 85.3383 83.5785 97.1999 84.9535 97.1999C86.3285 97.1999 105.615 85.3566 100.5 74.8333C98.2818 70.7816 91.8652 65.2999 84.8985 74.8333C80.4252 67.7749 73.0002 67.9766 69.3335 74.8333Z" fill="white" stroke="white" stroke-width="4" stroke-linecap="round" stroke-linejoin="round"/>
<rect x="2" y="2" width="120" height="120" rx="60" stroke="white" stroke-width="3"/>
</svg>
