<svg width="40" height="40" viewBox="0 0 40 40" fill="none" xmlns="http://www.w3.org/2000/svg">
<circle cx="20" cy="20" r="20" fill="url(#paint0_linear_1100_4072)"/>
<path d="M22.388 13.8226C23.3232 14.0047 24.1827 14.4612 24.8565 15.1337C25.5302 15.8062 25.9876 16.664 26.1701 17.5974M22.388 10C24.331 10.2154 26.1429 11.0839 27.5261 12.4627C28.9093 13.8416 29.7817 15.6489 30 17.5879M29.0425 25.214V28.0809C29.0436 28.3471 28.989 28.6105 28.8821 28.8544C28.7753 29.0983 28.6186 29.3172 28.4221 29.4971C28.2256 29.677 27.9937 29.814 27.7411 29.8993C27.4885 29.9845 27.2208 30.0162 26.9552 29.9922C24.0089 29.6727 21.1787 28.6678 18.6921 27.0584C16.3787 25.5911 14.4173 23.6335 12.9472 21.3245C11.3291 18.8314 10.3221 15.9929 10.0078 13.039C9.98384 12.7747 10.0153 12.5084 10.1002 12.2569C10.185 12.0054 10.3214 11.7743 10.5007 11.5784C10.6799 11.3824 10.898 11.2258 11.1412 11.1186C11.3844 11.0114 11.6473 10.9559 11.9132 10.9557H14.7856C15.2503 10.9511 15.7008 11.1153 16.0531 11.4177C16.4054 11.7202 16.6355 12.1401 16.7006 12.5994C16.8218 13.5169 17.0467 14.4177 17.3708 15.2848C17.4996 15.6268 17.5275 15.9985 17.4511 16.3559C17.3748 16.7133 17.1974 17.0414 16.9399 17.3012L15.7239 18.5149C17.087 20.9074 19.0717 22.8883 21.4688 24.2488L22.6848 23.0351C22.9452 22.7782 23.2738 22.6011 23.6319 22.5249C23.99 22.4486 24.3624 22.4765 24.7051 22.6051C25.5738 22.9286 26.4764 23.153 27.3956 23.274C27.8608 23.3395 28.2855 23.5733 28.5892 23.931C28.8928 24.2887 29.0542 24.7453 29.0425 25.214Z" stroke="white" stroke-width="1.5" stroke-linecap="round" stroke-linejoin="round"/>
<defs>
<linearGradient id="paint0_linear_1100_4072" x1="1.67639e-07" y1="19.9999" x2="40" y2="19.9999" gradientUnits="userSpaceOnUse">
<stop stop-color="#8E5757"/>
<stop offset="1" stop-color="#B77C7C"/>
</linearGradient>
</defs>
</svg>
