<svg width="50" height="50" viewBox="0 0 50 50" fill="none" xmlns="http://www.w3.org/2000/svg">
<path d="M15.9091 45.4545H6.81818C6.21542 45.4545 5.63734 45.2151 5.21112 44.7889C4.7849 44.3627 4.54545 43.7846 4.54545 43.1818V34.0909C4.54545 33.4881 4.30601 32.9101 3.87979 32.4838C3.45357 32.0576 2.87549 31.8182 2.27273 31.8182C1.66996 31.8182 1.09189 32.0576 0.665666 32.4838C0.239447 32.9101 0 33.4881 0 34.0909V43.1818C0 44.9901 0.718342 46.7243 1.997 48.003C3.27566 49.2817 5.00989 50 6.81818 50H15.9091C16.5119 50 17.0899 49.7606 17.5162 49.3343C17.9424 48.9081 18.1818 48.33 18.1818 47.7273C18.1818 47.1245 17.9424 46.5464 17.5162 46.1202C17.0899 45.694 16.5119 45.4545 15.9091 45.4545ZM47.7273 31.8182C47.1245 31.8182 46.5464 32.0576 46.1202 32.4838C45.694 32.9101 45.4545 33.4881 45.4545 34.0909V43.1818C45.4545 43.7846 45.2151 44.3627 44.7889 44.7889C44.3627 45.2151 43.7846 45.4545 43.1818 45.4545H34.0909C33.4881 45.4545 32.9101 45.694 32.4838 46.1202C32.0576 46.5464 31.8182 47.1245 31.8182 47.7273C31.8182 48.33 32.0576 48.9081 32.4838 49.3343C32.9101 49.7606 33.4881 50 34.0909 50H43.1818C44.9901 50 46.7243 49.2817 48.003 48.003C49.2817 46.7243 50 44.9901 50 43.1818V34.0909C50 33.4881 49.7606 32.9101 49.3343 32.4838C48.9081 32.0576 48.33 31.8182 47.7273 31.8182ZM43.1818 0H34.0909C33.4881 0 32.9101 0.239447 32.4838 0.665666C32.0576 1.09189 31.8182 1.66996 31.8182 2.27273C31.8182 2.87549 32.0576 3.45357 32.4838 3.87979C32.9101 4.30601 33.4881 4.54545 34.0909 4.54545H43.1818C43.7846 4.54545 44.3627 4.7849 44.7889 5.21112C45.2151 5.63734 45.4545 6.21542 45.4545 6.81818V15.9091C45.4545 16.5119 45.694 17.0899 46.1202 17.5162C46.5464 17.9424 47.1245 18.1818 47.7273 18.1818C48.33 18.1818 48.9081 17.9424 49.3343 17.5162C49.7606 17.0899 50 16.5119 50 15.9091V6.81818C50 5.00989 49.2817 3.27566 48.003 1.997C46.7243 0.718342 44.9901 0 43.1818 0ZM2.27273 18.1818C2.87549 18.1818 3.45357 17.9424 3.87979 17.5162C4.30601 17.0899 4.54545 16.5119 4.54545 15.9091V6.81818C4.54545 6.21542 4.7849 5.63734 5.21112 5.21112C5.63734 4.7849 6.21542 4.54545 6.81818 4.54545H15.9091C16.5119 4.54545 17.0899 4.30601 17.5162 3.87979C17.9424 3.45357 18.1818 2.87549 18.1818 2.27273C18.1818 1.66996 17.9424 1.09189 17.5162 0.665666C17.0899 0.239447 16.5119 0 15.9091 0H6.81818C5.00989 0 3.27566 0.718342 1.997 1.997C0.718342 3.27566 0 5.00989 0 6.81818V15.9091C0 16.5119 0.239447 17.0899 0.665666 17.5162C1.09189 17.9424 1.66996 18.1818 2.27273 18.1818ZM20.4545 9.09091H11.3636C10.7609 9.09091 10.1828 9.33036 9.75658 9.75658C9.33036 10.1828 9.09091 10.7609 9.09091 11.3636V20.4545C9.09091 21.0573 9.33036 21.6354 9.75658 22.0616C10.1828 22.4878 10.7609 22.7273 11.3636 22.7273H20.4545C21.0573 22.7273 21.6354 22.4878 22.0616 22.0616C22.4878 21.6354 22.7273 21.0573 22.7273 20.4545V11.3636C22.7273 10.7609 22.4878 10.1828 22.0616 9.75658C21.6354 9.33036 21.0573 9.09091 20.4545 9.09091ZM18.1818 18.1818H13.6364V13.6364H18.1818V18.1818ZM29.5455 22.7273H38.6364C39.2391 22.7273 39.8172 22.4878 40.2434 22.0616C40.6696 21.6354 40.9091 21.0573 40.9091 20.4545V11.3636C40.9091 10.7609 40.6696 10.1828 40.2434 9.75658C39.8172 9.33036 39.2391 9.09091 38.6364 9.09091H29.5455C28.9427 9.09091 28.3646 9.33036 27.9384 9.75658C27.5122 10.1828 27.2727 10.7609 27.2727 11.3636V20.4545C27.2727 21.0573 27.5122 21.6354 27.9384 22.0616C28.3646 22.4878 28.9427 22.7273 29.5455 22.7273ZM31.8182 13.6364H36.3636V18.1818H31.8182V13.6364ZM20.4545 27.2727H11.3636C10.7609 27.2727 10.1828 27.5122 9.75658 27.9384C9.33036 28.3646 9.09091 28.9427 9.09091 29.5455V38.6364C9.09091 39.2391 9.33036 39.8172 9.75658 40.2434C10.1828 40.6696 10.7609 40.9091 11.3636 40.9091H20.4545C21.0573 40.9091 21.6354 40.6696 22.0616 40.2434C22.4878 39.8172 22.7273 39.2391 22.7273 38.6364V29.5455C22.7273 28.9427 22.4878 28.3646 22.0616 27.9384C21.6354 27.5122 21.0573 27.2727 20.4545 27.2727ZM18.1818 36.3636H13.6364V31.8182H18.1818V36.3636ZM29.5455 34.0909C30.1482 34.0909 30.7263 33.8515 31.1525 33.4252C31.5787 32.999 31.8182 32.4209 31.8182 31.8182C32.4209 31.8182 32.999 31.5787 33.4252 31.1525C33.8515 30.7263 34.0909 30.1482 34.0909 29.5455C34.0909 28.9427 33.8515 28.3646 33.4252 27.9384C32.999 27.5122 32.4209 27.2727 31.8182 27.2727H29.5455C28.9427 27.2727 28.3646 27.5122 27.9384 27.9384C27.5122 28.3646 27.2727 28.9427 27.2727 29.5455V31.8182C27.2727 32.4209 27.5122 32.999 27.9384 33.4252C28.3646 33.8515 28.9427 34.0909 29.5455 34.0909ZM38.6364 27.2727C38.0336 27.2727 37.4555 27.5122 37.0293 27.9384C36.6031 28.3646 36.3636 28.9427 36.3636 29.5455V36.3636C35.7609 36.3636 35.1828 36.6031 34.7566 37.0293C34.3304 37.4555 34.0909 38.0336 34.0909 38.6364C34.0909 39.2391 34.3304 39.8172 34.7566 40.2434C35.1828 40.6696 35.7609 40.9091 36.3636 40.9091H38.6364C39.2391 40.9091 39.8172 40.6696 40.2434 40.2434C40.6696 39.8172 40.9091 39.2391 40.9091 38.6364V29.5455C40.9091 28.9427 40.6696 28.3646 40.2434 27.9384C39.8172 27.5122 39.2391 27.2727 38.6364 27.2727ZM29.5455 36.3636C29.096 36.3636 28.6565 36.4969 28.2828 36.7467C27.909 36.9964 27.6177 37.3513 27.4457 37.7666C27.2737 38.1819 27.2287 38.6389 27.3164 39.0798C27.4041 39.5206 27.6205 39.9256 27.9384 40.2434C28.2562 40.5613 28.6612 40.7777 29.1021 40.8654C29.5429 40.9531 29.9999 40.9081 30.4152 40.7361C30.8305 40.5641 31.1854 40.2728 31.4352 39.899C31.6849 39.5253 31.8182 39.0859 31.8182 38.6364C31.8182 38.0336 31.5787 37.4555 31.1525 37.0293C30.7263 36.6031 30.1482 36.3636 29.5455 36.3636Z" fill="#94A3B8"/>
</svg>
