<svg width="32" height="44" viewBox="0 0 32 44" fill="none" xmlns="http://www.w3.org/2000/svg">
<path d="M15.8468 2C8.20223 2 2 7.90318 2 15.1737C2 23.5395 11.2312 36.7969 14.6208 41.376C14.7615 41.5693 14.9459 41.7266 15.159 41.835C15.3721 41.9435 15.6078 42 15.8468 42C16.0859 42 16.3216 41.9435 16.5347 41.835C16.7478 41.7266 16.9322 41.5693 17.0729 41.376C20.4625 36.7988 29.6937 23.5463 29.6937 15.1737C29.6937 7.90318 23.4915 2 15.8468 2Z" stroke="#EA4C89" stroke-width="4" stroke-linecap="round" stroke-linejoin="round"/>
<path d="M15.8471 20.4627C18.3962 20.4627 20.4627 18.3962 20.4627 15.8471C20.4627 13.2979 18.3962 11.2314 15.8471 11.2314C13.2979 11.2314 11.2314 13.2979 11.2314 15.8471C11.2314 18.3962 13.2979 20.4627 15.8471 20.4627Z" stroke="#EA4C89" stroke-width="4" stroke-linecap="round" stroke-linejoin="round"/>
</svg>
