<svg width="20" height="19" viewBox="0 0 20 19" fill="none" xmlns="http://www.w3.org/2000/svg">
<path d="M8.86453 9.38194C10.0634 9.93838 11.6993 8.66974 12.4405 8.09473C13.8069 7.03436 15.4292 5.00734 14.8723 3.80389C14.5358 3.07675 13.7041 3.27325 12.8697 2.08746C12.3612 1.36485 12.4667 1.0031 12.0117 0.728721C11.2583 0.274599 10.0974 0.739587 9.43728 1.22948C9.25663 1.36304 8.45252 1.99193 8.007 3.73235C7.59181 5.35144 7.30386 8.65706 8.86453 9.38194Z" fill="#91ADA3" fill-opacity="0.5"/>
<path d="M8.8646 9.38191C9.37034 8.70186 9.01084 7.52196 8.29231 5.16261C7.69556 3.20395 7.13912 2.57778 6.86203 2.30205C6.46631 1.90769 5.65405 1.09815 4.43023 1.08638C3.18423 1.07415 1.87891 1.8923 1.56967 2.94588C1.24957 4.03568 2.10982 4.98558 1.64121 5.44875C1.24549 5.84039 0.434594 5.35639 0.210929 5.66336C-0.0584658 6.03282 0.744284 7.24668 1.71275 8.09516C3.92087 10.0285 7.81826 10.7886 8.8646 9.38191Z" fill="#91ADA3" fill-opacity="0.5"/>
<path d="M8.86457 9.38194C7.76572 7.843 3.99284 8.8916 1.99887 10.0973C0.920835 10.7493 0.498859 11.3646 0.282438 11.8853C-0.120069 12.8546 -0.148593 14.3134 0.568585 14.8889C0.927626 15.1773 1.33692 15.1334 1.92733 15.6758C2.23974 15.9624 2.27324 16.11 2.42809 16.2481C3.13757 16.8788 5.13742 16.1802 6.43323 15.1755C8.28956 13.7353 9.85658 10.771 8.86457 9.38194Z" fill="#91ADA3" fill-opacity="0.5"/>
<path d="M14.1573 17.1057C13.7385 17.3746 12.8954 16.4863 12.0117 16.8911C11.7314 17.0197 11.6241 17.1967 11.4394 17.3918C10.6375 18.238 9.05239 18.703 8.14958 18.3213C6.48069 17.6164 6.89135 13.9137 6.93391 13.5297C7.02537 12.7062 7.34502 9.81845 8.86494 9.38198C10.6099 8.88032 12.7143 11.9605 13.5135 13.5297C14.3108 15.0959 14.6413 16.7946 14.1573 17.1057Z" fill="#91ADA3" fill-opacity="0.5"/>
<path d="M8.86473 9.38194C8.59171 11.0943 12.4755 13.8525 14.872 13.1009C15.6209 12.866 15.9238 12.3833 17.3749 11.9568C18.4289 11.6471 19.0714 11.6661 19.2344 11.2414C19.3901 10.8358 18.9138 10.5302 18.519 9.52502C18.0658 8.37047 18.4054 8.03814 18.0898 7.52244C17.2667 6.17773 13.8596 6.64499 11.5818 7.52244C10.1805 8.06214 9.00282 8.51581 8.86473 9.38194Z" fill="#91ADA3" fill-opacity="0.5"/>
</svg>
