<svg width="14" height="19" viewBox="0 0 14 19" fill="none" xmlns="http://www.w3.org/2000/svg">
<path d="M7.00781 4.5C6.38975 4.5 5.78556 4.68328 5.27166 5.02666C4.75775 5.37004 4.35721 5.8581 4.12069 6.42911C3.88417 7.00013 3.82228 7.62847 3.94286 8.23466C4.06344 8.84085 4.36106 9.39767 4.7981 9.83471C5.23514 10.2717 5.79196 10.5694 6.39816 10.69C7.00435 10.8105 7.63268 10.7486 8.2037 10.5121C8.77472 10.2756 9.26278 9.87506 9.60615 9.36116C9.94953 8.84725 10.1328 8.24307 10.1328 7.625C10.1307 6.79683 9.80085 6.00317 9.21524 5.41757C8.62964 4.83197 7.83598 4.50206 7.00781 4.5ZM7.00781 9.5C6.63697 9.5 6.27446 9.39003 5.96612 9.18401C5.65778 8.97798 5.41745 8.68514 5.27554 8.34253C5.13362 7.99992 5.09649 7.62292 5.16884 7.25921C5.24119 6.89549 5.41976 6.5614 5.68199 6.29917C5.94421 6.03695 6.2783 5.85837 6.64202 5.78603C7.00573 5.71368 7.38273 5.75081 7.72534 5.89273C8.06796 6.03464 8.36079 6.27496 8.56682 6.58331C8.77285 6.89165 8.88281 7.25416 8.88281 7.625C8.88076 8.12165 8.68255 8.59737 8.33137 8.94855C7.98018 9.29974 7.50446 9.49794 7.00781 9.5ZM7.00781 0.75C5.18508 0.752068 3.4376 1.47706 2.14874 2.76592C0.859873 4.05479 0.13488 5.80227 0.132812 7.625C0.132812 10.0781 1.26562 12.6797 3.41406 15.1406C4.37981 16.2553 5.46436 17.2613 6.64844 18.1406C6.75489 18.2115 6.87992 18.2493 7.00781 18.2493C7.1357 18.2493 7.26074 18.2115 7.36719 18.1406C8.55472 17.2626 9.642 16.2566 10.6094 15.1406C12.75 12.6797 13.8828 10.0781 13.8828 7.625C13.8807 5.80227 13.1558 4.05479 11.8669 2.76592C10.578 1.47706 8.83054 0.752068 7.00781 0.75ZM7.00781 16.8438C5.71875 15.8281 1.38281 12.0938 1.38281 7.625C1.38281 6.13316 1.97544 4.70242 3.03034 3.64752C4.08523 2.59263 5.51597 2 7.00781 2C8.49966 2 9.9304 2.59263 10.9853 3.64752C12.0402 4.70242 12.6328 6.13316 12.6328 7.625C12.6328 12.0938 8.29688 15.8281 7.00781 16.8438Z" fill="black"/>
</svg>
